0
SECTION
2
HEADER
9
$ACADVER
1
AC1032
9
$DWGCODEPAGE
3
ANSI_949
9
$INSUNITS
70
4
9
$EXTMIN
10
1148123.062
20
-974769.522
30
0
9
$EXTMAX
10
1160123.062
20
-965769.522
30
0
0
ENDSEC
0
SECTION
2
TABLES
0
TABLE
2
LAYER
70
13
0
LAYER
2
WAL
70
0
62
3
6
Continuous
0
LAYER
2
WAL-2
70
0
62
62
6
Continuous
0
LAYER
2
기존
70
0
62
9
6
Continuous
0
LAYER
2
FIN
70
0
62
150
6
Continuous
0
LAYER
2
ST-PL
70
0
62
181
6
Continuous
0
LAYER
2
BLO
70
0
62
7
6
Continuous
0
LAYER
2
COL
70
0
62
2
6
Continuous
0
LAYER
2
WIN
70
0
62
4
6
Continuous
0
LAYER
2
04창호
70
0
62
4
6
Continuous
0
LAYER
2
SYM
70
0
62
7
6
Continuous
0
LAYER
2
CEN
70
0
62
-1
6
Continuous
0
LAYER
2
TEXT2
70
0
62
-81
6
Continuous
0
LAYER
2
급식기구
70
0
62
8
6
Continuous
0
ENDTAB
0
ENDSEC
0
SECTION
2
BLOCKS
0
BLOCK
2
FIXTURE-OPENING
8
0
70
0
10
0
20
0
30
0
0
LINE
8
WIN
10
0
20
0
30
0
11
0
21
123.11
31
0
0
LINE
8
WIN
10
-53
20
189.61
30
0
11
-53
21
183.61
31
0
0
LINE
8
WIN
10
-45.5
20
120.67
30
0
11
-45.5
21
109.67
31
0
0
LINE
8
WIN
10
-45.5
20
95.67
30
0
11
-45.5
21
84.67
31
0
0
LINE
8
WIN
10
-85.5
20
100.67
30
0
11
-85.5
21
105.67
31
0
0
LINE
8
WIN
10
-85
20
-3.89
30
0
11
-85
21
-8.89
31
0
0
LINE
8
WIN
10
-45.5
20
95.67
30
0
11
-54.5
21
95.67
31
0
0
LINE
8
WIN
10
-54.5
20
95.67
30
0
11
-54.5
21
109.67
31
0
0
LINE
8
WIN
10
-54.5
20
109.67
30
0
11
-45.5
21
109.67
31
0
0
LINE
8
WIN
10
-100.5
20
100.67
30
0
11
-85.5
21
100.67
31
0
0
LINE
8
WIN
10
-85.5
20
100.67
30
0
11
-85.5
21
105.67
31
0
0
LINE
8
WIN
10
-85.5
20
105.67
30
0
11
-100.5
21
105.67
31
0
0
LINE
8
WIN
10
-45.5
20
84.67
30
0
11
-100.5
21
84.67
31
0
0
LINE
8
WIN
10
-100.5
20
84.67
30
0
11
-100.5
21
100.67
31
0
0
LINE
8
WIN
10
-100.5
20
105.67
30
0
11
-100.5
21
120.67
31
0
0
LINE
8
WIN
10
-100.5
20
120.67
30
0
11
-45.5
21
120.67
31
0
0
LINE
8
WIN
10
-45
20
-13.89
30
0
11
-54
21
-13.89
31
0
0
LINE
8
WIN
10
-54
20
-13.89
30
0
11
-54
21
0.11
31
0
0
LINE
8
WIN
10
-54
20
0.11
30
0
11
-45
21
0.11
31
0
0
LINE
8
WIN
10
-100
20
-8.89
30
0
11
-85
21
-8.89
31
0
0
LINE
8
WIN
10
-85
20
-8.89
30
0
11
-85
21
-3.89
31
0
0
LINE
8
WIN
10
-85
20
-3.89
30
0
11
-100
21
-3.89
31
0
0
LINE
8
WIN
10
-45
20
11.11
30
0
11
-45
21
0.11
31
0
0
LINE
8
WIN
10
-45
20
-13.89
30
0
11
-45
21
-24.89
31
0
0
LINE
8
WIN
10
-45
20
-24.89
30
0
11
-100
21
-24.89
31
0
0
LINE
8
WIN
10
-100
20
-24.89
30
0
11
-100
21
-8.89
31
0
0
LINE
8
WIN
10
-100
20
-3.89
30
0
11
-100
21
11.11
31
0
0
LINE
8
WIN
10
-100
20
11.11
30
0
11
-45
21
11.11
31
0
0
LINE
8
WIN
10
-53
20
-11.89
30
0
11
-53
21
-1.89
31
0
0
LINE
8
WIN
10
-53
20
97.61
30
0
11
-53
21
107.61
31
0
0
LINE
8
WIN
10
-53
20
147.61
30
0
11
-53
21
157.61
31
0
0
LINE
8
WIN
10
-53
20
38.11
30
0
11
-53
21
48.11
31
0
0
LINE
8
WIN
10
0
20
123.11
30
0
11
-4
21
123.11
31
0
0
LINE
8
WIN
10
0
20
133.11
30
0
11
-4
21
133.11
31
0
0
LINE
8
WIN
10
-4
20
123.11
30
0
11
-4
21
133.11
31
0
0
LINE
8
WIN
10
-4
20
13.11
30
0
11
-4
21
23.11
31
0
0
LINE
8
WIN
10
0
20
13.11
30
0
11
-4
21
13.11
31
0
0
LINE
8
WIN
10
0
20
23.11
30
0
11
-4
21
23.11
31
0
0
LINE
8
WIN
10
-32.78
20
97.67
30
0
11
-53
21
97.67
31
0
0
LINE
8
WIN
10
-32.44
20
107.61
30
0
11
-53
21
107.61
31
0
0
LINE
8
WIN
10
-31.24
20
147.61
30
0
11
-53
21
147.61
31
0
0
LINE
8
WIN
10
-30.9
20
157.61
30
0
11
-53
21
157.61
31
0
0
LINE
8
WIN
10
-30.12
20
183.61
30
0
11
-53
21
183.61
31
0
0
LINE
8
WIN
10
-34
20
38.11
30
0
11
-34
21
-1.89
31
0
0
LINE
8
WIN
10
-34
20
-11.89
30
0
11
-34
21
-29.39
31
0
0
LINE
8
WIN
10
-30.12
20
183.61
30
0
11
-30.88
21
157.61
31
0
0
LINE
8
WIN
10
-31.24
20
147.61
30
0
11
-32.42
21
107.65
31
0
0
LINE
8
WIN
10
-32.78
20
97.71
30
0
11
-34
21
48.11
31
0
0
LINE
8
WIN
10
-34
20
48.11
30
0
11
-53
21
48.11
31
0
0
LINE
8
WIN
10
-34
20
38.11
30
0
11
-53
21
38.11
31
0
0
LINE
8
WIN
10
-34
20
-1.89
30
0
11
-53
21
-1.89
31
0
0
LINE
8
WIN
10
-34
20
-11.89
30
0
11
-53
21
-11.89
31
0
0
LINE
8
WIN
10
-34
20
-29.39
30
0
11
-53
21
-29.39
31
0
0
LINE
8
WIN
10
-53
20
189.61
30
0
11
0
21
189.61
31
0
0
LINE
8
WIN
10
-53
20
-35.39
30
0
11
0
21
-35.39
31
0
0
LINE
8
WIN
10
-53
20
-35.39
30
0
11
-53
21
-29.39
31
0
0
LINE
8
WIN
10
-53
20
-11.89
30
0
11
-53
21
-1.89
31
0
0
LINE
8
WIN
10
0
20
-35.39
30
0
11
0
21
13.11
31
0
0
LINE
8
WIN
10
0
20
133.11
30
0
11
0
21
189.61
31
0
0
LINE
8
WIN
10
-1500
20
-35.39
30
0
11
-1500
21
13.11
31
0
0
LINE
8
WIN
10
-1500
20
23.11
30
0
11
-1500
21
123.11
31
0
0
LINE
8
WIN
10
-1500
20
133.11
30
0
11
-1500
21
189.61
31
0
0
LINE
8
WIN
10
-1448
20
184.11
30
0
11
-1448
21
189.61
31
0
0
LINE
8
WIN
10
-1447
20
-35.39
30
0
11
-1447
21
-29.89
31
0
0
LINE
8
WIN
10
-1414
20
155.61
30
0
11
-1414
21
150.61
31
0
0
LINE
8
WIN
10
-1454
20
145.61
30
0
11
-1445
21
145.61
31
0
0
LINE
8
WIN
10
-1445
20
145.61
30
0
11
-1445
21
159.61
31
0
0
LINE
8
WIN
10
-1445
20
159.61
30
0
11
-1454
21
159.61
31
0
0
LINE
8
WIN
10
-1399
20
150.61
30
0
11
-1414
21
150.61
31
0
0
LINE
8
WIN
10
-1414
20
150.61
30
0
11
-1414
21
155.61
31
0
0
LINE
8
WIN
10
-1414
20
155.61
30
0
11
-1399
21
155.61
31
0
0
LINE
8
WIN
10
-1454
20
170.61
30
0
11
-1454
21
159.61
31
0
0
LINE
8
WIN
10
-1454
20
145.61
30
0
11
-1454
21
134.61
31
0
0
LINE
8
WIN
10
-1454
20
134.61
30
0
11
-1399
21
134.61
31
0
0
LINE
8
WIN
10
-1399
20
134.61
30
0
11
-1399
21
150.61
31
0
0
LINE
8
WIN
10
-1399
20
155.61
30
0
11
-1399
21
170.61
31
0
0
LINE
8
WIN
10
-1399
20
170.61
30
0
11
-1454
21
170.61
31
0
0
LINE
8
WIN
10
-1414
20
46.11
30
0
11
-1414
21
41.11
31
0
0
LINE
8
WIN
10
-1454
20
36.11
30
0
11
-1445
21
36.11
31
0
0
LINE
8
WIN
10
-1445
20
36.11
30
0
11
-1445
21
50.11
31
0
0
LINE
8
WIN
10
-1445
20
50.11
30
0
11
-1454
21
50.11
31
0
0
LINE
8
WIN
10
-1399
20
41.11
30
0
11
-1414
21
41.11
31
0
0
LINE
8
WIN
10
-1414
20
41.11
30
0
11
-1414
21
46.11
31
0
0
LINE
8
WIN
10
-1414
20
46.11
30
0
11
-1399
21
46.11
31
0
0
LINE
8
WIN
10
-1454
20
61.11
30
0
11
-1454
21
50.11
31
0
0
LINE
8
WIN
10
-1454
20
36.11
30
0
11
-1454
21
25.11
31
0
0
LINE
8
WIN
10
-1454
20
25.11
30
0
11
-1399
21
25.11
31
0
0
LINE
8
WIN
10
-1399
20
25.11
30
0
11
-1399
21
41.11
31
0
0
LINE
8
WIN
10
-1399
20
46.11
30
0
11
-1399
21
61.11
31
0
0
LINE
8
WIN
10
-1399
20
61.11
30
0
11
-1454
21
61.11
31
0
0
LINE
8
WIN
10
-1446
20
147.67
30
0
11
-1446
21
157.61
31
0
0
LINE
8
WIN
10
-1446
20
38.17
30
0
11
-1446
21
48.11
31
0
0
LINE
8
WIN
10
-1446
20
-11.89
30
0
11
-1446
21
-1.89
31
0
0
LINE
8
WIN
10
-1446
20
97.67
30
0
11
-1446
21
107.61
31
0
0
LINE
8
WIN
10
-1468.9
20
157.61
30
0
11
-1469.58
21
184.11
31
0
0
LINE
8
WIN
10
-1467.58
20
107.61
30
0
11
-1468.62
21
147.61
31
0
0
LINE
8
WIN
10
-1466.02
20
48.11
30
0
11
-1467.3
21
97.61
31
0
0
LINE
8
WIN
10
-1466.02
20
48.11
30
0
11
-1446
21
48.11
31
0
0
LINE
8
WIN
10
-1467.3
20
97.61
30
0
11
-1446
21
97.61
31
0
0
LINE
8
WIN
10
-1468.9
20
157.61
30
0
11
-1446
21
157.61
31
0
0
LINE
8
WIN
10
-1466
20
-11.89
30
0
11
-1446
21
-11.89
31
0
0
LINE
8
WIN
10
-1466
20
-29.89
30
0
11
-1466
21
-11.89
31
0
0
LINE
8
WIN
10
-1466
20
-1.89
30
0
11
-1466
21
38.11
31
0
0
LINE
8
WIN
10
-1466
20
-29.89
30
0
11
-1447
21
-29.89
31
0
0
LINE
8
WIN
10
-1466
20
-1.89
30
0
11
-1446
21
-1.89
31
0
0
LINE
8
WIN
10
-1466
20
38.11
30
0
11
-1446
21
38.11
31
0
0
LINE
8
WIN
10
-1467.58
20
107.61
30
0
11
-1446
21
107.61
31
0
0
LINE
8
WIN
10
-1468.62
20
147.61
30
0
11
-1446
21
147.61
31
0
0
LINE
8
WIN
10
-1469.58
20
184.11
30
0
11
-1448
21
184.11
31
0
0
LINE
8
WIN
10
-1500
20
123.11
30
0
11
-1496
21
123.11
31
0
0
LINE
8
WIN
10
-1500
20
133.11
30
0
11
-1496
21
133.11
31
0
0
LINE
8
WIN
10
-1496
20
123.11
30
0
11
-1496
21
133.11
31
0
0
LINE
8
WIN
10
-1496
20
13.11
30
0
11
-1496
21
23.11
31
0
0
LINE
8
WIN
10
-1500
20
13.11
30
0
11
-1496
21
13.11
31
0
0
LINE
8
WIN
10
-1500
20
23.11
30
0
11
-1496
21
23.11
31
0
0
LINE
8
WIN
10
-1447
20
189.61
30
0
11
-1500
21
189.61
31
0
0
LINE
8
WIN
10
-1447
20
-35.39
30
0
11
-1500
21
-35.39
31
0
0
LINE
8
WIN
10
-777
20
107.61
30
0
11
-1446
21
107.61
31
0
0
LINE
8
WIN
10
-777
20
97.67
30
0
11
-1446
21
97.67
31
0
0
LINE
8
WIN
10
-777.5
20
-1.89
30
0
11
-1446
21
-1.89
31
0
0
ENDBLK
0
BLOCK
2
1f plan-1
8
0
70
0
10
0
20
0
30
0
0
LINE
8
급식기구
10
1149954.196
20
-971454.387
30
0
11
1149552.196
21
-971454.387
31
0
0
LINE
8
급식기구
10
1149552.196
20
-972218.387
30
0
11
1149954.196
21
-972218.387
31
0
0
LINE
8
급식기구
10
1149954.196
20
-972236.387
30
0
11
1149954.196
21
-971436.387
31
0
0
LINE
8
급식기구
10
1149954.196
20
-971836.387
30
0
11
1149972.196
21
-971836.387
31
0
0
LINE
8
급식기구
10
1149552.196
20
-972236.387
30
0
11
1149957.196
21
-972236.387
31
0
0
LINE
8
급식기구
10
1149972.196
20
-972221.387
30
0
11
1149972.196
21
-971451.387
31
0
0
LINE
8
급식기구
10
1149957.196
20
-971436.387
30
0
11
1149552.196
21
-971436.387
31
0
0
LINE
8
급식기구
10
1149552.196
20
-971436.387
30
0
11
1149552.196
21
-972236.387
31
0
0
LINE
8
급식기구
10
1149552.196
20
-974650.126
30
0
11
1149952.196
21
-974650.126
31
0
0
LINE
8
급식기구
10
1150117.196
20
-970636.387
30
0
11
1149552.196
21
-970636.387
31
0
0
LINE
8
급식기구
10
1150114.196
20
-970654.387
30
0
11
1149552.196
21
-970654.387
31
0
0
LINE
8
급식기구
10
1149552.196
20
-970636.387
30
0
11
1149552.196
21
-971036.387
31
0
0
LINE
8
급식기구
10
1149552.196
20
-971036.387
30
0
11
1150117.196
21
-971036.387
31
0
0
LINE
8
급식기구
10
1149552.196
20
-971018.387
30
0
11
1150114.196
21
-971018.387
31
0
0
LINE
8
급식기구
10
1150132.196
20
-971021.387
30
0
11
1150132.196
21
-970651.387
31
0
0
LINE
8
급식기구
10
1150114.196
20
-971036.387
30
0
11
1150114.196
21
-970636.387
31
0
0
LINE
8
급식기구
10
1150114.196
20
-971436.387
30
0
11
1150114.196
21
-971036.387
31
0
0
LINE
8
급식기구
10
1150132.196
20
-971421.387
30
0
11
1150132.196
21
-971051.387
31
0
0
LINE
8
급식기구
10
1149552.196
20
-971418.387
30
0
11
1150114.196
21
-971418.387
31
0
0
LINE
8
급식기구
10
1149552.196
20
-971436.387
30
0
11
1150117.196
21
-971436.387
31
0
0
LINE
8
급식기구
10
1149552.196
20
-971036.387
30
0
11
1149552.196
21
-971436.387
31
0
0
LINE
8
급식기구
10
1150114.196
20
-971054.387
30
0
11
1149552.196
21
-971054.387
31
0
0
LINE
8
급식기구
10
1150117.196
20
-971036.387
30
0
11
1149552.196
21
-971036.387
31
0
0
LINE
8
급식기구
10
1149952.196
20
-973036.387
30
0
11
1149952.196
21
-973836.387
31
0
0
LINE
8
급식기구
10
1149952.196
20
-973836.387
30
0
11
1149552.196
21
-973836.387
31
0
0
LINE
8
급식기구
10
1149552.196
20
-973836.387
30
0
11
1149552.196
21
-973036.387
31
0
0
LINE
8
급식기구
10
1149552.196
20
-973036.387
30
0
11
1149952.196
21
-973036.387
31
0
0
LINE
8
급식기구
10
1149952.196
20
-973836.387
30
0
11
1149952.196
21
-974636.387
31
0
0
LINE
8
급식기구
10
1149952.196
20
-974636.387
30
0
11
1149552.196
21
-974636.387
31
0
0
LINE
8
급식기구
10
1149552.196
20
-974636.387
30
0
11
1149552.196
21
-973836.387
31
0
0
LINE
8
급식기구
10
1149552.196
20
-973836.387
30
0
11
1149952.196
21
-973836.387
31
0
0
LINE
8
급식기구
10
1151245.348
20
-971536.363
30
0
11
1151995.348
21
-971536.363
31
0
0
LINE
8
급식기구
10
1151245.348
20
-972416.363
30
0
11
1151245.348
21
-971536.363
31
0
0
LINE
8
급식기구
10
1151995.348
20
-971536.363
30
0
11
1151995.348
21
-973336.363
31
0
0
LINE
8
급식기구
10
1151298.129
20
-972022.559
30
0
11
1151298.129
21
-971602.559
31
0
0
LINE
8
급식기구
10
1151298.129
20
-971602.559
30
0
11
1151878.129
21
-971602.559
31
0
0
LINE
8
급식기구
10
1151878.129
20
-971602.559
30
0
11
1151878.129
21
-972022.559
31
0
0
LINE
8
급식기구
10
1151878.129
20
-972022.559
30
0
11
1151298.129
21
-972022.559
31
0
0
LINE
8
급식기구
10
1150889.492
20
-972185.935
30
0
11
1151151.39
21
-972311.599
31
0
0
LINE
8
급식기구
10
1150932.645
20
-972181.685
30
0
11
1151121.458
21
-972272.281
31
0
0
LINE
8
급식기구
10
1150952.112
20
-972141.113
30
0
11
1151140.925
21
-972231.709
31
0
0
LINE
8
급식기구
10
1150679.682
20
-972623.205
30
0
11
1150941.58
21
-972748.868
31
0
0
LINE
8
급식기구
10
1150683.901
20
-972700.097
30
0
11
1150872.714
21
-972790.693
31
0
0
LINE
8
급식기구
10
1150703.368
20
-972659.526
30
0
11
1150892.181
21
-972750.122
31
0
0
LINE
8
급식기구
10
1150700.597
20
-972095.3
30
0
11
1150799.334
21
-972142.675
31
0
0
LINE
8
급식기구
10
1150822.783
20
-972209.385
30
0
11
1150656.233
21
-972556.496
31
0
0
LINE
8
급식기구
10
1150633.887
20
-972118.749
30
0
11
1150467.337
21
-972465.86
31
0
0
LINE
8
급식기구
10
1150490.787
20
-972532.569
30
0
11
1150589.524
21
-972579.945
31
0
0
LINE
8
급식기구
10
1151174.839
20
-972378.308
30
0
11
1151008.289
21
-972725.419
31
0
0
LINE
8
급식기구
10
1150795.348
20
-972886.363
30
0
11
1150795.348
21
-973336.363
31
0
0
LINE
8
급식기구
10
1150795.348
20
-973336.363
30
0
11
1151995.348
21
-973336.363
31
0
0
LINE
8
급식기구
10
1154395.348
20
-972136.363
30
0
11
1151995.348
21
-972136.363
31
0
0
LINE
8
급식기구
10
1151995.348
20
-972136.363
30
0
11
1151995.348
21
-973336.363
31
0
0
LINE
8
급식기구
10
1151995.348
20
-973336.363
30
0
11
1154395.348
21
-973336.363
31
0
0
LINE
8
급식기구
10
1154395.348
20
-973336.363
30
0
11
1154395.348
21
-972136.363
31
0
0
LINE
8
급식기구
10
1154239.758
20
-971909.999
30
0
11
1154196.986
21
-971939.872
31
0
0
LINE
8
급식기구
10
1154239.758
20
-972004.619
30
0
11
1154239.758
21
-972254.202
31
0
0
LINE
8
급식기구
10
1154207.94
20
-972286.021
30
0
11
1153933.294
21
-972286.021
31
0
0
LINE
8
급식기구
10
1153901.476
20
-972254.202
30
0
11
1153901.476
21
-972004.619
31
0
0
LINE
8
급식기구
10
1153664.489
20
-971909.999
30
0
11
1153621.717
21
-971939.872
31
0
0
LINE
8
급식기구
10
1153664.489
20
-972004.619
30
0
11
1153664.489
21
-972254.202
31
0
0
LINE
8
급식기구
10
1153632.671
20
-972286.021
30
0
11
1153358.025
21
-972286.021
31
0
0
LINE
8
급식기구
10
1153326.207
20
-972254.202
30
0
11
1153326.207
21
-972004.619
31
0
0
LINE
8
급식기구
10
1153089.22
20
-971909.999
30
0
11
1153046.448
21
-971939.872
31
0
0
LINE
8
급식기구
10
1153089.22
20
-972004.619
30
0
11
1153089.22
21
-972254.202
31
0
0
LINE
8
급식기구
10
1153057.402
20
-972286.021
30
0
11
1152782.756
21
-972286.021
31
0
0
LINE
8
급식기구
10
1152750.938
20
-972254.202
30
0
11
1152750.938
21
-972004.619
31
0
0
LINE
8
급식기구
10
1154239.758
20
-973562.727
30
0
11
1154196.986
21
-973532.854
31
0
0
LINE
8
급식기구
10
1154239.758
20
-973468.107
30
0
11
1154239.758
21
-973218.524
31
0
0
LINE
8
급식기구
10
1154207.94
20
-973186.705
30
0
11
1153933.294
21
-973186.705
31
0
0
LINE
8
급식기구
10
1153901.476
20
-973218.524
30
0
11
1153901.476
21
-973468.107
31
0
0
LINE
8
급식기구
10
1153664.489
20
-973562.727
30
0
11
1153621.717
21
-973532.854
31
0
0
LINE
8
급식기구
10
1153664.489
20
-973468.107
30
0
11
1153664.489
21
-973218.524
31
0
0
LINE
8
급식기구
10
1153632.671
20
-973186.705
30
0
11
1153358.025
21
-973186.705
31
0
0
LINE
8
급식기구
10
1153326.207
20
-973218.524
30
0
11
1153326.207
21
-973468.107
31
0
0
LINE
8
급식기구
10
1153089.22
20
-973562.727
30
0
11
1153046.448
21
-973532.854
31
0
0
LINE
8
급식기구
10
1153089.22
20
-973468.107
30
0
11
1153089.22
21
-973218.524
31
0
0
LINE
8
급식기구
10
1153057.402
20
-973186.705
30
0
11
1152782.756
21
-973186.705
31
0
0
LINE
8
급식기구
10
1152750.938
20
-973218.524
30
0
11
1152750.938
21
-973468.107
31
0
0
LINE
8
급식기구
10
1152513.951
20
-973562.727
30
0
11
1152471.179
21
-973532.854
31
0
0
LINE
8
급식기구
10
1152513.951
20
-973468.107
30
0
11
1152513.951
21
-973218.524
31
0
0
LINE
8
급식기구
10
1152482.133
20
-973186.705
30
0
11
1152207.487
21
-973186.705
31
0
0
LINE
8
급식기구
10
1152175.669
20
-973218.524
30
0
11
1152175.669
21
-973468.107
31
0
0
LINE
8
급식기구
10
1152513.951
20
-971909.999
30
0
11
1152471.179
21
-971939.872
31
0
0
LINE
8
급식기구
10
1152513.951
20
-972004.619
30
0
11
1152513.951
21
-972254.202
31
0
0
LINE
8
급식기구
10
1152482.133
20
-972286.021
30
0
11
1152207.487
21
-972286.021
31
0
0
LINE
8
급식기구
10
1152175.669
20
-972254.202
30
0
11
1152175.669
21
-972004.619
31
0
0
LINE
8
급식기구
10
1151995.348
20
-970636.363
30
0
11
1151995.348
21
-971536.363
31
0
0
LINE
8
급식기구
10
1151995.348
20
-971536.363
30
0
11
1151245.348
21
-971536.363
31
0
0
LINE
8
급식기구
10
1151245.348
20
-971536.363
30
0
11
1151245.348
21
-970636.363
31
0
0
LINE
8
급식기구
10
1151245.348
20
-970636.363
30
0
11
1151995.348
21
-970636.363
31
0
0
LINE
8
급식기구
10
1155296.843
20
-971292.369
30
0
11
1155296.843
21
-971912.369
31
0
0
LINE
8
급식기구
10
1155256.843
20
-971252.369
30
0
11
1155256.843
21
-971952.369
31
0
0
LINE
8
급식기구
10
1155816.843
20
-971292.369
30
0
11
1155296.843
21
-971292.369
31
0
0
LINE
8
급식기구
10
1155816.843
20
-971912.369
30
0
11
1155816.843
21
-971292.369
31
0
0
LINE
8
급식기구
10
1155296.843
20
-971912.369
30
0
11
1155816.843
21
-971912.369
31
0
0
LINE
8
급식기구
10
1155856.843
20
-971952.369
30
0
11
1155856.843
21
-971252.369
31
0
0
LINE
8
급식기구
10
1155856.843
20
-971320.669
30
0
11
1155886.843
21
-971320.669
31
0
0
LINE
8
급식기구
10
1155886.843
20
-971320.669
30
0
11
1155886.843
21
-971880.885
31
0
0
LINE
8
급식기구
10
1155556.843
20
-971376.125
30
0
11
1155556.843
21
-971830.567
31
0
0
LINE
8
급식기구
10
1155378.484
20
-971602.369
30
0
11
1155734.044
21
-971602.369
31
0
0
LINE
8
급식기구
10
1155256.843
20
-971952.369
30
0
11
1155856.843
21
-971252.369
31
0
0
LINE
8
급식기구
10
1155856.843
20
-971880.885
30
0
11
1155886.843
21
-971880.885
31
0
0
LINE
8
급식기구
10
1155256.843
20
-971252.369
30
0
11
1155856.843
21
-971252.369
31
0
0
LINE
8
급식기구
10
1155256.843
20
-971952.369
30
0
11
1155856.843
21
-971952.369
31
0
0
LINE
8
급식기구
10
1155886.843
20
-971320.669
30
0
11
1156002.851
21
-971853.617
31
0
0
LINE
8
급식기구
10
1155428.484
20
-971730.567
30
0
11
1155428.484
21
-971476.125
31
0
0
LINE
8
급식기구
10
1155428.484
20
-971476.125
30
0
11
1155684.044
21
-971476.125
31
0
0
LINE
8
급식기구
10
1155684.044
20
-971476.125
30
0
11
1155684.044
21
-971730.567
31
0
0
LINE
8
급식기구
10
1155684.044
20
-971730.567
30
0
11
1155428.484
21
-971730.567
31
0
0
LINE
8
급식기구
10
1156508.971
20
-970997.134
30
0
11
1156948.971
21
-970997.134
31
0
0
LINE
8
급식기구
10
1156998.971
20
-970947.134
30
0
11
1156998.971
21
-970627.134
31
0
0
LINE
8
급식기구
10
1156948.971
20
-970577.134
30
0
11
1156508.971
21
-970577.134
31
0
0
LINE
8
급식기구
10
1156458.971
20
-970627.134
30
0
11
1156458.971
21
-970947.134
31
0
0
LINE
8
급식기구
10
1156613.046
20
-970945.747
30
0
11
1156405.48
21
-970945.747
31
0
0
LINE
8
급식기구
10
1156355.48
20
-970895.747
30
0
11
1156355.48
21
-970678.421
31
0
0
LINE
8
급식기구
10
1156405.48
20
-970628.421
30
0
11
1156613.046
21
-970628.421
31
0
0
LINE
8
급식기구
10
1156663.046
20
-970678.421
30
0
11
1156663.046
21
-970895.747
31
0
0
LINE
8
급식기구
10
1156449.202
20
-970966.848
30
0
11
1156414.782
21
-970966.848
31
0
0
LINE
8
급식기구
10
1156414.782
20
-970966.848
30
0
11
1156414.782
21
-970575.652
31
0
0
LINE
8
급식기구
10
1156414.782
20
-970575.652
30
0
11
1156449.202
21
-970575.652
31
0
0
LINE
8
급식기구
10
1156449.202
20
-970575.652
30
0
11
1156449.202
21
-970966.848
31
0
0
LINE
8
급식기구
10
1156449.202
20
-970613.171
30
0
11
1156469.272
21
-970613.171
31
0
0
LINE
8
급식기구
10
1156469.272
20
-970613.171
30
0
11
1156469.272
21
-970580.929
31
0
0
LINE
8
급식기구
10
1156469.272
20
-970580.929
30
0
11
1156449.202
21
-970580.929
31
0
0
LINE
8
급식기구
10
1156414.782
20
-970580.929
30
0
11
1156241.547
21
-970580.929
31
0
0
LINE
8
급식기구
10
1156241.777
20
-970613.171
30
0
11
1156414.782
21
-970613.171
31
0
0
LINE
8
급식기구
10
1156231.815
20
-970622.302
30
0
11
1156164.209
21
-970622.302
31
0
0
LINE
8
급식기구
10
1156154.209
20
-970612.302
30
0
11
1156154.209
21
-970583.229
31
0
0
LINE
8
급식기구
10
1156164.209
20
-970573.229
30
0
11
1156231.815
21
-970573.229
31
0
0
LINE
8
급식기구
10
1156241.815
20
-970583.229
30
0
11
1156241.815
21
-970612.302
31
0
0
LINE
8
급식기구
10
1156967.181
20
-970961.78
30
0
11
1156879.621
21
-970977.219
31
0
0
LINE
8
급식기구
10
1156879.621
20
-970977.219
30
0
11
1156875.05
21
-970951.296
31
0
0
LINE
8
급식기구
10
1156875.05
20
-970951.296
30
0
11
1156962.61
21
-970935.857
31
0
0
LINE
8
급식기구
10
1156962.61
20
-970935.857
30
0
11
1156967.181
21
-970961.78
31
0
0
LINE
8
급식기구
10
1156967.181
20
-970632.749
30
0
11
1156879.621
21
-970648.188
31
0
0
LINE
8
급식기구
10
1156879.621
20
-970648.188
30
0
11
1156875.05
21
-970622.265
31
0
0
LINE
8
급식기구
10
1156875.05
20
-970622.265
30
0
11
1156962.61
21
-970606.826
31
0
0
LINE
8
급식기구
10
1156962.61
20
-970606.826
30
0
11
1156967.181
21
-970632.749
31
0
0
LINE
8
급식기구
10
1156576.963
20
-970961.78
30
0
11
1156489.403
21
-970977.219
31
0
0
LINE
8
급식기구
10
1156489.403
20
-970977.219
30
0
11
1156484.832
21
-970951.296
31
0
0
LINE
8
급식기구
10
1156484.832
20
-970951.296
30
0
11
1156572.392
21
-970935.857
31
0
0
LINE
8
급식기구
10
1156572.392
20
-970935.857
30
0
11
1156576.963
21
-970961.78
31
0
0
LINE
8
급식기구
10
1156576.963
20
-970632.749
30
0
11
1156489.403
21
-970648.188
31
0
0
LINE
8
급식기구
10
1156489.403
20
-970648.188
30
0
11
1156484.832
21
-970622.265
31
0
0
LINE
8
급식기구
10
1156484.832
20
-970622.265
30
0
11
1156572.392
21
-970606.826
31
0
0
LINE
8
급식기구
10
1156572.392
20
-970606.826
30
0
11
1156576.963
21
-970632.749
31
0
0
LINE
8
급식기구
10
1156322.196
20
-972353.899
30
0
11
1156922.196
21
-972353.899
31
0
0
LINE
8
급식기구
10
1156922.196
20
-972353.899
30
0
11
1156922.196
21
-972753.899
31
0
0
LINE
8
급식기구
10
1156922.196
20
-972753.899
30
0
11
1156322.196
21
-972753.899
31
0
0
LINE
8
급식기구
10
1156322.196
20
-972753.899
30
0
11
1156322.196
21
-972353.899
31
0
0
LINE
8
급식기구
10
1160030.17
20
-966418.856
30
0
11
1158959.459
21
-965948.145
31
0
0
LINE
8
급식기구
10
1158959.459
20
-966418.856
30
0
11
1160030.17
21
-965948.145
31
0
0
LINE
8
급식기구
10
1159494.815
20
-966134.753
30
0
11
1159494.815
21
-966232.248
31
0
0
LINE
8
급식기구
10
1159543.562
20
-966183.5
30
0
11
1159446.067
21
-966183.5
31
0
0
LINE
8
급식기구
10
1160073.143
20
-965965.378
30
0
11
1160009.504
21
-965901.738
31
0
0
LINE
8
급식기구
10
1160051.93
20
-965986.591
30
0
11
1159988.291
21
-965922.951
31
0
0
LINE
8
급식기구
10
1160048.208
20
-965926.673
30
0
11
1160012.118
21
-965962.763
31
0
0
LINE
8
급식기구
10
1160079.278
20
-965992.726
30
0
11
1159980.53
21
-965893.978
31
0
0
LINE
8
급식기구
10
1160071.681
20
-966437.002
30
0
11
1160008.041
21
-966373.363
31
0
0
LINE
8
급식기구
10
1160050.468
20
-966458.215
30
0
11
1159986.828
21
-966394.576
31
0
0
LINE
8
급식기구
10
1160046.746
20
-966398.298
30
0
11
1160010.656
21
-966434.388
31
0
0
LINE
8
급식기구
10
1160077.816
20
-966464.35
30
0
11
1159979.068
21
-966365.602
31
0
0
LINE
8
급식기구
10
1159006.927
20
-965965.378
30
0
11
1158943.288
21
-965901.738
31
0
0
LINE
8
급식기구
10
1158985.714
20
-965986.591
30
0
11
1158922.075
21
-965922.951
31
0
0
LINE
8
급식기구
10
1158981.992
20
-965926.673
30
0
11
1158945.902
21
-965962.763
31
0
0
LINE
8
급식기구
10
1159013.062
20
-965992.726
30
0
11
1158914.314
21
-965893.978
31
0
0
LINE
8
급식기구
10
1159005.465
20
-966437.002
30
0
11
1158941.825
21
-966373.363
31
0
0
LINE
8
급식기구
10
1158984.252
20
-966458.215
30
0
11
1158920.612
21
-966394.576
31
0
0
LINE
8
급식기구
10
1158980.53
20
-966398.298
30
0
11
1158944.44
21
-966434.388
31
0
0
LINE
8
급식기구
10
1159011.6
20
-966464.35
30
0
11
1158912.852
21
-966365.602
31
0
0
LINE
8
급식기구
10
1159994.815
20
-965933.5
30
0
11
1158994.815
21
-965933.5
31
0
0
LINE
8
급식기구
10
1158944.815
20
-965983.5
30
0
11
1158944.815
21
-966383.5
31
0
0
LINE
8
급식기구
10
1158994.815
20
-966433.5
30
0
11
1159994.815
21
-966433.5
31
0
0
LINE
8
급식기구
10
1160044.815
20
-966383.5
30
0
11
1160044.815
21
-965983.5
31
0
0
LINE
8
급식기구
10
1160094.815
20
-965883.5
30
0
11
1158894.815
21
-965883.5
31
0
0
LINE
8
급식기구
10
1158894.815
20
-965883.5
30
0
11
1158894.815
21
-966483.5
31
0
0
LINE
8
급식기구
10
1158894.815
20
-966483.5
30
0
11
1160094.815
21
-966483.5
31
0
0
LINE
8
급식기구
10
1160094.815
20
-966483.5
30
0
11
1160094.815
21
-965883.5
31
0
0
LINE
8
급식기구
10
1160094.815
20
-966483.5
30
0
11
1160094.815
21
-965983.5
31
0
0
LINE
8
급식기구
10
1158830.17
20
-966418.856
30
0
11
1157759.459
21
-965948.145
31
0
0
LINE
8
급식기구
10
1157759.459
20
-966418.856
30
0
11
1158830.17
21
-965948.145
31
0
0
LINE
8
급식기구
10
1158294.815
20
-966134.753
30
0
11
1158294.815
21
-966232.248
31
0
0
LINE
8
급식기구
10
1158343.562
20
-966183.5
30
0
11
1158246.067
21
-966183.5
31
0
0
LINE
8
급식기구
10
1158873.143
20
-965965.378
30
0
11
1158809.504
21
-965901.738
31
0
0
LINE
8
급식기구
10
1158851.93
20
-965986.591
30
0
11
1158788.291
21
-965922.951
31
0
0
LINE
8
급식기구
10
1158848.208
20
-965926.673
30
0
11
1158812.118
21
-965962.763
31
0
0
LINE
8
급식기구
10
1158879.278
20
-965992.726
30
0
11
1158780.53
21
-965893.978
31
0
0
LINE
8
급식기구
10
1158871.681
20
-966437.002
30
0
11
1158808.041
21
-966373.363
31
0
0
LINE
8
급식기구
10
1158850.468
20
-966458.215
30
0
11
1158786.828
21
-966394.576
31
0
0
LINE
8
급식기구
10
1158846.746
20
-966398.298
30
0
11
1158810.656
21
-966434.388
31
0
0
LINE
8
급식기구
10
1158877.816
20
-966464.35
30
0
11
1158779.068
21
-966365.602
31
0
0
LINE
8
급식기구
10
1157806.927
20
-965965.378
30
0
11
1157743.288
21
-965901.738
31
0
0
LINE
8
급식기구
10
1157785.714
20
-965986.591
30
0
11
1157722.075
21
-965922.951
31
0
0
LINE
8
급식기구
10
1157781.992
20
-965926.673
30
0
11
1157745.902
21
-965962.763
31
0
0
LINE
8
급식기구
10
1157813.062
20
-965992.726
30
0
11
1157714.314
21
-965893.978
31
0
0
LINE
8
급식기구
10
1157805.465
20
-966437.002
30
0
11
1157741.825
21
-966373.363
31
0
0
LINE
8
급식기구
10
1157784.252
20
-966458.215
30
0
11
1157720.612
21
-966394.576
31
0
0
LINE
8
급식기구
10
1157780.53
20
-966398.298
30
0
11
1157744.44
21
-966434.388
31
0
0
LINE
8
급식기구
10
1157811.6
20
-966464.35
30
0
11
1157712.852
21
-966365.602
31
0
0
LINE
8
FIN
10
1157027.196
20
-972833.899
30
0
11
1157117.196
21
-972833.899
31
0
0
LINE
8
FIN
10
1157027.196
20
-972833.899
30
0
11
1157027.196
21
-972283.899
31
0
0
LINE
8
WAL-2
10
1154452.196
20
-970544.29
30
0
11
1154452.196
21
-970583.899
31
0
0
LINE
8
WAL-2
10
1154452.196
20
-970583.899
30
0
11
1154927.196
21
-970583.899
31
0
0
LINE
8
WAL-2
10
1154927.196
20
-970583.899
30
0
11
1154927.196
21
-972332.899
31
0
0
LINE
8
WAL-2
10
1154927.196
20
-972332.899
30
0
11
1156977.196
21
-972332.899
31
0
0
LINE
8
WAL-2
10
1156977.196
20
-972332.899
30
0
11
1156977.196
21
-972833.899
31
0
0
LINE
8
WAL-2
10
1156977.196
20
-972833.899
30
0
11
1157117.196
21
-972833.899
31
0
0
LINE
8
WAL-2
10
1157252.196
20
-974458.899
30
0
11
1157327.196
21
-974458.899
31
0
0
LINE
8
WAL-2
10
1157327.196
20
-974458.899
30
0
11
1157327.196
21
-973428.899
31
0
0
LINE
8
WAL-2
10
1157327.196
20
-973428.899
30
0
11
1157252.196
21
-973428.899
31
0
0
LINE
8
WAL-2
10
1157252.196
20
-972788.899
30
0
11
1157327.196
21
-972788.899
31
0
0
LINE
8
WAL-2
10
1157327.196
20
-972788.899
30
0
11
1157327.196
21
-971758.899
31
0
0
LINE
8
WAL-2
10
1157327.196
20
-971758.899
30
0
11
1157252.196
21
-971758.899
31
0
0
LINE
8
기존
10
1157227.196
20
-966283.899
30
0
11
1157577.196
21
-966283.899
31
0
0
LINE
8
기존
10
1157152.196
20
-970883.899
30
0
11
1157527.196
21
-970883.899
31
0
0
LINE
8
기존
10
1157527.196
20
-970333.899
30
0
11
1157227.196
21
-970333.899
31
0
0
LINE
8
기존
10
1157527.196
20
-970883.899
30
0
11
1157527.196
21
-970333.899
31
0
0
LINE
8
기존
10
1157227.196
20
-966283.899
30
0
11
1157227.196
21
-970333.899
31
0
0
LINE
8
기존
10
1157202.196
20
-966258.899
30
0
11
1157202.196
21
-970358.899
31
0
0
LINE
8
기존
10
1157052.196
20
-966258.899
30
0
11
1157052.196
21
-970358.899
31
0
0
LINE
8
기존
10
1157027.196
20
-970883.899
30
0
11
1157027.196
21
-970533.899
31
0
0
LINE
8
기존
10
1148502.196
20
-970543.899
30
0
11
1148502.196
21
-970408.899
31
0
0
LINE
8
기존
10
1148477.196
20
-970518.899
30
0
11
1148477.196
21
-970408.899
31
0
0
LINE
8
기존
10
1148377.196
20
-970308.899
30
0
11
1148377.196
21
-970368.899
31
0
0
LINE
8
기존
10
1148377.196
20
-970408.899
30
0
11
1148377.196
21
-970368.899
31
0
0
LINE
8
기존
10
1148977.196
20
-970308.899
30
0
11
1148977.196
21
-970368.899
31
0
0
LINE
8
기존
10
1148977.196
20
-970518.899
30
0
11
1148877.196
21
-970518.899
31
0
0
LINE
8
기존
10
1148877.196
20
-970518.899
30
0
11
1148877.196
21
-970208.899
31
0
0
LINE
8
기존
10
1148852.196
20
-970543.899
30
0
11
1148852.196
21
-970408.899
31
0
0
LINE
8
기존
10
1148877.196
20
-970208.899
30
0
11
1148877.196
21
-970158.899
31
0
0
LINE
8
기존
10
1148477.196
20
-970158.899
30
0
11
1148877.196
21
-970158.899
31
0
0
LINE
8
기존
10
1148477.196
20
-970208.899
30
0
11
1148477.196
21
-970158.899
31
0
0
LINE
8
기존
10
1148348.062
20
-970543.899
30
0
11
1148952.196
21
-970543.899
31
0
0
LINE
8
기존
10
1148348.062
20
-970208.899
30
0
11
1148477.196
21
-970208.899
31
0
0
LINE
8
기존
10
1148348.062
20
-970518.899
30
0
11
1148477.196
21
-970518.899
31
0
0
LINE
8
기존
10
1148348.062
20
-970308.899
30
0
11
1148377.196
21
-970308.899
31
0
0
LINE
8
기존
10
1148348.062
20
-970368.899
30
0
11
1148377.196
21
-970368.899
31
0
0
LINE
8
기존
10
1148477.196
20
-973352.575
30
0
11
1148348.062
21
-973352.575
31
0
0
LINE
8
기존
10
1148477.196
20
-973322.575
30
0
11
1148348.062
21
-973322.575
31
0
0
LINE
8
기존
10
1149202.196
20
-972543.712
30
0
11
1148348.062
21
-972543.712
31
0
0
LINE
8
기존
10
1149202.196
20
-972573.712
30
0
11
1148348.062
21
-972573.712
31
0
0
LINE
8
기존
10
1148477.196
20
-972422.763
30
0
11
1148348.062
21
-972422.763
31
0
0
LINE
8
기존
10
1148477.196
20
-972452.763
30
0
11
1148348.062
21
-972452.763
31
0
0
LINE
8
기존
10
1149202.196
20
-971573.899
30
0
11
1148348.062
21
-971573.899
31
0
0
LINE
8
기존
10
1149202.196
20
-971543.899
30
0
11
1148348.062
21
-971543.899
31
0
0
LINE
8
기존
10
1148477.196
20
-971352.763
30
0
11
1148348.062
21
-971352.763
31
0
0
LINE
8
기존
10
1148477.196
20
-971322.763
30
0
11
1148348.062
21
-971322.763
31
0
0
LINE
8
기존
10
1148348.062
20
-973633.899
30
0
11
1149202.196
21
-973633.899
31
0
0
LINE
8
기존
10
1148348.062
20
-973658.899
30
0
11
1149227.196
21
-973658.899
31
0
0
LINE
8
기존
10
1149202.196
20
-970883.899
30
0
11
1149202.196
21
-973633.899
31
0
0
LINE
8
기존
10
1148952.196
20
-970543.899
30
0
11
1148952.196
21
-970883.899
31
0
0
LINE
8
기존
10
1148952.196
20
-970883.899
30
0
11
1149202.196
21
-970883.899
31
0
0
LINE
8
기존
10
1148348.062
20
-973858.899
30
0
11
1149227.196
21
-973858.899
31
0
0
LINE
8
기존
10
1149227.196
20
-970858.899
30
0
11
1149227.196
21
-973658.899
31
0
0
LINE
8
기존
10
1148377.196
20
-970408.899
30
0
11
1148477.196
21
-970408.899
31
0
0
LINE
8
기존
10
1148477.196
20
-970408.899
30
0
11
1148477.196
21
-970208.899
31
0
0
LINE
8
기존
10
1148977.196
20
-970408.899
30
0
11
1148877.196
21
-970408.899
31
0
0
LINE
8
기존
10
1148877.196
20
-970518.899
30
0
11
1148877.196
21
-970408.899
31
0
0
LINE
8
기존
10
1148529.847
20
-970327.219
30
0
11
1148529.847
21
-970158.899
31
0
0
LINE
8
기존
10
1148589.847
20
-970327.219
30
0
11
1148589.847
21
-970158.899
31
0
0
LINE
8
기존
10
1148649.847
20
-970327.219
30
0
11
1148649.847
21
-970158.899
31
0
0
LINE
8
기존
10
1148709.847
20
-970327.219
30
0
11
1148709.847
21
-970158.899
31
0
0
LINE
8
기존
10
1148769.847
20
-970327.219
30
0
11
1148769.847
21
-970158.899
31
0
0
LINE
8
기존
10
1148829.847
20
-970327.219
30
0
11
1148829.847
21
-970158.899
31
0
0
LINE
8
기존
10
1148348.062
20
-973883.899
30
0
11
1149202.196
21
-973883.899
31
0
0
LINE
8
기존
10
1148968.608
20
-970950.572
30
0
11
1148968.608
21
-971180.572
31
0
0
LINE
8
기존
10
1148998.608
20
-971150.572
30
0
11
1148998.608
21
-971130.572
31
0
0
LINE
8
기존
10
1148958.608
20
-971130.572
30
0
11
1148958.608
21
-971150.572
31
0
0
LINE
8
기존
10
1148998.608
20
-971130.572
30
0
11
1148958.608
21
-971130.572
31
0
0
LINE
8
기존
10
1148958.608
20
-971150.572
30
0
11
1148998.608
21
-971150.572
31
0
0
LINE
8
기존
10
1148998.608
20
-970980.572
30
0
11
1148998.608
21
-971000.572
31
0
0
LINE
8
기존
10
1148958.608
20
-971000.572
30
0
11
1148958.608
21
-970980.572
31
0
0
LINE
8
기존
10
1148958.608
20
-970980.572
30
0
11
1148998.608
21
-970980.572
31
0
0
LINE
8
기존
10
1148998.608
20
-971000.572
30
0
11
1148958.608
21
-971000.572
31
0
0
LINE
8
기존
10
1148908.608
20
-970895.572
30
0
11
1149066.729
21
-970923.475
31
0
0
LINE
8
기존
10
1149066.729
20
-970923.475
30
0
11
1149074.15
21
-970924.785
31
0
0
LINE
8
기존
10
1149074.15
20
-970924.785
30
0
11
1149113.583
21
-970931.931
31
0
0
LINE
8
기존
10
1149113.583
20
-970931.931
30
0
11
1149119.424
21
-970932.993
31
0
0
LINE
8
기존
10
1149119.424
20
-970932.993
30
0
11
1149124.44
21
-970933.905
31
0
0
LINE
8
기존
10
1149124.44
20
-970933.905
30
0
11
1149128.885
21
-970934.713
31
0
0
LINE
8
기존
10
1149128.885
20
-970934.713
30
0
11
1149133.076
21
-970935.475
31
0
0
LINE
8
기존
10
1149133.076
20
-970935.475
30
0
11
1149139.607
21
-970936.744
31
0
0
LINE
8
기존
10
1149139.607
20
-970936.744
30
0
11
1149143.892
21
-970937.675
31
0
0
LINE
8
기존
10
1149143.892
20
-970937.675
30
0
11
1149147.472
21
-970938.513
31
0
0
LINE
8
기존
10
1149147.472
20
-970938.513
30
0
11
1149150.991
21
-970939.461
31
0
0
LINE
8
기존
10
1149150.991
20
-970939.461
30
0
11
1149157.269
21
-970955.572
31
0
0
LINE
8
기존
10
1149157.269
20
-970955.572
30
0
11
1149157.598
21
-970960.029
31
0
0
LINE
8
기존
10
1149157.598
20
-970960.029
30
0
11
1149158.018
21
-970967.217
31
0
0
LINE
8
기존
10
1149158.018
20
-970967.217
30
0
11
1149158.457
21
-970978.769
31
0
0
LINE
8
기존
10
1149158.457
20
-970978.769
30
0
11
1149158.502
21
-971065.572
31
0
0
LINE
8
기존
10
1149158.502
20
-971065.572
30
0
11
1149158.457
21
-971152.375
31
0
0
LINE
8
기존
10
1149158.457
20
-971152.375
30
0
11
1149158.018
21
-971163.926
31
0
0
LINE
8
기존
10
1149158.018
20
-971163.926
30
0
11
1149157.598
21
-971171.114
31
0
0
LINE
8
기존
10
1149157.598
20
-971171.114
30
0
11
1149157.073
21
-971178.221
31
0
0
LINE
8
기존
10
1149157.073
20
-971178.221
30
0
11
1149156.498
21
-971184.705
31
0
0
LINE
8
기존
10
1149156.498
20
-971184.705
30
0
11
1149155.573
21
-971188.77
31
0
0
LINE
8
기존
10
1149155.573
20
-971188.77
30
0
11
1149153.894
21
-971190.413
31
0
0
LINE
8
기존
10
1149153.894
20
-971190.413
30
0
11
1149150.991
21
-971191.683
31
0
0
LINE
8
기존
10
1149150.991
20
-971191.683
30
0
11
1149147.472
21
-971192.63
31
0
0
LINE
8
기존
10
1149147.472
20
-971192.63
30
0
11
1149143.892
21
-971193.468
31
0
0
LINE
8
기존
10
1149143.892
20
-971193.468
30
0
11
1149139.607
21
-971194.399
31
0
0
LINE
8
기존
10
1149139.607
20
-971194.399
30
0
11
1149133.076
21
-971195.668
31
0
0
LINE
8
기존
10
1149133.076
20
-971195.668
30
0
11
1149128.885
21
-971196.43
31
0
0
LINE
8
기존
10
1149128.885
20
-971196.43
30
0
11
1149124.44
21
-971197.238
31
0
0
LINE
8
기존
10
1149124.44
20
-971197.238
30
0
11
1149119.424
21
-971198.15
31
0
0
LINE
8
기존
10
1149119.424
20
-971198.15
30
0
11
1149113.583
21
-971199.212
31
0
0
LINE
8
기존
10
1149113.583
20
-971199.212
30
0
11
1149074.15
21
-971206.358
31
0
0
LINE
8
기존
10
1149074.15
20
-971206.358
30
0
11
1148908.608
21
-971235.572
31
0
0
LINE
8
기존
10
1148968.608
20
-971944.087
30
0
11
1148968.608
21
-972174.087
31
0
0
LINE
8
기존
10
1148998.608
20
-972144.087
30
0
11
1148998.608
21
-972124.087
31
0
0
LINE
8
기존
10
1148958.608
20
-972124.087
30
0
11
1148958.608
21
-972144.087
31
0
0
LINE
8
기존
10
1148998.608
20
-972124.087
30
0
11
1148958.608
21
-972124.087
31
0
0
LINE
8
기존
10
1148958.608
20
-972144.087
30
0
11
1148998.608
21
-972144.087
31
0
0
LINE
8
기존
10
1148998.608
20
-971974.087
30
0
11
1148998.608
21
-971994.087
31
0
0
LINE
8
기존
10
1148958.608
20
-971994.087
30
0
11
1148958.608
21
-971974.087
31
0
0
LINE
8
기존
10
1148958.608
20
-971974.087
30
0
11
1148998.608
21
-971974.087
31
0
0
LINE
8
기존
10
1148998.608
20
-971994.087
30
0
11
1148958.608
21
-971994.087
31
0
0
LINE
8
기존
10
1148908.608
20
-971889.087
30
0
11
1149066.729
21
-971916.991
31
0
0
LINE
8
기존
10
1149066.729
20
-971916.991
30
0
11
1149074.15
21
-971918.3
31
0
0
LINE
8
기존
10
1149074.15
20
-971918.3
30
0
11
1149113.583
21
-971925.446
31
0
0
LINE
8
기존
10
1149113.583
20
-971925.446
30
0
11
1149119.424
21
-971926.508
31
0
0
LINE
8
기존
10
1149119.424
20
-971926.508
30
0
11
1149124.44
21
-971927.42
31
0
0
LINE
8
기존
10
1149124.44
20
-971927.42
30
0
11
1149128.885
21
-971928.228
31
0
0
LINE
8
기존
10
1149128.885
20
-971928.228
30
0
11
1149133.076
21
-971928.99
31
0
0
LINE
8
기존
10
1149133.076
20
-971928.99
30
0
11
1149139.607
21
-971930.259
31
0
0
LINE
8
기존
10
1149139.607
20
-971930.259
30
0
11
1149143.892
21
-971931.19
31
0
0
LINE
8
기존
10
1149143.892
20
-971931.19
30
0
11
1149147.472
21
-971932.028
31
0
0
LINE
8
기존
10
1149147.472
20
-971932.028
30
0
11
1149150.991
21
-971932.976
31
0
0
LINE
8
기존
10
1149150.991
20
-971932.976
30
0
11
1149157.269
21
-971949.087
31
0
0
LINE
8
기존
10
1149157.269
20
-971949.087
30
0
11
1149157.598
21
-971953.544
31
0
0
LINE
8
기존
10
1149157.598
20
-971953.544
30
0
11
1149158.018
21
-971960.732
31
0
0
LINE
8
기존
10
1149158.018
20
-971960.732
30
0
11
1149158.457
21
-971972.284
31
0
0
LINE
8
기존
10
1149158.457
20
-971972.284
30
0
11
1149158.502
21
-972059.087
31
0
0
LINE
8
기존
10
1149158.502
20
-972059.087
30
0
11
1149158.457
21
-972145.89
31
0
0
LINE
8
기존
10
1149158.457
20
-972145.89
30
0
11
1149158.018
21
-972157.442
31
0
0
LINE
8
기존
10
1149158.018
20
-972157.442
30
0
11
1149157.598
21
-972164.629
31
0
0
LINE
8
기존
10
1149157.598
20
-972164.629
30
0
11
1149157.073
21
-972171.736
31
0
0
LINE
8
기존
10
1149157.073
20
-972171.736
30
0
11
1149156.498
21
-972178.22
31
0
0
LINE
8
기존
10
1149156.498
20
-972178.22
30
0
11
1149155.573
21
-972182.285
31
0
0
LINE
8
기존
10
1149155.573
20
-972182.285
30
0
11
1149153.894
21
-972183.928
31
0
0
LINE
8
기존
10
1149153.894
20
-972183.928
30
0
11
1149150.991
21
-972185.198
31
0
0
LINE
8
기존
10
1149150.991
20
-972185.198
30
0
11
1149147.472
21
-972186.146
31
0
0
LINE
8
기존
10
1149147.472
20
-972186.146
30
0
11
1149143.892
21
-972186.984
31
0
0
LINE
8
기존
10
1149143.892
20
-972186.984
30
0
11
1149139.607
21
-972187.914
31
0
0
LINE
8
기존
10
1149139.607
20
-972187.914
30
0
11
1149133.076
21
-972189.184
31
0
0
LINE
8
기존
10
1149133.076
20
-972189.184
30
0
11
1149128.885
21
-972189.945
31
0
0
LINE
8
기존
10
1149128.885
20
-972189.945
30
0
11
1149124.44
21
-972190.754
31
0
0
LINE
8
기존
10
1149124.44
20
-972190.754
30
0
11
1149119.424
21
-972191.666
31
0
0
LINE
8
기존
10
1149119.424
20
-972191.666
30
0
11
1149113.583
21
-972192.728
31
0
0
LINE
8
기존
10
1149113.583
20
-972192.728
30
0
11
1149074.15
21
-972199.874
31
0
0
LINE
8
기존
10
1149074.15
20
-972199.874
30
0
11
1148908.608
21
-972229.087
31
0
0
LINE
8
기존
10
1151977.196
20
-970208.899
30
0
11
1151977.196
21
-970158.899
31
0
0
LINE
8
기존
10
1152077.196
20
-970358.899
30
0
11
1152077.196
21
-970308.899
31
0
0
LINE
8
기존
10
1152077.196
20
-970408.899
30
0
11
1152077.196
21
-970358.899
31
0
0
LINE
8
기존
10
1151977.196
20
-970508.899
30
0
11
1151977.196
21
-970408.899
31
0
0
LINE
8
기존
10
1151977.196
20
-970375.79
30
0
11
1151977.196
21
-970319.29
31
0
0
LINE
8
기존
10
1151977.196
20
-970408.899
30
0
11
1152077.196
21
-970408.899
31
0
0
LINE
8
기존
10
1151977.196
20
-970408.899
30
0
11
1151977.196
21
-970208.899
31
0
0
LINE
8
기존
10
1150377.196
20
-970408.899
30
0
11
1150477.196
21
-970408.899
31
0
0
LINE
8
기존
10
1150477.196
20
-970208.899
30
0
11
1150477.196
21
-970158.899
31
0
0
LINE
8
기존
10
1150477.196
20
-970508.899
30
0
11
1150477.196
21
-970408.899
31
0
0
LINE
8
기존
10
1150377.196
20
-970408.899
30
0
11
1150377.196
21
-970358.899
31
0
0
LINE
8
기존
10
1150377.196
20
-970358.899
30
0
11
1150377.196
21
-970308.899
31
0
0
LINE
8
기존
10
1150477.196
20
-970405.79
30
0
11
1150477.196
21
-970349.29
31
0
0
LINE
8
기존
10
1150477.196
20
-970385.79
30
0
11
1150481.196
21
-970385.79
31
0
0
LINE
8
기존
10
1150477.196
20
-970375.79
30
0
11
1150481.196
21
-970375.79
31
0
0
LINE
8
기존
10
1150481.196
20
-970385.79
30
0
11
1150481.196
21
-970375.79
31
0
0
LINE
8
기존
10
1150481.196
20
-970495.79
30
0
11
1150481.196
21
-970485.79
31
0
0
LINE
8
기존
10
1150477.196
20
-970495.79
30
0
11
1150481.196
21
-970495.79
31
0
0
LINE
8
기존
10
1150477.196
20
-970485.79
30
0
11
1150481.196
21
-970485.79
31
0
0
LINE
8
기존
10
1150477.196
20
-970544.29
30
0
11
1150477.196
21
-970495.79
31
0
0
LINE
8
기존
10
1150477.196
20
-970375.79
30
0
11
1150477.196
21
-970319.29
31
0
0
LINE
8
기존
10
1150477.196
20
-970408.899
30
0
11
1150477.196
21
-970208.899
31
0
0
LINE
8
WAL
10
1154452.196
20
-970408.899
30
0
11
1154452.196
21
-970208.899
31
0
0
LINE
8
기존
10
1152952.196
20
-970408.899
30
0
11
1152952.196
21
-970208.899
31
0
0
LINE
8
WAL
10
1154452.196
20
-970208.899
30
0
11
1155802.196
21
-970208.899
31
0
0
LINE
8
기존
10
1156702.196
20
-970208.899
30
0
11
1156892.196
21
-970208.899
31
0
0
LINE
8
FIN
10
1154452.196
20
-970533.899
30
0
11
1154977.196
21
-970533.899
31
0
0
LINE
8
기존
10
1156702.196
20
-970533.899
30
0
11
1157027.196
21
-970533.899
31
0
0
LINE
8
WAL
10
1154452.196
20
-970508.899
30
0
11
1155002.196
21
-970508.899
31
0
0
LINE
8
WAL
10
1155202.196
20
-970508.899
30
0
11
1155802.196
21
-970508.899
31
0
0
LINE
8
기존
10
1156702.196
20
-970508.899
30
0
11
1157052.196
21
-970508.899
31
0
0
LINE
8
기존
10
1152952.196
20
-970358.899
30
0
11
1152077.196
21
-970358.899
31
0
0
LINE
8
기존
10
1152952.196
20
-970308.899
30
0
11
1152077.196
21
-970308.899
31
0
0
LINE
8
WAL
10
1154452.196
20
-970508.899
30
0
11
1154452.196
21
-970408.899
31
0
0
LINE
8
WAL
10
1154552.196
20
-970358.899
30
0
11
1154552.196
21
-970308.899
31
0
0
LINE
8
기존
10
1152952.196
20
-970508.899
30
0
11
1152952.196
21
-970408.899
31
0
0
LINE
8
기존
10
1151977.196
20
-970533.899
30
0
11
1152952.196
21
-970533.899
31
0
0
LINE
8
기존
10
1151977.196
20
-970508.899
30
0
11
1152952.196
21
-970508.899
31
0
0
LINE
8
기존
10
1151977.196
20
-970208.899
30
0
11
1152952.196
21
-970208.899
31
0
0
LINE
8
기존
10
1150477.196
20
-970533.899
30
0
11
1149452.196
21
-970533.899
31
0
0
LINE
8
기존
10
1150477.196
20
-970508.899
30
0
11
1149427.196
21
-970508.899
31
0
0
LINE
8
기존
10
1150377.196
20
-970358.899
30
0
11
1149427.196
21
-970358.899
31
0
0
LINE
8
기존
10
1150377.196
20
-970308.899
30
0
11
1148977.196
21
-970308.899
31
0
0
LINE
8
기존
10
1150477.196
20
-970158.899
30
0
11
1151977.196
21
-970158.899
31
0
0
LINE
8
기존
10
1148877.196
20
-970208.899
30
0
11
1150477.196
21
-970208.899
31
0
0
LINE
8
기존
10
1157052.196
20
-970358.899
30
0
11
1156702.196
21
-970358.899
31
0
0
LINE
8
WAL
10
1155802.196
20
-970358.899
30
0
11
1154452.196
21
-970358.899
31
0
0
LINE
8
기존
10
1156992.196
20
-970308.899
30
0
11
1156702.196
21
-970308.899
31
0
0
LINE
8
WAL
10
1155702.196
20
-970308.899
30
0
11
1154552.196
21
-970308.899
31
0
0
LINE
8
WIN
10
1151199.696
20
-970520.79
30
0
11
1150531.196
21
-970520.79
31
0
0
LINE
8
WIN
10
1151255.196
20
-970351.29
30
0
11
1151924.196
21
-970351.29
31
0
0
LINE
8
WIN
10
1151255.196
20
-970361.29
30
0
11
1151924.196
21
-970361.29
31
0
0
LINE
8
WIN
10
1151254.696
20
-970460.79
30
0
11
1151924.196
21
-970460.79
31
0
0
LINE
8
WIN
10
1151254.696
20
-970470.79
30
0
11
1151924.196
21
-970470.79
31
0
0
LINE
8
WIN
10
1151876.696
20
-970388.23
30
0
11
1151255.196
21
-970388.23
31
0
0
LINE
8
WIN
10
1151255.196
20
-970424.23
30
0
11
1151876.696
21
-970424.23
31
0
0
LINE
8
WIN
10
1151877.196
20
-970497.79
30
0
11
1151254.696
21
-970497.79
31
0
0
LINE
8
WIN
10
1151254.696
20
-970533.79
30
0
11
1151877.196
21
-970533.79
31
0
0
LINE
8
WIN
10
1151891.696
20
-970403.23
30
0
11
1151255.196
21
-970403.23
31
0
0
LINE
8
WIN
10
1151255.196
20
-970408.23
30
0
11
1151891.696
21
-970408.23
31
0
0
LINE
8
WIN
10
1151254.696
20
-970512.79
30
0
11
1151892.196
21
-970512.79
31
0
0
LINE
8
WIN
10
1151892.196
20
-970517.79
30
0
11
1151254.696
21
-970517.79
31
0
0
LINE
8
WIN
10
1150578.196
20
-970338.29
30
0
11
1151200.196
21
-970338.29
31
0
0
LINE
8
WIN
10
1151200.196
20
-970374.29
30
0
11
1150578.196
21
-970374.29
31
0
0
LINE
8
WIN
10
1151200.196
20
-970353.29
30
0
11
1150563.196
21
-970353.29
31
0
0
LINE
8
WIN
10
1150563.196
20
-970358.29
30
0
11
1151200.196
21
-970358.29
31
0
0
LINE
8
WIN
10
1151255.196
20
-970379.29
30
0
11
1151255.196
21
-970338.29
31
0
0
LINE
8
WIN
10
1151200.196
20
-970358.29
30
0
11
1151215.196
21
-970358.29
31
0
0
LINE
8
WIN
10
1151215.196
20
-970358.29
30
0
11
1151215.196
21
-970353.29
31
0
0
LINE
8
WIN
10
1151215.196
20
-970353.29
30
0
11
1151200.196
21
-970353.29
31
0
0
LINE
8
WIN
10
1151255.196
20
-970379.29
30
0
11
1151200.196
21
-970374.29
31
0
0
LINE
8
WIN
10
1151200.196
20
-970374.29
30
0
11
1151200.196
21
-970358.29
31
0
0
LINE
8
WIN
10
1151200.196
20
-970353.29
30
0
11
1151200.196
21
-970338.29
31
0
0
LINE
8
WIN
10
1151200.196
20
-970338.29
30
0
11
1151255.196
21
-970338.29
31
0
0
LINE
8
WIN
10
1150578.196
20
-970447.79
30
0
11
1151199.696
21
-970447.79
31
0
0
LINE
8
WIN
10
1151199.696
20
-970483.79
30
0
11
1150578.196
21
-970483.79
31
0
0
LINE
8
WIN
10
1151199.696
20
-970462.79
30
0
11
1150563.196
21
-970462.79
31
0
0
LINE
8
WIN
10
1150563.196
20
-970467.79
30
0
11
1151199.696
21
-970467.79
31
0
0
LINE
8
WIN
10
1151254.696
20
-970488.79
30
0
11
1151254.696
21
-970447.79
31
0
0
LINE
8
WIN
10
1151199.696
20
-970467.79
30
0
11
1151214.696
21
-970467.79
31
0
0
LINE
8
WIN
10
1151214.696
20
-970467.79
30
0
11
1151214.696
21
-970462.79
31
0
0
LINE
8
WIN
10
1151214.696
20
-970462.79
30
0
11
1151199.696
21
-970462.79
31
0
0
LINE
8
WIN
10
1151254.696
20
-970488.79
30
0
11
1151199.696
21
-970483.79
31
0
0
LINE
8
WIN
10
1151199.696
20
-970483.79
30
0
11
1151199.696
21
-970467.79
31
0
0
LINE
8
WIN
10
1151199.696
20
-970462.79
30
0
11
1151199.696
21
-970447.79
31
0
0
LINE
8
WIN
10
1151199.696
20
-970447.79
30
0
11
1151254.696
21
-970447.79
31
0
0
LINE
8
WIN
10
1151199.696
20
-970533.79
30
0
11
1151199.696
21
-970492.79
31
0
0
LINE
8
WIN
10
1151254.696
20
-970517.79
30
0
11
1151239.696
21
-970517.79
31
0
0
LINE
8
WIN
10
1151239.696
20
-970517.79
30
0
11
1151239.696
21
-970512.79
31
0
0
LINE
8
WIN
10
1151239.696
20
-970512.79
30
0
11
1151254.696
21
-970512.79
31
0
0
LINE
8
WIN
10
1151199.696
20
-970533.79
30
0
11
1151254.696
21
-970533.79
31
0
0
LINE
8
WIN
10
1151254.696
20
-970533.79
30
0
11
1151254.696
21
-970517.79
31
0
0
LINE
8
WIN
10
1151254.696
20
-970512.79
30
0
11
1151254.696
21
-970497.79
31
0
0
LINE
8
WIN
10
1151254.696
20
-970497.79
30
0
11
1151199.696
21
-970492.79
31
0
0
LINE
8
WIN
10
1151200.196
20
-970424.23
30
0
11
1151200.196
21
-970383.23
31
0
0
LINE
8
WIN
10
1151255.196
20
-970408.23
30
0
11
1151240.196
21
-970408.23
31
0
0
LINE
8
WIN
10
1151240.196
20
-970408.23
30
0
11
1151240.196
21
-970403.23
31
0
0
LINE
8
WIN
10
1151240.196
20
-970403.23
30
0
11
1151255.196
21
-970403.23
31
0
0
LINE
8
WIN
10
1151200.196
20
-970424.23
30
0
11
1151255.196
21
-970424.23
31
0
0
LINE
8
WIN
10
1151255.196
20
-970424.23
30
0
11
1151255.196
21
-970408.23
31
0
0
LINE
8
WIN
10
1151255.196
20
-970403.23
30
0
11
1151255.196
21
-970388.23
31
0
0
LINE
8
WIN
10
1151255.196
20
-970388.23
30
0
11
1151200.196
21
-970383.23
31
0
0
LINE
8
WIN
10
1150530.196
20
-970544.29
30
0
11
1151924.196
21
-970544.29
31
0
0
LINE
8
WIN
10
1150529.196
20
-970319.29
30
0
11
1151924.196
21
-970319.29
31
0
0
LINE
8
WIN
10
1151227.196
20
-970594.29
30
0
11
1151227.196
21
-970269.29
31
0
0
LINE
8
WIN
10
1148517.196
20
-970368.899
30
0
11
1148837.196
21
-970368.899
31
0
0
LINE
8
WIN
10
1148877.196
20
-970383.899
30
0
11
1148877.196
21
-970328.899
31
0
0
LINE
8
WIN
10
1148877.196
20
-970328.899
30
0
11
1148837.196
21
-970328.899
31
0
0
LINE
8
WIN
10
1148837.196
20
-970328.899
30
0
11
1148837.196
21
-970408.899
31
0
0
LINE
8
WIN
10
1148837.196
20
-970408.899
30
0
11
1148877.196
21
-970408.899
31
0
0
LINE
8
WIN
10
1148877.196
20
-970408.899
30
0
11
1148877.196
21
-970383.899
31
0
0
LINE
8
WIN
10
1148517.196
20
-970408.899
30
0
11
1148837.196
21
-970408.899
31
0
0
LINE
8
WIN
10
1148517.196
20
-970328.899
30
0
11
1148837.196
21
-970328.899
31
0
0
LINE
8
WIN
10
1148477.196
20
-970383.899
30
0
11
1148477.196
21
-970328.899
31
0
0
LINE
8
WIN
10
1148477.196
20
-970328.899
30
0
11
1148517.196
21
-970328.899
31
0
0
LINE
8
WIN
10
1148517.196
20
-970328.899
30
0
11
1148517.196
21
-970408.899
31
0
0
LINE
8
WIN
10
1148517.196
20
-970408.899
30
0
11
1148477.196
21
-970408.899
31
0
0
LINE
8
WIN
10
1148477.196
20
-970408.899
30
0
11
1148477.196
21
-970383.899
31
0
0
LINE
8
기존
10
1157052.196
20
-970883.899
30
0
11
1157027.196
21
-970883.899
31
0
0
LINE
8
FIN
10
1157277.196
20
-974458.899
30
0
11
1157277.196
21
-973428.899
31
0
0
LINE
8
FIN
10
1157277.196
20
-972788.899
30
0
11
1157277.196
21
-971758.899
31
0
0
LINE
8
WAL
10
1157052.196
20
-973558.899
30
0
11
1157052.196
21
-973408.899
31
0
0
LINE
8
WAL
10
1157052.196
20
-972808.899
30
0
11
1157052.196
21
-972658.899
31
0
0
LINE
8
WAL
10
1157252.196
20
-971758.899
30
0
11
1157252.196
21
-972808.899
31
0
0
LINE
8
WAL
10
1157252.196
20
-973408.899
30
0
11
1157252.196
21
-974458.899
31
0
0
LINE
8
FIN
10
1157027.196
20
-973558.899
30
0
11
1157027.196
21
-973383.899
31
0
0
LINE
8
04창호
10
1157128.196
20
-973624.899
30
0
11
1157128.196
21
-974462.899
31
0
0
LINE
8
04창호
10
1157083.446
20
-974457.649
30
0
11
1157052.196
21
-974457.649
31
0
0
LINE
8
04창호
10
1157083.446
20
-974488.899
30
0
11
1157083.446
21
-974457.649
31
0
0
LINE
8
04창호
10
1157052.196
20
-974488.899
30
0
11
1157083.446
21
-974488.899
31
0
0
LINE
8
04창호
10
1157152.196
20
-973599.899
30
0
11
1157128.196
21
-973599.899
31
0
0
LINE
8
04창호
10
1157152.196
20
-973624.899
30
0
11
1157152.196
21
-973599.899
31
0
0
LINE
8
04창호
10
1157150.696
20
-973624.899
30
0
11
1157152.196
21
-973624.899
31
0
0
LINE
8
04창호
10
1157129.696
20
-973624.899
30
0
11
1157128.196
21
-973624.899
31
0
0
LINE
8
04창호
10
1157129.696
20
-973601.399
30
0
11
1157129.696
21
-973624.899
31
0
0
LINE
8
04창호
10
1157128.196
20
-973599.899
30
0
11
1157128.196
21
-973624.899
31
0
0
LINE
8
04창호
10
1157129.696
20
-973601.399
30
0
11
1157150.696
21
-973601.399
31
0
0
LINE
8
04창호
10
1157150.696
20
-973624.899
30
0
11
1157150.696
21
-973601.399
31
0
0
LINE
8
04창호
10
1157152.196
20
-974487.899
30
0
11
1157128.196
21
-974487.899
31
0
0
LINE
8
04창호
10
1157152.196
20
-974462.899
30
0
11
1157152.196
21
-974487.899
31
0
0
LINE
8
04창호
10
1157150.696
20
-974462.899
30
0
11
1157152.196
21
-974462.899
31
0
0
LINE
8
04창호
10
1157129.696
20
-974462.899
30
0
11
1157128.196
21
-974462.899
31
0
0
LINE
8
04창호
10
1157129.696
20
-974486.399
30
0
11
1157129.696
21
-974462.899
31
0
0
LINE
8
04창호
10
1157128.196
20
-974487.899
30
0
11
1157128.196
21
-974462.899
31
0
0
LINE
8
04창호
10
1157129.696
20
-974486.399
30
0
11
1157150.696
21
-974486.399
31
0
0
LINE
8
04창호
10
1157128.196
20
-973599.899
30
0
11
1157128.196
21
-973598.899
31
0
0
LINE
8
04창호
10
1157128.196
20
-974488.899
30
0
11
1157128.196
21
-974487.899
31
0
0
LINE
8
04창호
10
1157152.196
20
-973598.899
30
0
11
1157128.196
21
-973598.899
31
0
0
LINE
8
04창호
10
1157152.196
20
-974487.899
30
0
11
1157128.196
21
-974487.899
31
0
0
LINE
8
04창호
10
1157153.196
20
-974488.899
30
0
11
1157128.196
21
-974488.899
31
0
0
LINE
8
04창호
10
1157150.696
20
-974462.899
30
0
11
1157150.696
21
-974486.399
31
0
0
LINE
8
04창호
10
1157152.196
20
-973599.899
30
0
11
1157152.196
21
-974487.899
31
0
0
LINE
8
04창호
10
1157153.196
20
-973598.899
30
0
11
1157153.196
21
-974488.899
31
0
0
LINE
8
04창호
10
1157151.596
20
-973597.299
30
0
11
1157151.596
21
-973560.499
31
0
0
LINE
8
04창호
10
1157153.196
20
-973598.899
30
0
11
1157153.196
21
-973558.899
31
0
0
LINE
8
04창호
10
1157123.796
20
-973597.299
30
0
11
1157151.596
21
-973597.299
31
0
0
LINE
8
04창호
10
1157128.196
20
-973599.899
30
0
11
1157152.196
21
-973599.899
31
0
0
LINE
8
04창호
10
1157122.196
20
-973598.899
30
0
11
1157153.196
21
-973598.899
31
0
0
LINE
8
04창호
10
1157053.796
20
-973597.299
30
0
11
1157053.796
21
-973560.499
31
0
0
LINE
8
04창호
10
1157081.596
20
-973597.299
30
0
11
1157053.796
21
-973597.299
31
0
0
LINE
8
04창호
10
1157081.596
20
-973585.299
30
0
11
1157081.596
21
-973597.299
31
0
0
LINE
8
04창호
10
1157123.796
20
-973585.299
30
0
11
1157081.596
21
-973585.299
31
0
0
LINE
8
04창호
10
1157123.796
20
-973597.299
30
0
11
1157123.796
21
-973585.299
31
0
0
LINE
8
04창호
10
1157122.196
20
-973586.899
30
0
11
1157122.196
21
-973598.899
31
0
0
LINE
8
04창호
10
1157083.196
20
-973586.899
30
0
11
1157122.196
21
-973586.899
31
0
0
LINE
8
04창호
10
1157083.196
20
-973598.899
30
0
11
1157083.196
21
-973586.899
31
0
0
LINE
8
04창호
10
1157052.196
20
-973598.899
30
0
11
1157083.196
21
-973598.899
31
0
0
LINE
8
04창호
10
1157052.196
20
-973558.899
30
0
11
1157052.196
21
-973598.899
31
0
0
LINE
8
04창호
10
1157087.927
20
-974366.999
30
0
11
1157087.927
21
-974365.699
31
0
0
LINE
8
04창호
10
1157085.927
20
-974368.899
30
0
11
1157085.927
21
-974365.699
31
0
0
LINE
8
04창호
10
1157117.527
20
-974365.699
30
0
11
1157117.527
21
-974366.999
31
0
0
LINE
8
04창호
10
1157119.527
20
-974365.699
30
0
11
1157119.527
21
-974368.899
31
0
0
LINE
8
04창호
10
1157103.727
20
-974366.999
30
0
11
1157103.727
21
-974350.933
31
0
0
LINE
8
04창호
10
1157103.727
20
-974370.299
30
0
11
1157103.727
21
-974368.899
31
0
0
LINE
8
04창호
10
1157101.727
20
-974366.999
30
0
11
1157101.727
21
-974350.933
31
0
0
LINE
8
04창호
10
1157101.727
20
-974370.299
30
0
11
1157101.727
21
-974368.899
31
0
0
LINE
8
04창호
10
1157119.027
20
-974369.699
30
0
11
1157119.027
21
-974370.199
31
0
0
LINE
8
04창호
10
1157110.227
20
-974369.199
30
0
11
1157110.227
21
-974369.999
31
0
0
LINE
8
04창호
10
1157103.727
20
-974368.899
30
0
11
1157119.527
21
-974368.899
31
0
0
LINE
8
04창호
10
1157110.427
20
-974368.999
30
0
11
1157119.527
21
-974368.999
31
0
0
LINE
8
04창호
10
1157103.727
20
-974370.299
30
0
11
1157116.227
21
-974370.299
31
0
0
LINE
8
04창호
10
1157089.227
20
-974372.199
30
0
11
1157116.227
21
-974372.199
31
0
0
LINE
8
04창호
10
1157110.427
20
-974370.199
30
0
11
1157119.027
21
-974370.199
31
0
0
LINE
8
04창호
10
1157110.827
20
-974369.499
30
0
11
1157119.127
21
-974369.499
31
0
0
LINE
8
04창호
10
1157110.827
20
-974369.699
30
0
11
1157119.027
21
-974369.699
31
0
0
LINE
8
04창호
10
1157094.627
20
-974369.499
30
0
11
1157086.327
21
-974369.499
31
0
0
LINE
8
04창호
10
1157101.727
20
-974370.299
30
0
11
1157089.227
21
-974370.299
31
0
0
LINE
8
04창호
10
1157095.027
20
-974370.199
30
0
11
1157086.427
21
-974370.199
31
0
0
LINE
8
04창호
10
1157094.627
20
-974369.699
30
0
11
1157086.427
21
-974369.699
31
0
0
LINE
8
04창호
10
1157086.427
20
-974369.699
30
0
11
1157086.427
21
-974370.199
31
0
0
LINE
8
04창호
10
1157095.227
20
-974369.199
30
0
11
1157095.227
21
-974369.999
31
0
0
LINE
8
04창호
10
1157101.727
20
-974368.899
30
0
11
1157085.927
21
-974368.899
31
0
0
LINE
8
04창호
10
1157101.727
20
-974366.999
30
0
11
1157087.927
21
-974366.999
31
0
0
LINE
8
04창호
10
1157117.527
20
-974366.999
30
0
11
1157103.727
21
-974366.999
31
0
0
LINE
8
04창호
10
1157095.027
20
-974368.999
30
0
11
1157085.927
21
-974368.999
31
0
0
LINE
8
04창호
10
1157116.227
20
-974370.299
30
0
11
1157116.227
21
-974372.199
31
0
0
LINE
8
04창호
10
1157089.227
20
-974370.299
30
0
11
1157089.227
21
-974372.199
31
0
0
LINE
8
04창호
10
1157119.027
20
-974369.699
30
0
11
1157119.027
21
-974370.199
31
0
0
LINE
8
04창호
10
1157110.227
20
-974369.199
30
0
11
1157110.227
21
-974369.999
31
0
0
LINE
8
04창호
10
1157095.227
20
-974369.199
30
0
11
1157095.227
21
-974369.999
31
0
0
LINE
8
04창호
10
1157110.427
20
-974370.199
30
0
11
1157119.027
21
-974370.199
31
0
0
LINE
8
04창호
10
1157110.827
20
-974369.499
30
0
11
1157119.127
21
-974369.499
31
0
0
LINE
8
04창호
10
1157110.427
20
-974368.999
30
0
11
1157119.527
21
-974368.999
31
0
0
LINE
8
04창호
10
1157110.827
20
-974369.699
30
0
11
1157119.027
21
-974369.699
31
0
0
LINE
8
04창호
10
1157086.427
20
-974369.699
30
0
11
1157086.427
21
-974370.199
31
0
0
LINE
8
04창호
10
1157095.027
20
-974370.199
30
0
11
1157086.427
21
-974370.199
31
0
0
LINE
8
04창호
10
1157095.027
20
-974368.999
30
0
11
1157085.927
21
-974368.999
31
0
0
LINE
8
04창호
10
1157094.627
20
-974369.499
30
0
11
1157086.327
21
-974369.499
31
0
0
LINE
8
04창호
10
1157094.627
20
-974369.699
30
0
11
1157086.427
21
-974369.699
31
0
0
LINE
8
04창호
10
1157052.196
20
-973558.899
30
0
11
1157153.196
21
-973558.899
31
0
0
LINE
8
04창호
10
1157151.596
20
-973560.499
30
0
11
1157053.796
21
-973560.499
31
0
0
LINE
8
04창호
10
1157119.027
20
-974369.699
30
0
11
1157119.027
21
-974370.199
31
0
0
LINE
8
04창호
10
1157110.227
20
-974369.199
30
0
11
1157110.227
21
-974369.999
31
0
0
LINE
8
04창호
10
1157095.227
20
-974369.199
30
0
11
1157095.227
21
-974369.999
31
0
0
LINE
8
04창호
10
1157110.427
20
-974368.999
30
0
11
1157119.527
21
-974368.999
31
0
0
LINE
8
04창호
10
1157110.427
20
-974370.199
30
0
11
1157119.027
21
-974370.199
31
0
0
LINE
8
04창호
10
1157110.827
20
-974369.699
30
0
11
1157119.027
21
-974369.699
31
0
0
LINE
8
04창호
10
1157110.827
20
-974369.499
30
0
11
1157119.127
21
-974369.499
31
0
0
LINE
8
04창호
10
1157086.427
20
-974369.699
30
0
11
1157086.427
21
-974370.199
31
0
0
LINE
8
04창호
10
1157094.627
20
-974369.499
30
0
11
1157086.327
21
-974369.499
31
0
0
LINE
8
04창호
10
1157094.627
20
-974369.699
30
0
11
1157086.427
21
-974369.699
31
0
0
LINE
8
04창호
10
1157095.027
20
-974370.199
30
0
11
1157086.427
21
-974370.199
31
0
0
LINE
8
04창호
10
1157095.027
20
-974368.999
30
0
11
1157085.927
21
-974368.999
31
0
0
LINE
8
04창호
10
1157086.627
20
-974374.799
30
0
11
1157118.827
21
-974374.799
31
0
0
LINE
8
04창호
10
1157087.727
20
-974375.999
30
0
11
1157117.727
21
-974375.999
31
0
0
LINE
8
04창호
10
1157117.827
20
-974399.799
30
0
11
1157119.027
21
-974399.799
31
0
0
LINE
8
04창호
10
1157086.427
20
-974399.799
30
0
11
1157087.627
21
-974399.799
31
0
0
LINE
8
04창호
10
1157119.027
20
-974374.999
30
0
11
1157119.027
21
-974399.799
31
0
0
LINE
8
04창호
10
1157117.827
20
-974376.099
30
0
11
1157117.827
21
-974399.799
31
0
0
LINE
8
04창호
10
1157087.627
20
-974376.099
30
0
11
1157087.627
21
-974399.799
31
0
0
LINE
8
04창호
10
1157086.427
20
-974374.999
30
0
11
1157086.427
21
-974399.799
31
0
0
LINE
8
04창호
10
1157052.196
20
-974488.899
30
0
11
1157052.196
21
-973558.899
31
0
0
LINE
8
04창호
10
1157129.727
20
-970971.399
30
0
11
1157187.227
21
-970971.399
31
0
0
LINE
8
04창호
10
1157129.727
20
-970946.399
30
0
11
1157187.227
21
-970946.399
31
0
0
LINE
8
04창호
10
1157075.727
20
-970971.399
30
0
11
1157018.227
21
-970971.399
31
0
0
LINE
8
04창호
10
1157075.727
20
-970946.399
30
0
11
1157018.227
21
-970946.399
31
0
0
LINE
8
04창호
10
1157129.727
20
-970988.899
30
0
11
1157119.727
21
-970988.899
31
0
0
LINE
8
04창호
10
1157129.727
20
-970928.899
30
0
11
1157129.727
21
-970988.899
31
0
0
LINE
8
04창호
10
1157119.727
20
-970928.899
30
0
11
1157129.727
21
-970928.899
31
0
0
LINE
8
04창호
10
1157075.727
20
-970988.899
30
0
11
1157085.727
21
-970988.899
31
0
0
LINE
8
04창호
10
1157075.727
20
-970928.899
30
0
11
1157075.727
21
-970988.899
31
0
0
LINE
8
04창호
10
1157085.727
20
-970928.899
30
0
11
1157075.727
21
-970928.899
31
0
0
LINE
8
04창호
10
1157128.196
20
-972592.899
30
0
11
1157128.196
21
-971754.899
31
0
0
LINE
8
04창호
10
1157083.446
20
-971760.149
30
0
11
1157052.196
21
-971760.149
31
0
0
LINE
8
04창호
10
1157083.446
20
-971728.899
30
0
11
1157083.446
21
-971760.149
31
0
0
LINE
8
04창호
10
1157052.196
20
-971728.899
30
0
11
1157083.446
21
-971728.899
31
0
0
LINE
8
04창호
10
1157152.196
20
-972617.899
30
0
11
1157128.196
21
-972617.899
31
0
0
LINE
8
04창호
10
1157152.196
20
-972592.899
30
0
11
1157152.196
21
-972617.899
31
0
0
LINE
8
04창호
10
1157150.696
20
-972592.899
30
0
11
1157152.196
21
-972592.899
31
0
0
LINE
8
04창호
10
1157129.696
20
-972592.899
30
0
11
1157128.196
21
-972592.899
31
0
0
LINE
8
04창호
10
1157129.696
20
-972616.399
30
0
11
1157129.696
21
-972592.899
31
0
0
LINE
8
04창호
10
1157128.196
20
-972617.899
30
0
11
1157128.196
21
-972592.899
31
0
0
LINE
8
04창호
10
1157129.696
20
-972616.399
30
0
11
1157150.696
21
-972616.399
31
0
0
LINE
8
04창호
10
1157150.696
20
-972592.899
30
0
11
1157150.696
21
-972616.399
31
0
0
LINE
8
04창호
10
1157152.196
20
-971729.899
30
0
11
1157128.196
21
-971729.899
31
0
0
LINE
8
04창호
10
1157152.196
20
-971754.899
30
0
11
1157152.196
21
-971729.899
31
0
0
LINE
8
04창호
10
1157150.696
20
-971754.899
30
0
11
1157152.196
21
-971754.899
31
0
0
LINE
8
04창호
10
1157129.696
20
-971754.899
30
0
11
1157128.196
21
-971754.899
31
0
0
LINE
8
04창호
10
1157129.696
20
-971731.399
30
0
11
1157129.696
21
-971754.899
31
0
0
LINE
8
04창호
10
1157128.196
20
-971729.899
30
0
11
1157128.196
21
-971754.899
31
0
0
LINE
8
04창호
10
1157129.696
20
-971731.399
30
0
11
1157150.696
21
-971731.399
31
0
0
LINE
8
04창호
10
1157128.196
20
-972617.899
30
0
11
1157128.196
21
-972618.899
31
0
0
LINE
8
04창호
10
1157128.196
20
-971728.899
30
0
11
1157128.196
21
-971729.899
31
0
0
LINE
8
04창호
10
1157152.196
20
-972618.899
30
0
11
1157128.196
21
-972618.899
31
0
0
LINE
8
04창호
10
1157152.196
20
-971729.899
30
0
11
1157128.196
21
-971729.899
31
0
0
LINE
8
04창호
10
1157153.196
20
-971728.899
30
0
11
1157128.196
21
-971728.899
31
0
0
LINE
8
04창호
10
1157150.696
20
-971754.899
30
0
11
1157150.696
21
-971731.399
31
0
0
LINE
8
04창호
10
1157152.196
20
-972617.899
30
0
11
1157152.196
21
-971729.899
31
0
0
LINE
8
04창호
10
1157153.196
20
-972618.899
30
0
11
1157153.196
21
-971728.899
31
0
0
LINE
8
04창호
10
1157151.596
20
-972620.499
30
0
11
1157151.596
21
-972657.299
31
0
0
LINE
8
04창호
10
1157153.196
20
-972618.899
30
0
11
1157153.196
21
-972658.899
31
0
0
LINE
8
04창호
10
1157123.796
20
-972620.499
30
0
11
1157151.596
21
-972620.499
31
0
0
LINE
8
04창호
10
1157128.196
20
-972617.899
30
0
11
1157152.196
21
-972617.899
31
0
0
LINE
8
04창호
10
1157122.196
20
-972618.899
30
0
11
1157153.196
21
-972618.899
31
0
0
LINE
8
04창호
10
1157053.796
20
-972620.499
30
0
11
1157053.796
21
-972657.299
31
0
0
LINE
8
04창호
10
1157081.596
20
-972620.499
30
0
11
1157053.796
21
-972620.499
31
0
0
LINE
8
04창호
10
1157081.596
20
-972632.499
30
0
11
1157081.596
21
-972620.499
31
0
0
LINE
8
04창호
10
1157123.796
20
-972632.499
30
0
11
1157081.596
21
-972632.499
31
0
0
LINE
8
04창호
10
1157123.796
20
-972620.499
30
0
11
1157123.796
21
-972632.499
31
0
0
LINE
8
04창호
10
1157122.196
20
-972630.899
30
0
11
1157122.196
21
-972618.899
31
0
0
LINE
8
04창호
10
1157083.196
20
-972630.899
30
0
11
1157122.196
21
-972630.899
31
0
0
LINE
8
04창호
10
1157083.196
20
-972618.899
30
0
11
1157083.196
21
-972630.899
31
0
0
LINE
8
04창호
10
1157052.196
20
-972618.899
30
0
11
1157083.196
21
-972618.899
31
0
0
LINE
8
04창호
10
1157052.196
20
-972658.899
30
0
11
1157052.196
21
-972618.899
31
0
0
LINE
8
04창호
10
1157151.596
20
-970897.299
30
0
11
1157151.596
21
-970860.499
31
0
0
LINE
8
04창호
10
1157153.196
20
-970898.899
30
0
11
1157153.196
21
-970858.899
31
0
0
LINE
8
04창호
10
1157123.796
20
-970897.299
30
0
11
1157151.596
21
-970897.299
31
0
0
LINE
8
04창호
10
1157122.196
20
-970898.899
30
0
11
1157153.196
21
-970898.899
31
0
0
LINE
8
04창호
10
1157119.827
20
-971353.899
30
0
11
1157119.827
21
-971345.899
31
0
0
LINE
8
04창호
10
1157119.827
20
-971358.899
30
0
11
1157119.827
21
-971354.799
31
0
0
LINE
8
04창호
10
1157106.727
20
-971345.899
30
0
11
1157106.727
21
-971344.899
31
0
0
LINE
8
04창호
10
1157106.727
20
-971354.799
30
0
11
1157106.727
21
-971353.899
31
0
0
LINE
8
04창호
10
1157120.727
20
-971358.899
30
0
11
1157120.727
21
-971344.899
31
0
0
LINE
8
04창호
10
1157085.627
20
-971353.899
30
0
11
1157085.627
21
-971345.899
31
0
0
LINE
8
04창호
10
1157085.627
20
-971358.899
30
0
11
1157085.627
21
-971354.799
31
0
0
LINE
8
04창호
10
1157098.727
20
-971345.899
30
0
11
1157098.727
21
-971344.899
31
0
0
LINE
8
04창호
10
1157098.727
20
-971354.799
30
0
11
1157098.727
21
-971353.899
31
0
0
LINE
8
04창호
10
1157084.727
20
-971358.899
30
0
11
1157084.727
21
-971344.899
31
0
0
LINE
8
04창호
10
1157119.827
20
-971358.899
30
0
11
1157120.727
21
-971358.899
31
0
0
LINE
8
04창호
10
1157084.727
20
-971358.899
30
0
11
1157085.627
21
-971358.899
31
0
0
LINE
8
04창호
10
1157106.727
20
-971345.899
30
0
11
1157119.827
21
-971345.899
31
0
0
LINE
8
04창호
10
1157085.627
20
-971345.899
30
0
11
1157098.727
21
-971345.899
31
0
0
LINE
8
04창호
10
1157106.727
20
-971344.899
30
0
11
1157120.727
21
-971344.899
31
0
0
LINE
8
04창호
10
1157084.727
20
-971344.899
30
0
11
1157098.727
21
-971344.899
31
0
0
LINE
8
04창호
10
1157106.727
20
-971354.799
30
0
11
1157119.827
21
-971354.799
31
0
0
LINE
8
04창호
10
1157085.627
20
-971354.799
30
0
11
1157098.727
21
-971354.799
31
0
0
LINE
8
04창호
10
1157106.727
20
-971353.899
30
0
11
1157119.827
21
-971353.899
31
0
0
LINE
8
04창호
10
1157085.627
20
-971353.899
30
0
11
1157098.727
21
-971353.899
31
0
0
LINE
8
04창호
10
1157119.827
20
-971113.899
30
0
11
1157119.827
21
-971121.899
31
0
0
LINE
8
04창호
10
1157119.827
20
-971108.899
30
0
11
1157119.827
21
-971112.999
31
0
0
LINE
8
04창호
10
1157106.727
20
-971121.899
30
0
11
1157106.727
21
-971122.899
31
0
0
LINE
8
04창호
10
1157106.727
20
-971112.999
30
0
11
1157106.727
21
-971113.899
31
0
0
LINE
8
04창호
10
1157120.727
20
-971108.899
30
0
11
1157120.727
21
-971122.899
31
0
0
LINE
8
04창호
10
1157085.627
20
-971113.899
30
0
11
1157085.627
21
-971121.899
31
0
0
LINE
8
04창호
10
1157085.627
20
-971108.899
30
0
11
1157085.627
21
-971112.999
31
0
0
LINE
8
04창호
10
1157098.727
20
-971121.899
30
0
11
1157098.727
21
-971122.899
31
0
0
LINE
8
04창호
10
1157098.727
20
-971112.999
30
0
11
1157098.727
21
-971113.899
31
0
0
LINE
8
04창호
10
1157084.727
20
-971108.899
30
0
11
1157084.727
21
-971122.899
31
0
0
LINE
8
04창호
10
1157119.827
20
-971108.899
30
0
11
1157120.727
21
-971108.899
31
0
0
LINE
8
04창호
10
1157084.727
20
-971108.899
30
0
11
1157085.627
21
-971108.899
31
0
0
LINE
8
04창호
10
1157106.727
20
-971121.899
30
0
11
1157119.827
21
-971121.899
31
0
0
LINE
8
04창호
10
1157085.627
20
-971121.899
30
0
11
1157098.727
21
-971121.899
31
0
0
LINE
8
04창호
10
1157106.727
20
-971122.899
30
0
11
1157120.727
21
-971122.899
31
0
0
LINE
8
04창호
10
1157084.727
20
-971122.899
30
0
11
1157098.727
21
-971122.899
31
0
0
LINE
8
04창호
10
1157106.727
20
-971112.999
30
0
11
1157119.827
21
-971112.999
31
0
0
LINE
8
04창호
10
1157085.627
20
-971112.999
30
0
11
1157098.727
21
-971112.999
31
0
0
LINE
8
04창호
10
1157106.727
20
-971113.899
30
0
11
1157119.827
21
-971113.899
31
0
0
LINE
8
04창호
10
1157085.627
20
-971113.899
30
0
11
1157098.727
21
-971113.899
31
0
0
LINE
8
04창호
10
1157100.227
20
-971354.421
30
0
11
1157105.227
21
-971354.421
31
0
0
LINE
8
04창호
10
1157119.227
20
-971354.799
30
0
11
1157119.827
21
-971354.799
31
0
0
LINE
8
04창호
10
1157119.227
20
-971354.899
30
0
11
1157119.727
21
-971354.899
31
0
0
LINE
8
04창호
10
1157119.227
20
-971112.999
30
0
11
1157119.827
21
-971112.999
31
0
0
LINE
8
04창호
10
1157119.227
20
-971112.899
30
0
11
1157119.727
21
-971112.899
31
0
0
LINE
8
04창호
10
1157100.227
20
-971113.391
30
0
11
1157105.227
21
-971113.391
31
0
0
LINE
8
04창호
10
1157106.727
20
-971122.899
30
0
11
1157106.727
21
-971344.899
31
0
0
LINE
8
04창호
10
1157120.727
20
-971122.899
30
0
11
1157120.727
21
-971344.899
31
0
0
LINE
8
04창호
10
1157103.727
20
-971354.421
30
0
11
1157103.727
21
-971113.391
31
0
0
LINE
8
04창호
10
1157105.227
20
-971354.421
30
0
11
1157105.227
21
-971113.391
31
0
0
LINE
8
04창호
10
1157101.727
20
-971354.421
30
0
11
1157101.727
21
-971113.391
31
0
0
LINE
8
04창호
10
1157100.227
20
-971354.421
30
0
11
1157100.227
21
-971113.391
31
0
0
LINE
8
04창호
10
1157086.227
20
-971354.899
30
0
11
1157085.727
21
-971354.899
31
0
0
LINE
8
04창호
10
1157086.227
20
-971112.899
30
0
11
1157085.727
21
-971112.899
31
0
0
LINE
8
04창호
10
1157098.727
20
-971122.899
30
0
11
1157098.727
21
-971344.899
31
0
0
LINE
8
04창호
10
1157084.727
20
-971122.899
30
0
11
1157084.727
21
-971344.899
31
0
0
LINE
8
04창호
10
1157087.727
20
-971111.699
30
0
11
1157117.727
21
-971111.699
31
0
0
LINE
8
04창호
10
1157086.627
20
-971112.899
30
0
11
1157118.827
21
-971112.899
31
0
0
LINE
8
04창호
10
1157086.627
20
-971354.899
30
0
11
1157118.827
21
-971354.899
31
0
0
LINE
8
04창호
10
1157087.727
20
-971356.099
30
0
11
1157117.727
21
-971356.099
31
0
0
LINE
8
04창호
10
1157087.927
20
-971850.799
30
0
11
1157087.927
21
-971852.099
31
0
0
LINE
8
04창호
10
1157085.927
20
-971848.899
30
0
11
1157085.927
21
-971852.099
31
0
0
LINE
8
04창호
10
1157117.527
20
-971852.099
30
0
11
1157117.527
21
-971850.799
31
0
0
LINE
8
04창호
10
1157119.527
20
-971852.099
30
0
11
1157119.527
21
-971848.899
31
0
0
LINE
8
04창호
10
1157103.727
20
-971850.799
30
0
11
1157103.727
21
-971866.865
31
0
0
LINE
8
04창호
10
1157103.727
20
-971847.499
30
0
11
1157103.727
21
-971848.899
31
0
0
LINE
8
04창호
10
1157101.727
20
-971850.799
30
0
11
1157101.727
21
-971866.865
31
0
0
LINE
8
04창호
10
1157101.727
20
-971847.499
30
0
11
1157101.727
21
-971848.899
31
0
0
LINE
8
04창호
10
1157119.027
20
-971848.099
30
0
11
1157119.027
21
-971847.599
31
0
0
LINE
8
04창호
10
1157110.227
20
-971848.599
30
0
11
1157110.227
21
-971847.799
31
0
0
LINE
8
04창호
10
1157103.727
20
-971848.899
30
0
11
1157119.527
21
-971848.899
31
0
0
LINE
8
04창호
10
1157110.427
20
-971848.799
30
0
11
1157119.527
21
-971848.799
31
0
0
LINE
8
04창호
10
1157103.727
20
-971847.499
30
0
11
1157116.227
21
-971847.499
31
0
0
LINE
8
04창호
10
1157089.227
20
-971845.599
30
0
11
1157116.227
21
-971845.599
31
0
0
LINE
8
04창호
10
1157110.427
20
-971847.599
30
0
11
1157119.027
21
-971847.599
31
0
0
LINE
8
04창호
10
1157110.827
20
-971848.299
30
0
11
1157119.127
21
-971848.299
31
0
0
LINE
8
04창호
10
1157110.827
20
-971848.099
30
0
11
1157119.027
21
-971848.099
31
0
0
LINE
8
04창호
10
1157094.627
20
-971848.299
30
0
11
1157086.327
21
-971848.299
31
0
0
LINE
8
04창호
10
1157101.727
20
-971847.499
30
0
11
1157089.227
21
-971847.499
31
0
0
LINE
8
04창호
10
1157095.027
20
-971847.599
30
0
11
1157086.427
21
-971847.599
31
0
0
LINE
8
04창호
10
1157094.627
20
-971848.099
30
0
11
1157086.427
21
-971848.099
31
0
0
LINE
8
04창호
10
1157086.427
20
-971848.099
30
0
11
1157086.427
21
-971847.599
31
0
0
LINE
8
04창호
10
1157095.227
20
-971848.599
30
0
11
1157095.227
21
-971847.799
31
0
0
LINE
8
04창호
10
1157101.727
20
-971848.899
30
0
11
1157085.927
21
-971848.899
31
0
0
LINE
8
04창호
10
1157101.727
20
-971850.799
30
0
11
1157087.927
21
-971850.799
31
0
0
LINE
8
04창호
10
1157117.527
20
-971850.799
30
0
11
1157103.727
21
-971850.799
31
0
0
LINE
8
04창호
10
1157095.027
20
-971848.799
30
0
11
1157085.927
21
-971848.799
31
0
0
LINE
8
04창호
10
1157116.227
20
-971847.499
30
0
11
1157116.227
21
-971845.599
31
0
0
LINE
8
04창호
10
1157089.227
20
-971847.499
30
0
11
1157089.227
21
-971845.599
31
0
0
LINE
8
04창호
10
1157119.027
20
-971848.099
30
0
11
1157119.027
21
-971847.599
31
0
0
LINE
8
04창호
10
1157110.227
20
-971848.599
30
0
11
1157110.227
21
-971847.799
31
0
0
LINE
8
04창호
10
1157095.227
20
-971848.599
30
0
11
1157095.227
21
-971847.799
31
0
0
LINE
8
04창호
10
1157110.427
20
-971847.599
30
0
11
1157119.027
21
-971847.599
31
0
0
LINE
8
04창호
10
1157110.827
20
-971848.299
30
0
11
1157119.127
21
-971848.299
31
0
0
LINE
8
04창호
10
1157110.427
20
-971848.799
30
0
11
1157119.527
21
-971848.799
31
0
0
LINE
8
04창호
10
1157110.827
20
-971848.099
30
0
11
1157119.027
21
-971848.099
31
0
0
LINE
8
04창호
10
1157086.427
20
-971848.099
30
0
11
1157086.427
21
-971847.599
31
0
0
LINE
8
04창호
10
1157095.027
20
-971847.599
30
0
11
1157086.427
21
-971847.599
31
0
0
LINE
8
04창호
10
1157095.027
20
-971848.799
30
0
11
1157085.927
21
-971848.799
31
0
0
LINE
8
04창호
10
1157094.627
20
-971848.299
30
0
11
1157086.327
21
-971848.299
31
0
0
LINE
8
04창호
10
1157094.627
20
-971848.099
30
0
11
1157086.427
21
-971848.099
31
0
0
LINE
8
04창호
10
1157087.927
20
-970906.999
30
0
11
1157087.927
21
-970905.699
31
0
0
LINE
8
04창호
10
1157085.927
20
-970908.899
30
0
11
1157085.927
21
-970905.699
31
0
0
LINE
8
04창호
10
1157117.527
20
-970905.699
30
0
11
1157117.527
21
-970906.999
31
0
0
LINE
8
04창호
10
1157119.527
20
-970905.699
30
0
11
1157119.527
21
-970908.899
31
0
0
LINE
8
04창호
10
1157103.727
20
-970906.999
30
0
11
1157103.727
21
-970890.933
31
0
0
LINE
8
04창호
10
1157103.727
20
-970910.299
30
0
11
1157103.727
21
-970908.899
31
0
0
LINE
8
04창호
10
1157101.727
20
-970906.999
30
0
11
1157101.727
21
-970890.933
31
0
0
LINE
8
04창호
10
1157101.727
20
-970910.299
30
0
11
1157101.727
21
-970908.899
31
0
0
LINE
8
04창호
10
1157119.027
20
-970909.699
30
0
11
1157119.027
21
-970910.199
31
0
0
LINE
8
04창호
10
1157110.227
20
-970909.199
30
0
11
1157110.227
21
-970909.999
31
0
0
LINE
8
04창호
10
1157103.727
20
-970908.899
30
0
11
1157119.527
21
-970908.899
31
0
0
LINE
8
04창호
10
1157110.427
20
-970908.999
30
0
11
1157119.527
21
-970908.999
31
0
0
LINE
8
04창호
10
1157103.727
20
-970910.299
30
0
11
1157116.227
21
-970910.299
31
0
0
LINE
8
04창호
10
1157089.227
20
-970912.199
30
0
11
1157116.227
21
-970912.199
31
0
0
LINE
8
04창호
10
1157110.427
20
-970910.199
30
0
11
1157119.027
21
-970910.199
31
0
0
LINE
8
04창호
10
1157110.827
20
-970909.499
30
0
11
1157119.127
21
-970909.499
31
0
0
LINE
8
04창호
10
1157110.827
20
-970909.699
30
0
11
1157119.027
21
-970909.699
31
0
0
LINE
8
04창호
10
1157094.627
20
-970909.499
30
0
11
1157086.327
21
-970909.499
31
0
0
LINE
8
04창호
10
1157101.727
20
-970910.299
30
0
11
1157089.227
21
-970910.299
31
0
0
LINE
8
04창호
10
1157095.027
20
-970910.199
30
0
11
1157086.427
21
-970910.199
31
0
0
LINE
8
04창호
10
1157094.627
20
-970909.699
30
0
11
1157086.427
21
-970909.699
31
0
0
LINE
8
04창호
10
1157086.427
20
-970909.699
30
0
11
1157086.427
21
-970910.199
31
0
0
LINE
8
04창호
10
1157095.227
20
-970909.199
30
0
11
1157095.227
21
-970909.999
31
0
0
LINE
8
04창호
10
1157101.727
20
-970908.899
30
0
11
1157085.927
21
-970908.899
31
0
0
LINE
8
04창호
10
1157101.727
20
-970906.999
30
0
11
1157087.927
21
-970906.999
31
0
0
LINE
8
04창호
10
1157117.527
20
-970906.999
30
0
11
1157103.727
21
-970906.999
31
0
0
LINE
8
04창호
10
1157095.027
20
-970908.999
30
0
11
1157085.927
21
-970908.999
31
0
0
LINE
8
04창호
10
1157116.227
20
-970910.299
30
0
11
1157116.227
21
-970912.199
31
0
0
LINE
8
04창호
10
1157089.227
20
-970910.299
30
0
11
1157089.227
21
-970912.199
31
0
0
LINE
8
04창호
10
1157052.196
20
-972658.899
30
0
11
1157153.196
21
-972658.899
31
0
0
LINE
8
04창호
10
1157151.596
20
-972657.299
30
0
11
1157053.796
21
-972657.299
31
0
0
LINE
8
04창호
10
1157085.727
20
-971112.899
30
0
11
1157085.727
21
-970909.199
31
0
0
LINE
8
04창호
10
1157086.227
20
-971112.899
30
0
11
1157086.227
21
-970909.599
31
0
0
LINE
8
04창호
10
1157119.227
20
-971112.899
30
0
11
1157119.227
21
-970909.599
31
0
0
LINE
8
04창호
10
1157119.727
20
-971112.899
30
0
11
1157119.727
21
-970909.199
31
0
0
LINE
8
04창호
10
1157087.727
20
-971356.099
30
0
11
1157117.727
21
-971356.099
31
0
0
LINE
8
04창호
10
1157086.627
20
-971354.899
30
0
11
1157118.827
21
-971354.899
31
0
0
LINE
8
04창호
10
1157086.427
20
-971355.099
30
0
11
1157086.427
21
-971379.899
31
0
0
LINE
8
04창호
10
1157087.627
20
-971356.199
30
0
11
1157087.627
21
-971379.899
31
0
0
LINE
8
04창호
10
1157086.227
20
-971354.899
30
0
11
1157085.727
21
-971354.899
31
0
0
LINE
8
04창호
10
1157086.427
20
-971379.899
30
0
11
1157087.627
21
-971379.899
31
0
0
LINE
8
04창호
10
1157117.827
20
-971356.199
30
0
11
1157117.827
21
-971379.899
31
0
0
LINE
8
04창호
10
1157119.027
20
-971355.099
30
0
11
1157119.027
21
-971379.899
31
0
0
LINE
8
04창호
10
1157119.227
20
-971354.799
30
0
11
1157119.827
21
-971354.799
31
0
0
LINE
8
04창호
10
1157119.227
20
-971354.899
30
0
11
1157119.727
21
-971354.899
31
0
0
LINE
8
04창호
10
1157117.827
20
-971379.899
30
0
11
1157119.027
21
-971379.899
31
0
0
LINE
8
04창호
10
1157086.627
20
-971112.899
30
0
11
1157118.827
21
-971112.899
31
0
0
LINE
8
04창호
10
1157087.727
20
-971111.699
30
0
11
1157117.727
21
-971111.699
31
0
0
LINE
8
04창호
10
1157086.427
20
-971112.699
30
0
11
1157086.427
21
-971087.899
31
0
0
LINE
8
04창호
10
1157087.627
20
-971111.599
30
0
11
1157087.627
21
-971087.899
31
0
0
LINE
8
04창호
10
1157086.427
20
-971087.899
30
0
11
1157087.627
21
-971087.899
31
0
0
LINE
8
04창호
10
1157086.227
20
-971112.899
30
0
11
1157085.727
21
-971112.899
31
0
0
LINE
8
04창호
10
1157119.027
20
-971112.699
30
0
11
1157119.027
21
-971087.899
31
0
0
LINE
8
04창호
10
1157117.827
20
-971111.599
30
0
11
1157117.827
21
-971087.899
31
0
0
LINE
8
04창호
10
1157117.827
20
-971087.899
30
0
11
1157119.027
21
-971087.899
31
0
0
LINE
8
04창호
10
1157119.227
20
-971112.999
30
0
11
1157119.827
21
-971112.999
31
0
0
LINE
8
04창호
10
1157119.227
20
-971112.899
30
0
11
1157119.727
21
-971112.899
31
0
0
LINE
8
04창호
10
1157119.027
20
-971848.099
30
0
11
1157119.027
21
-971847.599
31
0
0
LINE
8
04창호
10
1157110.227
20
-971848.599
30
0
11
1157110.227
21
-971847.799
31
0
0
LINE
8
04창호
10
1157095.227
20
-971848.599
30
0
11
1157095.227
21
-971847.799
31
0
0
LINE
8
04창호
10
1157110.427
20
-971848.799
30
0
11
1157119.527
21
-971848.799
31
0
0
LINE
8
04창호
10
1157110.427
20
-971847.599
30
0
11
1157119.027
21
-971847.599
31
0
0
LINE
8
04창호
10
1157110.827
20
-971848.099
30
0
11
1157119.027
21
-971848.099
31
0
0
LINE
8
04창호
10
1157110.827
20
-971848.299
30
0
11
1157119.127
21
-971848.299
31
0
0
LINE
8
04창호
10
1157086.427
20
-971848.099
30
0
11
1157086.427
21
-971847.599
31
0
0
LINE
8
04창호
10
1157094.627
20
-971848.299
30
0
11
1157086.327
21
-971848.299
31
0
0
LINE
8
04창호
10
1157094.627
20
-971848.099
30
0
11
1157086.427
21
-971848.099
31
0
0
LINE
8
04창호
10
1157095.027
20
-971847.599
30
0
11
1157086.427
21
-971847.599
31
0
0
LINE
8
04창호
10
1157095.027
20
-971848.799
30
0
11
1157085.927
21
-971848.799
31
0
0
LINE
8
04창호
10
1157086.627
20
-971842.999
30
0
11
1157118.827
21
-971842.999
31
0
0
LINE
8
04창호
10
1157087.727
20
-971841.799
30
0
11
1157117.727
21
-971841.799
31
0
0
LINE
8
04창호
10
1157117.827
20
-971817.999
30
0
11
1157119.027
21
-971817.999
31
0
0
LINE
8
04창호
10
1157086.427
20
-971817.999
30
0
11
1157087.627
21
-971817.999
31
0
0
LINE
8
04창호
10
1157119.027
20
-971842.799
30
0
11
1157119.027
21
-971817.999
31
0
0
LINE
8
04창호
10
1157117.827
20
-971841.699
30
0
11
1157117.827
21
-971817.999
31
0
0
LINE
8
04창호
10
1157087.627
20
-971841.699
30
0
11
1157087.627
21
-971817.999
31
0
0
LINE
8
04창호
10
1157086.427
20
-971842.799
30
0
11
1157086.427
21
-971817.999
31
0
0
LINE
8
04창호
10
1157117.827
20
-970939.799
30
0
11
1157119.027
21
-970939.799
31
0
0
LINE
8
04창호
10
1157086.427
20
-970939.799
30
0
11
1157087.627
21
-970939.799
31
0
0
LINE
8
04창호
10
1157119.027
20
-970909.699
30
0
11
1157119.027
21
-970910.199
31
0
0
LINE
8
04창호
10
1157110.227
20
-970909.199
30
0
11
1157110.227
21
-970909.999
31
0
0
LINE
8
04창호
10
1157095.227
20
-970909.199
30
0
11
1157095.227
21
-970909.999
31
0
0
LINE
8
04창호
10
1157110.427
20
-970910.199
30
0
11
1157119.027
21
-970910.199
31
0
0
LINE
8
04창호
10
1157110.827
20
-970909.499
30
0
11
1157119.127
21
-970909.499
31
0
0
LINE
8
04창호
10
1157110.427
20
-970908.999
30
0
11
1157119.527
21
-970908.999
31
0
0
LINE
8
04창호
10
1157110.827
20
-970909.699
30
0
11
1157119.027
21
-970909.699
31
0
0
LINE
8
04창호
10
1157086.427
20
-970909.699
30
0
11
1157086.427
21
-970910.199
31
0
0
LINE
8
04창호
10
1157095.027
20
-970910.199
30
0
11
1157086.427
21
-970910.199
31
0
0
LINE
8
04창호
10
1157095.027
20
-970908.999
30
0
11
1157085.927
21
-970908.999
31
0
0
LINE
8
04창호
10
1157094.627
20
-970909.499
30
0
11
1157086.327
21
-970909.499
31
0
0
LINE
8
04창호
10
1157094.627
20
-970909.699
30
0
11
1157086.427
21
-970909.699
31
0
0
LINE
8
04창호
10
1157087.727
20
-970915.999
30
0
11
1157117.727
21
-970915.999
31
0
0
LINE
8
04창호
10
1157086.627
20
-970914.799
30
0
11
1157118.827
21
-970914.799
31
0
0
LINE
8
04창호
10
1157117.827
20
-970916.099
30
0
11
1157117.827
21
-970939.799
31
0
0
LINE
8
04창호
10
1157119.027
20
-970914.999
30
0
11
1157119.027
21
-970939.799
31
0
0
LINE
8
04창호
10
1157086.427
20
-970914.999
30
0
11
1157086.427
21
-970939.799
31
0
0
LINE
8
04창호
10
1157087.627
20
-970916.099
30
0
11
1157087.627
21
-970939.799
31
0
0
LINE
8
04창호
10
1157119.727
20
-971848.599
30
0
11
1157119.727
21
-971354.899
31
0
0
LINE
8
04창호
10
1157119.227
20
-971848.199
30
0
11
1157119.227
21
-971354.899
31
0
0
LINE
8
04창호
10
1157086.227
20
-971848.204
30
0
11
1157086.227
21
-971354.899
31
0
0
LINE
8
04창호
10
1157085.727
20
-971848.599
30
0
11
1157085.727
21
-971354.899
31
0
0
LINE
8
04창호
10
1157052.196
20
-971728.899
30
0
11
1157052.196
21
-972658.899
31
0
0
LINE
8
04창호
10
1157122.196
20
-970860.499
30
0
11
1157067.196
21
-970860.499
31
0
0
LINE
8
04창호
10
1157151.596
20
-970862.099
30
0
11
1157053.796
21
-970862.099
31
0
0
LINE
8
04창호
10
1157067.196
20
-970860.499
30
0
11
1157067.196
21
-970858.899
31
0
0
LINE
8
04창호
10
1157053.796
20
-970860.499
30
0
11
1157067.196
21
-970860.499
31
0
0
LINE
8
04창호
10
1157053.796
20
-970897.299
30
0
11
1157053.796
21
-970860.499
31
0
0
LINE
8
04창호
10
1157081.596
20
-970897.299
30
0
11
1157053.796
21
-970897.299
31
0
0
LINE
8
04창호
10
1157081.596
20
-970885.299
30
0
11
1157081.596
21
-970897.299
31
0
0
LINE
8
04창호
10
1157123.796
20
-970885.299
30
0
11
1157081.596
21
-970885.299
31
0
0
LINE
8
04창호
10
1157123.796
20
-970897.299
30
0
11
1157123.796
21
-970885.299
31
0
0
LINE
8
04창호
10
1157135.596
20
-970897.299
30
0
11
1157123.796
21
-970897.299
31
0
0
LINE
8
04창호
10
1157122.196
20
-970860.499
30
0
11
1157135.596
21
-970860.499
31
0
0
LINE
8
04창호
10
1157122.196
20
-970858.899
30
0
11
1157122.196
21
-970860.499
31
0
0
LINE
8
04창호
10
1157151.596
20
-970860.499
30
0
11
1157122.196
21
-970860.499
31
0
0
LINE
8
04창호
10
1157153.196
20
-970858.899
30
0
11
1157122.196
21
-970858.899
31
0
0
LINE
8
04창호
10
1157122.196
20
-970886.899
30
0
11
1157122.196
21
-970898.899
31
0
0
LINE
8
04창호
10
1157083.196
20
-970886.899
30
0
11
1157122.196
21
-970886.899
31
0
0
LINE
8
04창호
10
1157083.196
20
-970898.899
30
0
11
1157083.196
21
-970886.899
31
0
0
LINE
8
04창호
10
1157052.196
20
-970898.899
30
0
11
1157083.196
21
-970898.899
31
0
0
LINE
8
04창호
10
1157052.196
20
-970858.899
30
0
11
1157052.196
21
-970898.899
31
0
0
LINE
8
04창호
10
1157067.196
20
-970858.899
30
0
11
1157052.196
21
-970858.899
31
0
0
LINE
8
기존
10
1156702.196
20
-970508.899
30
0
11
1156702.196
21
-970208.899
31
0
0
LINE
8
WAL
10
1155802.196
20
-970508.899
30
0
11
1155802.196
21
-970208.899
31
0
0
LINE
8
WAL
10
1157152.196
20
-971758.899
30
0
11
1157252.196
21
-971758.899
31
0
0
LINE
8
WAL
10
1157152.196
20
-971758.899
30
0
11
1157152.196
21
-972658.899
31
0
0
LINE
8
WAL
10
1157052.196
20
-972658.899
30
0
11
1157152.196
21
-972658.899
31
0
0
LINE
8
WAL
10
1157152.196
20
-974458.899
30
0
11
1157252.196
21
-974458.899
31
0
0
LINE
8
WAL
10
1157052.196
20
-973558.899
30
0
11
1157152.196
21
-973558.899
31
0
0
LINE
8
WAL
10
1157152.196
20
-973558.899
30
0
11
1157152.196
21
-974458.899
31
0
0
LINE
8
FIN
10
1157052.196
20
-973558.899
30
0
11
1157027.196
21
-973558.899
31
0
0
LINE
8
기존
10
1156902.196
20
-970020.701
30
0
11
1156651.305
21
-970020.701
31
0
0
LINE
8
기존
10
1156776.751
20
-969895.256
30
0
11
1156776.751
21
-970146.147
31
0
0
LINE
8
SYM
10
1152972.196
20
-970603.899
30
0
11
1154432.196
21
-970603.899
31
0
0
LINE
8
WAL
10
1155702.196
20
-970358.899
30
0
11
1155702.196
21
-970308.899
31
0
0
LINE
8
FIN
10
1155802.196
20
-970533.899
30
0
11
1155227.196
21
-970533.899
31
0
0
LINE
8
WAL-2
10
1157152.196
20
-970883.899
30
0
11
1157577.196
21
-970883.899
31
0
0
LINE
8
WAL-2
10
1157577.196
20
-970883.899
30
0
11
1157577.196
21
-970283.899
31
0
0
LINE
8
WAL-2
10
1157577.196
20
-970283.899
30
0
11
1157277.196
21
-970283.899
31
0
0
LINE
8
WAL-2
10
1157277.196
20
-970283.899
30
0
11
1157277.196
21
-966333.899
31
0
0
LINE
8
WAL-2
10
1157277.196
20
-966333.899
30
0
11
1157627.196
21
-966333.899
31
0
0
LINE
8
WAL-2
10
1157627.196
20
-966333.899
30
0
11
1157627.196
21
-965783.992
31
0
0
LINE
8
WAL-2
10
1157627.196
20
-965783.992
30
0
11
1157927.196
21
-965783.992
31
0
0
LINE
8
SYM
10
1157559.261
20
-970839.899
30
0
11
1157576.196
21
-970839.899
31
0
0
LINE
8
SYM
10
1157576.196
20
-970839.899
30
0
11
1157576.196
21
-970858.045
31
0
0
LINE
8
SYM
10
1157576.196
20
-970864.753
30
0
11
1157576.196
21
-970882.899
31
0
0
LINE
8
SYM
10
1157576.196
20
-970882.899
30
0
11
1157568.196
21
-970882.899
31
0
0
LINE
8
SYM
10
1157568.196
20
-970882.899
30
0
11
1157568.196
21
-970878.899
31
0
0
LINE
8
SYM
10
1157568.196
20
-970878.899
30
0
11
1157567.196
21
-970878.899
31
0
0
LINE
8
SYM
10
1157567.196
20
-970878.899
30
0
11
1157567.196
21
-970883.899
31
0
0
LINE
8
SYM
10
1157567.196
20
-970883.899
30
0
11
1157577.196
21
-970883.899
31
0
0
LINE
8
SYM
10
1157577.196
20
-970883.899
30
0
11
1157577.196
21
-970863.899
31
0
0
LINE
8
SYM
10
1157577.196
20
-970858.899
30
0
11
1157577.196
21
-970838.899
31
0
0
LINE
8
SYM
10
1157577.196
20
-970838.899
30
0
11
1157558.696
21
-970838.899
31
0
0
LINE
8
SYM
10
1157545.696
20
-970838.899
30
0
11
1157527.196
21
-970838.899
31
0
0
LINE
8
SYM
10
1157527.196
20
-970838.899
30
0
11
1157527.196
21
-970858.899
31
0
0
LINE
8
SYM
10
1157527.196
20
-970863.899
30
0
11
1157527.196
21
-970883.899
31
0
0
LINE
8
SYM
10
1157527.196
20
-970883.899
30
0
11
1157537.196
21
-970883.899
31
0
0
LINE
8
SYM
10
1157537.196
20
-970883.899
30
0
11
1157537.196
21
-970878.899
31
0
0
LINE
8
SYM
10
1157537.196
20
-970878.899
30
0
11
1157536.196
21
-970878.899
31
0
0
LINE
8
SYM
10
1157536.196
20
-970878.899
30
0
11
1157536.196
21
-970882.899
31
0
0
LINE
8
SYM
10
1157536.196
20
-970882.899
30
0
11
1157528.196
21
-970882.899
31
0
0
LINE
8
SYM
10
1157528.196
20
-970882.899
30
0
11
1157528.196
21
-970864.753
31
0
0
LINE
8
SYM
10
1157528.196
20
-970858.045
30
0
11
1157528.196
21
-970839.899
31
0
0
LINE
8
SYM
10
1157528.196
20
-970839.899
30
0
11
1157545.131
21
-970839.899
31
0
0
LINE
8
WAL-2
10
1157152.196
20
-971748.899
30
0
11
1157337.196
21
-971748.899
31
0
0
LINE
8
WAL-2
10
1157337.196
20
-971748.899
30
0
11
1157337.196
21
-972798.899
31
0
0
LINE
8
WAL-2
10
1157337.196
20
-972798.899
30
0
11
1157252.196
21
-972798.899
31
0
0
LINE
8
WAL-2
10
1157252.196
20
-973418.899
30
0
11
1157337.196
21
-973418.899
31
0
0
LINE
8
WAL-2
10
1157337.196
20
-973418.899
30
0
11
1157337.196
21
-974468.899
31
0
0
LINE
8
WAL-2
10
1157337.196
20
-974468.899
30
0
11
1157152.196
21
-974468.899
31
0
0
LINE
8
WAL-2
10
1157152.196
20
-974478.899
30
0
11
1157347.196
21
-974478.899
31
0
0
LINE
8
WAL-2
10
1157347.196
20
-974478.899
30
0
11
1157347.196
21
-973408.899
31
0
0
LINE
8
WAL-2
10
1157347.196
20
-973408.899
30
0
11
1157252.196
21
-973408.899
31
0
0
LINE
8
WAL-2
10
1157252.196
20
-972808.899
30
0
11
1157347.196
21
-972808.899
31
0
0
LINE
8
WAL-2
10
1157347.196
20
-972808.899
30
0
11
1157347.196
21
-971738.899
31
0
0
LINE
8
WAL-2
10
1157347.196
20
-971738.899
30
0
11
1157152.196
21
-971738.899
31
0
0
LINE
8
SYM
10
1157309.261
20
-974414.899
30
0
11
1157326.196
21
-974414.899
31
0
0
LINE
8
SYM
10
1157326.196
20
-974414.899
30
0
11
1157326.196
21
-974433.045
31
0
0
LINE
8
SYM
10
1157326.196
20
-974439.753
30
0
11
1157326.196
21
-974457.899
31
0
0
LINE
8
SYM
10
1157326.196
20
-974457.899
30
0
11
1157318.196
21
-974457.899
31
0
0
LINE
8
SYM
10
1157318.196
20
-974457.899
30
0
11
1157318.196
21
-974453.899
31
0
0
LINE
8
SYM
10
1157318.196
20
-974453.899
30
0
11
1157317.196
21
-974453.899
31
0
0
LINE
8
SYM
10
1157317.196
20
-974453.899
30
0
11
1157317.196
21
-974458.899
31
0
0
LINE
8
SYM
10
1157317.196
20
-974458.899
30
0
11
1157327.196
21
-974458.899
31
0
0
LINE
8
SYM
10
1157327.196
20
-974458.899
30
0
11
1157327.196
21
-974438.899
31
0
0
LINE
8
SYM
10
1157327.196
20
-974433.899
30
0
11
1157327.196
21
-974413.899
31
0
0
LINE
8
SYM
10
1157327.196
20
-974413.899
30
0
11
1157308.696
21
-974413.899
31
0
0
LINE
8
SYM
10
1157295.696
20
-974413.899
30
0
11
1157277.196
21
-974413.899
31
0
0
LINE
8
SYM
10
1157277.196
20
-974413.899
30
0
11
1157277.196
21
-974433.899
31
0
0
LINE
8
SYM
10
1157277.196
20
-974438.899
30
0
11
1157277.196
21
-974458.899
31
0
0
LINE
8
SYM
10
1157277.196
20
-974458.899
30
0
11
1157287.196
21
-974458.899
31
0
0
LINE
8
SYM
10
1157287.196
20
-974458.899
30
0
11
1157287.196
21
-974453.899
31
0
0
LINE
8
SYM
10
1157287.196
20
-974453.899
30
0
11
1157286.196
21
-974453.899
31
0
0
LINE
8
SYM
10
1157286.196
20
-974453.899
30
0
11
1157286.196
21
-974457.899
31
0
0
LINE
8
SYM
10
1157286.196
20
-974457.899
30
0
11
1157278.196
21
-974457.899
31
0
0
LINE
8
SYM
10
1157278.196
20
-974457.899
30
0
11
1157278.196
21
-974439.753
31
0
0
LINE
8
SYM
10
1157278.196
20
-974433.045
30
0
11
1157278.196
21
-974414.899
31
0
0
LINE
8
SYM
10
1157278.196
20
-974414.899
30
0
11
1157295.131
21
-974414.899
31
0
0
LINE
8
SYM
10
1157309.261
20
-971759.899
30
0
11
1157326.196
21
-971759.899
31
0
0
LINE
8
SYM
10
1157326.196
20
-971759.899
30
0
11
1157326.196
21
-971778.045
31
0
0
LINE
8
SYM
10
1157326.196
20
-971784.753
30
0
11
1157326.196
21
-971802.899
31
0
0
LINE
8
SYM
10
1157326.196
20
-971802.899
30
0
11
1157318.196
21
-971802.899
31
0
0
LINE
8
SYM
10
1157318.196
20
-971802.899
30
0
11
1157318.196
21
-971798.899
31
0
0
LINE
8
SYM
10
1157318.196
20
-971798.899
30
0
11
1157317.196
21
-971798.899
31
0
0
LINE
8
SYM
10
1157317.196
20
-971798.899
30
0
11
1157317.196
21
-971803.899
31
0
0
LINE
8
SYM
10
1157317.196
20
-971803.899
30
0
11
1157327.196
21
-971803.899
31
0
0
LINE
8
SYM
10
1157327.196
20
-971803.899
30
0
11
1157327.196
21
-971783.899
31
0
0
LINE
8
SYM
10
1157327.196
20
-971778.899
30
0
11
1157327.196
21
-971758.899
31
0
0
LINE
8
SYM
10
1157327.196
20
-971758.899
30
0
11
1157308.696
21
-971758.899
31
0
0
LINE
8
SYM
10
1157295.696
20
-971758.899
30
0
11
1157277.196
21
-971758.899
31
0
0
LINE
8
SYM
10
1157277.196
20
-971758.899
30
0
11
1157277.196
21
-971778.899
31
0
0
LINE
8
SYM
10
1157277.196
20
-971783.899
30
0
11
1157277.196
21
-971803.899
31
0
0
LINE
8
SYM
10
1157277.196
20
-971803.899
30
0
11
1157287.196
21
-971803.899
31
0
0
LINE
8
SYM
10
1157287.196
20
-971803.899
30
0
11
1157287.196
21
-971798.899
31
0
0
LINE
8
SYM
10
1157287.196
20
-971798.899
30
0
11
1157286.196
21
-971798.899
31
0
0
LINE
8
SYM
10
1157286.196
20
-971798.899
30
0
11
1157286.196
21
-971802.899
31
0
0
LINE
8
SYM
10
1157286.196
20
-971802.899
30
0
11
1157278.196
21
-971802.899
31
0
0
LINE
8
SYM
10
1157278.196
20
-971802.899
30
0
11
1157278.196
21
-971784.753
31
0
0
LINE
8
SYM
10
1157278.196
20
-971778.045
30
0
11
1157278.196
21
-971759.899
31
0
0
LINE
8
SYM
10
1157278.196
20
-971759.899
30
0
11
1157295.131
21
-971759.899
31
0
0
LINE
8
WAL-2
10
1157152.196
20
-970898.899
30
0
11
1157152.196
21
-970903.899
31
0
0
LINE
8
WAL-2
10
1157152.196
20
-970903.899
30
0
11
1157597.196
21
-970903.899
31
0
0
LINE
8
WAL-2
10
1157597.196
20
-970903.899
30
0
11
1157597.196
21
-970263.899
31
0
0
LINE
8
WAL-2
10
1157597.196
20
-970263.899
30
0
11
1157297.196
21
-970263.899
31
0
0
LINE
8
WAL-2
10
1157297.196
20
-970263.899
30
0
11
1157297.196
21
-966353.899
31
0
0
LINE
8
WAL-2
10
1157297.196
20
-966353.899
30
0
11
1157647.196
21
-966353.899
31
0
0
LINE
8
WAL-2
10
1157647.196
20
-966353.899
30
0
11
1157647.196
21
-965803.992
31
0
0
LINE
8
WAL-2
10
1157647.196
20
-965803.992
30
0
11
1157947.196
21
-965803.992
31
0
0
LINE
8
SYM
10
1157259.261
20
-970239.899
30
0
11
1157276.196
21
-970239.899
31
0
0
LINE
8
SYM
10
1157276.196
20
-970239.899
30
0
11
1157276.196
21
-970258.045
31
0
0
LINE
8
SYM
10
1157276.196
20
-970264.753
30
0
11
1157276.196
21
-970282.899
31
0
0
LINE
8
SYM
10
1157276.196
20
-970282.899
30
0
11
1157268.196
21
-970282.899
31
0
0
LINE
8
SYM
10
1157268.196
20
-970282.899
30
0
11
1157268.196
21
-970278.899
31
0
0
LINE
8
SYM
10
1157268.196
20
-970278.899
30
0
11
1157267.196
21
-970278.899
31
0
0
LINE
8
SYM
10
1157267.196
20
-970278.899
30
0
11
1157267.196
21
-970283.899
31
0
0
LINE
8
SYM
10
1157267.196
20
-970283.899
30
0
11
1157277.196
21
-970283.899
31
0
0
LINE
8
SYM
10
1157277.196
20
-970283.899
30
0
11
1157277.196
21
-970263.899
31
0
0
LINE
8
SYM
10
1157277.196
20
-970258.899
30
0
11
1157277.196
21
-970238.899
31
0
0
LINE
8
SYM
10
1157277.196
20
-970238.899
30
0
11
1157258.696
21
-970238.899
31
0
0
LINE
8
SYM
10
1157245.696
20
-970238.899
30
0
11
1157227.196
21
-970238.899
31
0
0
LINE
8
SYM
10
1157227.196
20
-970238.899
30
0
11
1157227.196
21
-970258.899
31
0
0
LINE
8
SYM
10
1157227.196
20
-970263.899
30
0
11
1157227.196
21
-970283.899
31
0
0
LINE
8
SYM
10
1157227.196
20
-970283.899
30
0
11
1157237.196
21
-970283.899
31
0
0
LINE
8
SYM
10
1157237.196
20
-970283.899
30
0
11
1157237.196
21
-970278.899
31
0
0
LINE
8
SYM
10
1157237.196
20
-970278.899
30
0
11
1157236.196
21
-970278.899
31
0
0
LINE
8
SYM
10
1157236.196
20
-970278.899
30
0
11
1157236.196
21
-970282.899
31
0
0
LINE
8
SYM
10
1157236.196
20
-970282.899
30
0
11
1157228.196
21
-970282.899
31
0
0
LINE
8
SYM
10
1157228.196
20
-970282.899
30
0
11
1157228.196
21
-970264.753
31
0
0
LINE
8
SYM
10
1157228.196
20
-970258.045
30
0
11
1157228.196
21
-970239.899
31
0
0
LINE
8
SYM
10
1157228.196
20
-970239.899
30
0
11
1157245.131
21
-970239.899
31
0
0
LINE
8
SYM
10
1157559.261
20
-970334.899
30
0
11
1157576.196
21
-970334.899
31
0
0
LINE
8
SYM
10
1157576.196
20
-970334.899
30
0
11
1157576.196
21
-970353.045
31
0
0
LINE
8
SYM
10
1157576.196
20
-970359.753
30
0
11
1157576.196
21
-970377.899
31
0
0
LINE
8
SYM
10
1157576.196
20
-970377.899
30
0
11
1157568.196
21
-970377.899
31
0
0
LINE
8
SYM
10
1157568.196
20
-970377.899
30
0
11
1157568.196
21
-970373.899
31
0
0
LINE
8
SYM
10
1157568.196
20
-970373.899
30
0
11
1157567.196
21
-970373.899
31
0
0
LINE
8
SYM
10
1157567.196
20
-970373.899
30
0
11
1157567.196
21
-970378.899
31
0
0
LINE
8
SYM
10
1157567.196
20
-970378.899
30
0
11
1157577.196
21
-970378.899
31
0
0
LINE
8
SYM
10
1157577.196
20
-970378.899
30
0
11
1157577.196
21
-970358.899
31
0
0
LINE
8
SYM
10
1157577.196
20
-970353.899
30
0
11
1157577.196
21
-970333.899
31
0
0
LINE
8
SYM
10
1157577.196
20
-970333.899
30
0
11
1157558.696
21
-970333.899
31
0
0
LINE
8
SYM
10
1157545.696
20
-970333.899
30
0
11
1157527.196
21
-970333.899
31
0
0
LINE
8
SYM
10
1157527.196
20
-970333.899
30
0
11
1157527.196
21
-970353.899
31
0
0
LINE
8
SYM
10
1157527.196
20
-970358.899
30
0
11
1157527.196
21
-970378.899
31
0
0
LINE
8
SYM
10
1157527.196
20
-970378.899
30
0
11
1157537.196
21
-970378.899
31
0
0
LINE
8
SYM
10
1157537.196
20
-970378.899
30
0
11
1157537.196
21
-970373.899
31
0
0
LINE
8
SYM
10
1157537.196
20
-970373.899
30
0
11
1157536.196
21
-970373.899
31
0
0
LINE
8
SYM
10
1157536.196
20
-970373.899
30
0
11
1157536.196
21
-970377.899
31
0
0
LINE
8
SYM
10
1157536.196
20
-970377.899
30
0
11
1157528.196
21
-970377.899
31
0
0
LINE
8
SYM
10
1157528.196
20
-970377.899
30
0
11
1157528.196
21
-970359.753
31
0
0
LINE
8
SYM
10
1157528.196
20
-970353.045
30
0
11
1157528.196
21
-970334.899
31
0
0
LINE
8
SYM
10
1157528.196
20
-970334.899
30
0
11
1157545.131
21
-970334.899
31
0
0
LINE
8
SYM
10
1157609.261
20
-966239.899
30
0
11
1157626.196
21
-966239.899
31
0
0
LINE
8
SYM
10
1157626.196
20
-966239.899
30
0
11
1157626.196
21
-966258.045
31
0
0
LINE
8
SYM
10
1157626.196
20
-966264.753
30
0
11
1157626.196
21
-966282.899
31
0
0
LINE
8
SYM
10
1157626.196
20
-966282.899
30
0
11
1157618.196
21
-966282.899
31
0
0
LINE
8
SYM
10
1157618.196
20
-966282.899
30
0
11
1157618.196
21
-966278.899
31
0
0
LINE
8
SYM
10
1157618.196
20
-966278.899
30
0
11
1157617.196
21
-966278.899
31
0
0
LINE
8
SYM
10
1157617.196
20
-966278.899
30
0
11
1157617.196
21
-966283.899
31
0
0
LINE
8
SYM
10
1157617.196
20
-966283.899
30
0
11
1157627.196
21
-966283.899
31
0
0
LINE
8
SYM
10
1157627.196
20
-966283.899
30
0
11
1157627.196
21
-966263.899
31
0
0
LINE
8
SYM
10
1157627.196
20
-966258.899
30
0
11
1157627.196
21
-966238.899
31
0
0
LINE
8
SYM
10
1157627.196
20
-966238.899
30
0
11
1157608.696
21
-966238.899
31
0
0
LINE
8
SYM
10
1157595.696
20
-966238.899
30
0
11
1157577.196
21
-966238.899
31
0
0
LINE
8
SYM
10
1157577.196
20
-966238.899
30
0
11
1157577.196
21
-966258.899
31
0
0
LINE
8
SYM
10
1157577.196
20
-966263.899
30
0
11
1157577.196
21
-966283.899
31
0
0
LINE
8
SYM
10
1157577.196
20
-966283.899
30
0
11
1157587.196
21
-966283.899
31
0
0
LINE
8
SYM
10
1157587.196
20
-966283.899
30
0
11
1157587.196
21
-966278.899
31
0
0
LINE
8
SYM
10
1157587.196
20
-966278.899
30
0
11
1157586.196
21
-966278.899
31
0
0
LINE
8
SYM
10
1157586.196
20
-966278.899
30
0
11
1157586.196
21
-966282.899
31
0
0
LINE
8
SYM
10
1157586.196
20
-966282.899
30
0
11
1157578.196
21
-966282.899
31
0
0
LINE
8
SYM
10
1157578.196
20
-966282.899
30
0
11
1157578.196
21
-966264.753
31
0
0
LINE
8
SYM
10
1157578.196
20
-966258.045
30
0
11
1157578.196
21
-966239.899
31
0
0
LINE
8
SYM
10
1157578.196
20
-966239.899
30
0
11
1157595.131
21
-966239.899
31
0
0
LINE
8
SYM
10
1157259.261
20
-966334.899
30
0
11
1157276.196
21
-966334.899
31
0
0
LINE
8
SYM
10
1157276.196
20
-966334.899
30
0
11
1157276.196
21
-966353.045
31
0
0
LINE
8
SYM
10
1157276.196
20
-966359.753
30
0
11
1157276.196
21
-966377.899
31
0
0
LINE
8
SYM
10
1157276.196
20
-966377.899
30
0
11
1157268.196
21
-966377.899
31
0
0
LINE
8
SYM
10
1157268.196
20
-966377.899
30
0
11
1157268.196
21
-966373.899
31
0
0
LINE
8
SYM
10
1157268.196
20
-966373.899
30
0
11
1157267.196
21
-966373.899
31
0
0
LINE
8
SYM
10
1157267.196
20
-966373.899
30
0
11
1157267.196
21
-966378.899
31
0
0
LINE
8
SYM
10
1157267.196
20
-966378.899
30
0
11
1157277.196
21
-966378.899
31
0
0
LINE
8
SYM
10
1157277.196
20
-966378.899
30
0
11
1157277.196
21
-966358.899
31
0
0
LINE
8
SYM
10
1157277.196
20
-966353.899
30
0
11
1157277.196
21
-966333.899
31
0
0
LINE
8
SYM
10
1157277.196
20
-966333.899
30
0
11
1157258.696
21
-966333.899
31
0
0
LINE
8
SYM
10
1157245.696
20
-966333.899
30
0
11
1157227.196
21
-966333.899
31
0
0
LINE
8
SYM
10
1157227.196
20
-966333.899
30
0
11
1157227.196
21
-966353.899
31
0
0
LINE
8
SYM
10
1157227.196
20
-966358.899
30
0
11
1157227.196
21
-966378.899
31
0
0
LINE
8
SYM
10
1157227.196
20
-966378.899
30
0
11
1157237.196
21
-966378.899
31
0
0
LINE
8
SYM
10
1157237.196
20
-966378.899
30
0
11
1157237.196
21
-966373.899
31
0
0
LINE
8
SYM
10
1157237.196
20
-966373.899
30
0
11
1157236.196
21
-966373.899
31
0
0
LINE
8
SYM
10
1157236.196
20
-966373.899
30
0
11
1157236.196
21
-966377.899
31
0
0
LINE
8
SYM
10
1157236.196
20
-966377.899
30
0
11
1157228.196
21
-966377.899
31
0
0
LINE
8
SYM
10
1157228.196
20
-966377.899
30
0
11
1157228.196
21
-966359.753
31
0
0
LINE
8
SYM
10
1157228.196
20
-966353.045
30
0
11
1157228.196
21
-966334.899
31
0
0
LINE
8
SYM
10
1157228.196
20
-966334.899
30
0
11
1157245.131
21
-966334.899
31
0
0
LINE
8
SYM
10
1157295.131
20
-972259.008
30
0
11
1157278.196
21
-972259.008
31
0
0
LINE
8
SYM
10
1157278.196
20
-972259.008
30
0
11
1157278.196
21
-972277.154
31
0
0
LINE
8
SYM
10
1157278.196
20
-972283.862
30
0
11
1157278.196
21
-972302.008
31
0
0
LINE
8
SYM
10
1157278.196
20
-972302.008
30
0
11
1157286.196
21
-972302.008
31
0
0
LINE
8
SYM
10
1157286.196
20
-972302.008
30
0
11
1157286.196
21
-972298.008
31
0
0
LINE
8
SYM
10
1157286.196
20
-972298.008
30
0
11
1157287.196
21
-972298.008
31
0
0
LINE
8
SYM
10
1157287.196
20
-972298.008
30
0
11
1157287.196
21
-972303.008
31
0
0
LINE
8
SYM
10
1157287.196
20
-972303.008
30
0
11
1157277.196
21
-972303.008
31
0
0
LINE
8
SYM
10
1157277.196
20
-972303.008
30
0
11
1157277.196
21
-972283.008
31
0
0
LINE
8
SYM
10
1157277.196
20
-972278.008
30
0
11
1157277.196
21
-972258.008
31
0
0
LINE
8
SYM
10
1157277.196
20
-972258.008
30
0
11
1157295.696
21
-972258.008
31
0
0
LINE
8
SYM
10
1157308.696
20
-972258.008
30
0
11
1157327.196
21
-972258.008
31
0
0
LINE
8
SYM
10
1157327.196
20
-972258.008
30
0
11
1157327.196
21
-972278.008
31
0
0
LINE
8
SYM
10
1157327.196
20
-972283.008
30
0
11
1157327.196
21
-972303.008
31
0
0
LINE
8
SYM
10
1157327.196
20
-972303.008
30
0
11
1157317.196
21
-972303.008
31
0
0
LINE
8
SYM
10
1157317.196
20
-972303.008
30
0
11
1157317.196
21
-972298.008
31
0
0
LINE
8
SYM
10
1157317.196
20
-972298.008
30
0
11
1157318.196
21
-972298.008
31
0
0
LINE
8
SYM
10
1157318.196
20
-972298.008
30
0
11
1157318.196
21
-972302.008
31
0
0
LINE
8
SYM
10
1157318.196
20
-972302.008
30
0
11
1157326.196
21
-972302.008
31
0
0
LINE
8
SYM
10
1157326.196
20
-972302.008
30
0
11
1157326.196
21
-972283.862
31
0
0
LINE
8
SYM
10
1157326.196
20
-972277.154
30
0
11
1157326.196
21
-972259.008
31
0
0
LINE
8
SYM
10
1157326.196
20
-972259.008
30
0
11
1157309.261
21
-972259.008
31
0
0
LINE
8
SYM
10
1157295.131
20
-973429.899
30
0
11
1157278.196
21
-973429.899
31
0
0
LINE
8
SYM
10
1157278.196
20
-973429.899
30
0
11
1157278.196
21
-973448.045
31
0
0
LINE
8
SYM
10
1157278.196
20
-973454.753
30
0
11
1157278.196
21
-973472.899
31
0
0
LINE
8
SYM
10
1157278.196
20
-973472.899
30
0
11
1157286.196
21
-973472.899
31
0
0
LINE
8
SYM
10
1157286.196
20
-973472.899
30
0
11
1157286.196
21
-973468.899
31
0
0
LINE
8
SYM
10
1157286.196
20
-973468.899
30
0
11
1157287.196
21
-973468.899
31
0
0
LINE
8
SYM
10
1157287.196
20
-973468.899
30
0
11
1157287.196
21
-973473.899
31
0
0
LINE
8
SYM
10
1157287.196
20
-973473.899
30
0
11
1157277.196
21
-973473.899
31
0
0
LINE
8
SYM
10
1157277.196
20
-973473.899
30
0
11
1157277.196
21
-973453.899
31
0
0
LINE
8
SYM
10
1157277.196
20
-973448.899
30
0
11
1157277.196
21
-973428.899
31
0
0
LINE
8
SYM
10
1157277.196
20
-973428.899
30
0
11
1157295.696
21
-973428.899
31
0
0
LINE
8
SYM
10
1157308.696
20
-973428.899
30
0
11
1157327.196
21
-973428.899
31
0
0
LINE
8
SYM
10
1157327.196
20
-973428.899
30
0
11
1157327.196
21
-973448.899
31
0
0
LINE
8
SYM
10
1157327.196
20
-973453.899
30
0
11
1157327.196
21
-973473.899
31
0
0
LINE
8
SYM
10
1157327.196
20
-973473.899
30
0
11
1157317.196
21
-973473.899
31
0
0
LINE
8
SYM
10
1157317.196
20
-973473.899
30
0
11
1157317.196
21
-973468.899
31
0
0
LINE
8
SYM
10
1157317.196
20
-973468.899
30
0
11
1157318.196
21
-973468.899
31
0
0
LINE
8
SYM
10
1157318.196
20
-973468.899
30
0
11
1157318.196
21
-973472.899
31
0
0
LINE
8
SYM
10
1157318.196
20
-973472.899
30
0
11
1157326.196
21
-973472.899
31
0
0
LINE
8
SYM
10
1157326.196
20
-973472.899
30
0
11
1157326.196
21
-973454.753
31
0
0
LINE
8
SYM
10
1157326.196
20
-973448.045
30
0
11
1157326.196
21
-973429.899
31
0
0
LINE
8
SYM
10
1157326.196
20
-973429.899
30
0
11
1157309.261
21
-973429.899
31
0
0
LINE
8
SYM
10
1157295.131
20
-973964.899
30
0
11
1157278.196
21
-973964.899
31
0
0
LINE
8
WAL-2
10
1159627.196
20
-965783.946
30
0
11
1158777.196
21
-965783.946
31
0
0
LINE
8
WAL-2
10
1159637.196
20
-965793.946
30
0
11
1158767.196
21
-965793.946
31
0
0
LINE
8
WAL-2
10
1159647.196
20
-965803.946
30
0
11
1158757.196
21
-965803.946
31
0
0
LINE
8
WAL-2
10
1157937.196
20
-965793.992
30
0
11
1157637.196
21
-965793.992
31
0
0
LINE
8
WAL-2
10
1157637.196
20
-965793.992
30
0
11
1157637.196
21
-966343.899
31
0
0
LINE
8
WAL-2
10
1157637.196
20
-966343.899
30
0
11
1157287.196
21
-966343.899
31
0
0
LINE
8
WAL-2
10
1157287.196
20
-966343.899
30
0
11
1157287.196
21
-970273.899
31
0
0
LINE
8
WAL-2
10
1157287.196
20
-970273.899
30
0
11
1157587.196
21
-970273.899
31
0
0
LINE
8
WAL-2
10
1157587.196
20
-970273.899
30
0
11
1157587.196
21
-970893.899
31
0
0
LINE
8
WAL-2
10
1157587.196
20
-970893.899
30
0
11
1157152.196
21
-970893.899
31
0
0
LINE
8
WAL
10
1155202.196
20
-972058.899
30
0
11
1157052.196
21
-972058.899
31
0
0
LINE
8
FIN
10
1155227.196
20
-972033.899
30
0
11
1157052.196
21
-972033.899
31
0
0
LINE
8
WAL
10
1155202.196
20
-972058.899
30
0
11
1155202.196
21
-970508.899
31
0
0
LINE
8
FIN
10
1155227.196
20
-972033.899
30
0
11
1155227.196
21
-970533.899
31
0
0
LINE
8
WAL
10
1155002.196
20
-972258.899
30
0
11
1157052.196
21
-972258.899
31
0
0
LINE
8
FIN
10
1154977.196
20
-972283.899
30
0
11
1157027.196
21
-972283.899
31
0
0
LINE
8
WAL
10
1155002.196
20
-972258.899
30
0
11
1155002.196
21
-970508.899
31
0
0
LINE
8
FIN
10
1154977.196
20
-972283.899
30
0
11
1154977.196
21
-970533.899
31
0
0
LINE
8
WAL
10
1157052.196
20
-972258.899
30
0
11
1157052.196
21
-972058.899
31
0
0
LINE
8
FIN
10
1157052.196
20
-972058.899
30
0
11
1157052.196
21
-972033.899
31
0
0
LINE
8
WAL
10
1157052.196
20
-972808.899
30
0
11
1157252.196
21
-972808.899
31
0
0
LINE
8
WAL
10
1157052.196
20
-973408.899
30
0
11
1157252.196
21
-973408.899
31
0
0
LINE
8
FIN
10
1157027.196
20
-973383.899
30
0
11
1157117.196
21
-973383.899
31
0
0
LINE
8
WIN
10
1157252.196
20
-972808.899
30
0
11
1157252.196
21
-972853.899
31
0
0
LINE
8
WIN
10
1157252.196
20
-972853.899
30
0
11
1157233.196
21
-972853.899
31
0
0
LINE
8
WIN
10
1157233.196
20
-972853.899
30
0
11
1157233.196
21
-972833.899
31
0
0
LINE
8
WIN
10
1157233.196
20
-972833.899
30
0
11
1157192.196
21
-972833.899
31
0
0
LINE
8
WIN
10
1157192.196
20
-972833.899
30
0
11
1157192.196
21
-972853.899
31
0
0
LINE
8
WIN
10
1157192.196
20
-972853.899
30
0
11
1157117.196
21
-972853.899
31
0
0
LINE
8
WIN
10
1157117.196
20
-972853.899
30
0
11
1157117.196
21
-972808.899
31
0
0
LINE
8
WIN
10
1157117.196
20
-972808.899
30
0
11
1157252.196
21
-972808.899
31
0
0
LINE
8
WIN
10
1157230.196
20
-973293.899
30
0
11
1157230.196
21
-972921.496
31
0
0
LINE
8
WIN
10
1157213.196
20
-973293.899
30
0
11
1157213.196
21
-972921.496
31
0
0
LINE
8
WIN
10
1157195.196
20
-973293.899
30
0
11
1157195.196
21
-972921.496
31
0
0
LINE
8
WIN
10
1157195.196
20
-972921.496
30
0
11
1157195.196
21
-972841.496
31
0
0
LINE
8
WIN
10
1157195.196
20
-972841.496
30
0
11
1157230.196
21
-972841.496
31
0
0
LINE
8
WIN
10
1157230.196
20
-972841.496
30
0
11
1157230.196
21
-972921.496
31
0
0
LINE
8
WIN
10
1157230.196
20
-972921.496
30
0
11
1157195.196
21
-972921.496
31
0
0
LINE
8
WIN
10
1157195.196
20
-973373.899
30
0
11
1157195.196
21
-973293.899
31
0
0
LINE
8
WIN
10
1157195.196
20
-973293.899
30
0
11
1157230.196
21
-973293.899
31
0
0
LINE
8
WIN
10
1157230.196
20
-973293.899
30
0
11
1157230.196
21
-973373.899
31
0
0
LINE
8
WIN
10
1157230.196
20
-973373.899
30
0
11
1157195.196
21
-973373.899
31
0
0
LINE
8
WIN
10
1157117.196
20
-972853.899
30
0
11
1157117.196
21
-973363.899
31
0
0
LINE
8
WIN
10
1157252.196
20
-973408.899
30
0
11
1157252.196
21
-973363.899
31
0
0
LINE
8
WIN
10
1157252.196
20
-973363.899
30
0
11
1157233.196
21
-973363.899
31
0
0
LINE
8
WIN
10
1157233.196
20
-973363.899
30
0
11
1157233.196
21
-973383.899
31
0
0
LINE
8
WIN
10
1157233.196
20
-973383.899
30
0
11
1157192.196
21
-973383.899
31
0
0
LINE
8
WIN
10
1157192.196
20
-973383.899
30
0
11
1157192.196
21
-973363.899
31
0
0
LINE
8
WIN
10
1157192.196
20
-973363.899
30
0
11
1157117.196
21
-973363.899
31
0
0
LINE
8
WIN
10
1157117.196
20
-973363.899
30
0
11
1157117.196
21
-973408.899
31
0
0
LINE
8
WIN
10
1157117.196
20
-973408.899
30
0
11
1157252.196
21
-973408.899
31
0
0
LINE
8
WIN
10
1157252.196
20
-973363.899
30
0
11
1157252.196
21
-972853.899
31
0
0
LINE
8
WAL-2
10
1150457.196
20
-970533.899
30
0
11
1150457.196
21
-970583.899
31
0
0
LINE
8
WAL-2
10
1150457.196
20
-970583.899
30
0
11
1149502.196
21
-970583.899
31
0
0
LINE
8
WAL-2
10
1149512.196
20
-970593.899
30
0
11
1150467.196
21
-970593.899
31
0
0
LINE
8
WAL-2
10
1150467.196
20
-970593.899
30
0
11
1150467.196
21
-970533.899
31
0
0
LINE
8
WAL-2
10
1150477.196
20
-970533.899
30
0
11
1150477.196
21
-970603.899
31
0
0
LINE
8
WAL-2
10
1150477.196
20
-970603.899
30
0
11
1149522.196
21
-970603.899
31
0
0
LINE
8
WAL-2
10
1152952.196
20
-970544.29
30
0
11
1152952.196
21
-970583.899
31
0
0
LINE
8
WAL-2
10
1152952.196
20
-970583.899
30
0
11
1151997.196
21
-970583.899
31
0
0
LINE
8
WAL-2
10
1151997.196
20
-970583.899
30
0
11
1151997.196
21
-970533.899
31
0
0
LINE
8
WAL-2
10
1151987.196
20
-970533.899
30
0
11
1151987.196
21
-970593.899
31
0
0
LINE
8
WAL-2
10
1151987.196
20
-970593.899
30
0
11
1152962.196
21
-970593.899
31
0
0
LINE
8
WAL-2
10
1152962.196
20
-970593.899
30
0
11
1152962.196
21
-970544.29
31
0
0
LINE
8
WAL-2
10
1152972.196
20
-970544.29
30
0
11
1152972.196
21
-970603.899
31
0
0
LINE
8
WAL-2
10
1152972.196
20
-970603.899
30
0
11
1151977.196
21
-970603.899
31
0
0
LINE
8
WAL-2
10
1151977.196
20
-970603.899
30
0
11
1151977.196
21
-970533.899
31
0
0
LINE
8
WAL-2
10
1157117.196
20
-972843.899
30
0
11
1156967.196
21
-972843.899
31
0
0
LINE
8
WAL-2
10
1156967.196
20
-972843.899
30
0
11
1156967.196
21
-972342.899
31
0
0
LINE
8
WAL-2
10
1156967.196
20
-972342.899
30
0
11
1154917.196
21
-972342.899
31
0
0
LINE
8
WAL-2
10
1154917.196
20
-972342.899
30
0
11
1154917.196
21
-970593.899
31
0
0
LINE
8
WAL-2
10
1154917.196
20
-970593.899
30
0
11
1154442.196
21
-970593.899
31
0
0
LINE
8
WAL-2
10
1154442.196
20
-970593.899
30
0
11
1154442.196
21
-970544.29
31
0
0
LINE
8
WAL-2
10
1154432.196
20
-970544.29
30
0
11
1154432.196
21
-970603.899
31
0
0
LINE
8
WAL-2
10
1154432.196
20
-970603.899
30
0
11
1154907.196
21
-970603.899
31
0
0
LINE
8
WAL-2
10
1154907.196
20
-970603.899
30
0
11
1154907.196
21
-972352.899
31
0
0
LINE
8
WAL-2
10
1154907.196
20
-972352.899
30
0
11
1156957.196
21
-972352.899
31
0
0
LINE
8
WAL-2
10
1156957.196
20
-972352.899
30
0
11
1156957.196
21
-972853.899
31
0
0
LINE
8
WAL-2
10
1156957.196
20
-972853.899
30
0
11
1157117.196
21
-972853.899
31
0
0
LINE
8
WAL-2
10
1157117.196
20
-973383.899
30
0
11
1156977.196
21
-973383.899
31
0
0
LINE
8
WAL-2
10
1156977.196
20
-973383.899
30
0
11
1156977.196
21
-973558.899
31
0
0
LINE
8
WAL-2
10
1156977.196
20
-973558.899
30
0
11
1157052.196
21
-973558.899
31
0
0
LINE
8
WAL-2
10
1157052.196
20
-973568.899
30
0
11
1156967.196
21
-973568.899
31
0
0
LINE
8
WAL-2
10
1156967.196
20
-973568.899
30
0
11
1156967.196
21
-973373.899
31
0
0
LINE
8
WAL-2
10
1156967.196
20
-973373.899
30
0
11
1157117.196
21
-973373.899
31
0
0
LINE
8
WAL-2
10
1157117.196
20
-973363.899
30
0
11
1156957.196
21
-973363.899
31
0
0
LINE
8
WAL-2
10
1156957.196
20
-973363.899
30
0
11
1156957.196
21
-973578.899
31
0
0
LINE
8
WAL-2
10
1156957.196
20
-973578.899
30
0
11
1157052.196
21
-973578.899
31
0
0
LINE
8
기존
10
1157052.196
20
-966258.899
30
0
11
1157552.196
21
-966258.899
31
0
0
LINE
8
기존
10
1157052.196
20
-970858.899
30
0
11
1157502.196
21
-970858.899
31
0
0
LINE
8
기존
10
1157502.196
20
-970858.899
30
0
11
1157502.196
21
-970358.899
31
0
0
LINE
8
기존
10
1157502.196
20
-970358.899
30
0
11
1157052.196
21
-970358.899
31
0
0
LINE
8
기존
10
1157052.196
20
-970358.899
30
0
11
1157052.196
21
-970858.899
31
0
0
LINE
8
기존
10
1148977.196
20
-970858.899
30
0
11
1149427.196
21
-970858.899
31
0
0
LINE
8
기존
10
1149427.196
20
-970858.899
30
0
11
1149427.196
21
-970358.899
31
0
0
LINE
8
기존
10
1149427.196
20
-970358.899
30
0
11
1148977.196
21
-970358.899
31
0
0
LINE
8
기존
10
1148977.196
20
-970358.899
30
0
11
1148977.196
21
-970858.899
31
0
0
LINE
8
WIN
10
1156702.196
20
-970519.29
30
0
11
1156702.196
21
-970319.29
31
0
0
LINE
8
WIN
10
1155802.196
20
-970519.29
30
0
11
1155802.196
21
-970319.29
31
0
0
LINE
8
WIN
10
1155827.196
20
-970544.29
30
0
11
1156677.196
21
-970544.29
31
0
0
LINE
8
WIN
10
1155802.196
20
-970485.79
30
0
11
1155802.196
21
-970385.79
31
0
0
LINE
8
WIN
10
1155855.196
20
-970544.29
30
0
11
1155802.196
21
-970544.29
31
0
0
LINE
8
WIN
10
1155802.196
20
-970544.29
30
0
11
1155802.196
21
-970495.79
31
0
0
LINE
8
WIN
10
1155802.196
20
-970375.79
30
0
11
1155802.196
21
-970319.29
31
0
0
LINE
8
WIN
10
1155855.196
20
-970319.29
30
0
11
1155802.196
21
-970319.29
31
0
0
LINE
8
WIN
10
1155836.196
20
-970470.79
30
0
11
1155855.196
21
-970470.79
31
0
0
LINE
8
WIN
10
1155836.196
20
-970460.79
30
0
11
1155855.196
21
-970460.79
31
0
0
LINE
8
WIN
10
1155834.976
20
-970411.19
30
0
11
1155836.196
21
-970460.79
31
0
0
LINE
8
WIN
10
1155833.436
20
-970361.29
30
0
11
1155834.616
21
-970401.25
31
0
0
LINE
8
WIN
10
1155832.316
20
-970325.29
30
0
11
1155833.076
21
-970351.29
31
0
0
LINE
8
WIN
10
1155836.196
20
-970470.79
30
0
11
1155836.196
21
-970510.79
31
0
0
LINE
8
WIN
10
1155832.316
20
-970325.29
30
0
11
1155855.196
21
-970325.29
31
0
0
LINE
8
WIN
10
1155833.096
20
-970351.29
30
0
11
1155855.196
21
-970351.29
31
0
0
LINE
8
WIN
10
1155833.436
20
-970361.29
30
0
11
1155855.196
21
-970361.29
31
0
0
LINE
8
WIN
10
1155834.636
20
-970401.29
30
0
11
1155855.196
21
-970401.29
31
0
0
LINE
8
WIN
10
1155834.976
20
-970411.23
30
0
11
1155855.196
21
-970411.23
31
0
0
LINE
8
WIN
10
1155802.196
20
-970485.79
30
0
11
1155806.196
21
-970485.79
31
0
0
LINE
8
WIN
10
1155802.196
20
-970495.79
30
0
11
1155806.196
21
-970495.79
31
0
0
LINE
8
WIN
10
1155806.196
20
-970495.79
30
0
11
1155806.196
21
-970485.79
31
0
0
LINE
8
WIN
10
1155806.196
20
-970385.79
30
0
11
1155806.196
21
-970375.79
31
0
0
LINE
8
WIN
10
1155802.196
20
-970375.79
30
0
11
1155806.196
21
-970375.79
31
0
0
LINE
8
WIN
10
1155802.196
20
-970385.79
30
0
11
1155806.196
21
-970385.79
31
0
0
LINE
8
WIN
10
1155855.196
20
-970470.79
30
0
11
1155855.196
21
-970460.79
31
0
0
LINE
8
WIN
10
1155855.196
20
-970361.29
30
0
11
1155855.196
21
-970351.29
31
0
0
LINE
8
WIN
10
1155855.196
20
-970411.29
30
0
11
1155855.196
21
-970401.29
31
0
0
LINE
8
WIN
10
1155847.196
20
-970497.79
30
0
11
1155847.196
21
-970508.79
31
0
0
LINE
8
WIN
10
1155902.696
20
-970388.23
30
0
11
1155847.696
21
-970388.23
31
0
0
LINE
8
WIN
10
1155902.696
20
-970403.23
30
0
11
1155902.696
21
-970388.23
31
0
0
LINE
8
WIN
10
1155902.696
20
-970424.23
30
0
11
1155902.696
21
-970408.23
31
0
0
LINE
8
WIN
10
1155847.696
20
-970424.23
30
0
11
1155902.696
21
-970424.23
31
0
0
LINE
8
WIN
10
1155887.696
20
-970403.23
30
0
11
1155902.696
21
-970403.23
31
0
0
LINE
8
WIN
10
1155887.696
20
-970408.23
30
0
11
1155887.696
21
-970403.23
31
0
0
LINE
8
WIN
10
1155902.696
20
-970408.23
30
0
11
1155887.696
21
-970408.23
31
0
0
LINE
8
WIN
10
1155856.696
20
-970399.23
30
0
11
1155847.696
21
-970399.23
31
0
0
LINE
8
WIN
10
1155856.696
20
-970413.23
30
0
11
1155856.696
21
-970399.23
31
0
0
LINE
8
WIN
10
1155847.696
20
-970413.23
30
0
11
1155856.696
21
-970413.23
31
0
0
LINE
8
WIN
10
1155887.696
20
-970408.23
30
0
11
1155887.696
21
-970403.23
31
0
0
LINE
8
WIN
10
1155847.696
20
-970413.23
30
0
11
1155847.696
21
-970424.23
31
0
0
LINE
8
WIN
10
1155847.696
20
-970388.23
30
0
11
1155847.696
21
-970399.23
31
0
0
LINE
8
WIN
10
1155855.196
20
-970319.29
30
0
11
1155855.196
21
-970325.29
31
0
0
LINE
8
WIN
10
1155855.196
20
-970520.79
30
0
11
1155855.196
21
-970510.79
31
0
0
LINE
8
WIN
10
1155855.196
20
-970544.29
30
0
11
1155855.196
21
-970538.29
31
0
0
LINE
8
WIN
10
1155836.196
20
-970538.29
30
0
11
1155855.196
21
-970538.29
31
0
0
LINE
8
WIN
10
1155836.196
20
-970520.79
30
0
11
1155855.196
21
-970520.79
31
0
0
LINE
8
WIN
10
1155836.196
20
-970510.79
30
0
11
1155855.196
21
-970510.79
31
0
0
LINE
8
WIN
10
1155836.196
20
-970520.79
30
0
11
1155836.196
21
-970538.29
31
0
0
LINE
8
WIN
10
1155855.196
20
-970520.79
30
0
11
1155855.196
21
-970510.79
31
0
0
LINE
8
WIN
10
1155902.196
20
-970497.79
30
0
11
1155847.196
21
-970497.79
31
0
0
LINE
8
WIN
10
1155902.196
20
-970512.79
30
0
11
1155902.196
21
-970497.79
31
0
0
LINE
8
WIN
10
1155902.196
20
-970533.79
30
0
11
1155902.196
21
-970517.79
31
0
0
LINE
8
WIN
10
1155847.196
20
-970533.79
30
0
11
1155902.196
21
-970533.79
31
0
0
LINE
8
WIN
10
1155847.196
20
-970522.79
30
0
11
1155847.196
21
-970533.79
31
0
0
LINE
8
WIN
10
1155887.196
20
-970512.79
30
0
11
1155902.196
21
-970512.79
31
0
0
LINE
8
WIN
10
1155887.196
20
-970517.79
30
0
11
1155887.196
21
-970512.79
31
0
0
LINE
8
WIN
10
1155902.196
20
-970517.79
30
0
11
1155887.196
21
-970517.79
31
0
0
LINE
8
WIN
10
1155856.196
20
-970508.79
30
0
11
1155847.196
21
-970508.79
31
0
0
LINE
8
WIN
10
1155856.196
20
-970522.79
30
0
11
1155856.196
21
-970508.79
31
0
0
LINE
8
WIN
10
1155847.196
20
-970522.79
30
0
11
1155856.196
21
-970522.79
31
0
0
LINE
8
WIN
10
1155887.196
20
-970512.79
30
0
11
1155887.196
21
-970517.79
31
0
0
LINE
8
WIN
10
1156702.196
20
-970544.29
30
0
11
1156702.196
21
-970495.79
31
0
0
LINE
8
WIN
10
1156702.196
20
-970485.79
30
0
11
1156702.196
21
-970385.79
31
0
0
LINE
8
WIN
10
1156702.196
20
-970375.79
30
0
11
1156702.196
21
-970319.29
31
0
0
LINE
8
WIN
10
1156649.196
20
-970544.29
30
0
11
1156702.196
21
-970544.29
31
0
0
LINE
8
WIN
10
1156649.196
20
-970319.29
30
0
11
1156702.196
21
-970319.29
31
0
0
LINE
8
WIN
10
1156702.196
20
-970485.79
30
0
11
1156698.196
21
-970485.79
31
0
0
LINE
8
WIN
10
1156702.196
20
-970495.79
30
0
11
1156698.196
21
-970495.79
31
0
0
LINE
8
WIN
10
1156698.196
20
-970495.79
30
0
11
1156698.196
21
-970485.79
31
0
0
LINE
8
WIN
10
1156698.196
20
-970385.79
30
0
11
1156698.196
21
-970375.79
31
0
0
LINE
8
WIN
10
1156702.196
20
-970385.79
30
0
11
1156698.196
21
-970385.79
31
0
0
LINE
8
WIN
10
1156671.776
20
-970324.79
30
0
11
1156650.196
21
-970324.79
31
0
0
LINE
8
WIN
10
1156670.816
20
-970361.29
30
0
11
1156648.196
21
-970361.29
31
0
0
LINE
8
WIN
10
1156669.776
20
-970401.29
30
0
11
1156648.196
21
-970401.29
31
0
0
LINE
8
WIN
10
1156668.196
20
-970470.79
30
0
11
1156648.196
21
-970470.79
31
0
0
LINE
8
WIN
10
1156668.196
20
-970510.79
30
0
11
1156648.196
21
-970510.79
31
0
0
LINE
8
WIN
10
1156668.196
20
-970538.79
30
0
11
1156649.196
21
-970538.79
31
0
0
LINE
8
WIN
10
1156668.196
20
-970510.79
30
0
11
1156668.196
21
-970470.79
31
0
0
LINE
8
WIN
10
1156668.196
20
-970538.79
30
0
11
1156668.196
21
-970520.79
31
0
0
LINE
8
WIN
10
1156668.196
20
-970520.79
30
0
11
1156648.196
21
-970520.79
31
0
0
LINE
8
WIN
10
1156671.096
20
-970351.29
30
0
11
1156648.196
21
-970351.29
31
0
0
LINE
8
WIN
10
1156669.496
20
-970411.29
30
0
11
1156648.196
21
-970411.29
31
0
0
LINE
8
WIN
10
1156668.216
20
-970460.79
30
0
11
1156648.196
21
-970460.79
31
0
0
LINE
8
WIN
10
1156668.216
20
-970460.79
30
0
11
1156669.496
21
-970411.29
31
0
0
LINE
8
WIN
10
1156669.776
20
-970401.29
30
0
11
1156670.816
21
-970361.29
31
0
0
LINE
8
WIN
10
1156671.096
20
-970351.29
30
0
11
1156671.776
21
-970324.79
31
0
0
LINE
8
WIN
10
1156650.196
20
-970319.29
30
0
11
1155855.196
21
-970319.29
31
0
0
LINE
8
WIN
10
1156648.196
20
-970411.23
30
0
11
1156648.196
21
-970401.29
31
0
0
LINE
8
WIN
10
1156648.196
20
-970520.79
30
0
11
1156648.196
21
-970510.79
31
0
0
LINE
8
WIN
10
1156648.196
20
-970470.73
30
0
11
1156648.196
21
-970460.79
31
0
0
LINE
8
WIN
10
1156648.196
20
-970361.23
30
0
11
1156648.196
21
-970351.29
31
0
0
LINE
8
WIN
10
1156224.196
20
-970388.23
30
0
11
1156279.196
21
-970383.23
31
0
0
LINE
8
WIN
10
1156224.196
20
-970403.23
30
0
11
1156224.196
21
-970388.23
31
0
0
LINE
8
WIN
10
1156224.196
20
-970424.23
30
0
11
1156224.196
21
-970408.23
31
0
0
LINE
8
WIN
10
1156279.196
20
-970424.23
30
0
11
1156224.196
21
-970424.23
31
0
0
LINE
8
WIN
10
1156239.196
20
-970403.23
30
0
11
1156224.196
21
-970403.23
31
0
0
LINE
8
WIN
10
1156239.196
20
-970408.23
30
0
11
1156239.196
21
-970403.23
31
0
0
LINE
8
WIN
10
1156224.196
20
-970408.23
30
0
11
1156239.196
21
-970408.23
31
0
0
LINE
8
WIN
10
1156279.196
20
-970424.23
30
0
11
1156279.196
21
-970383.23
31
0
0
LINE
8
WIN
10
1156224.696
20
-970497.79
30
0
11
1156279.696
21
-970492.79
31
0
0
LINE
8
WIN
10
1156224.696
20
-970512.79
30
0
11
1156224.696
21
-970497.79
31
0
0
LINE
8
WIN
10
1156224.696
20
-970533.79
30
0
11
1156224.696
21
-970517.79
31
0
0
LINE
8
WIN
10
1156279.696
20
-970533.79
30
0
11
1156224.696
21
-970533.79
31
0
0
LINE
8
WIN
10
1156239.696
20
-970512.79
30
0
11
1156224.696
21
-970512.79
31
0
0
LINE
8
WIN
10
1156239.696
20
-970517.79
30
0
11
1156239.696
21
-970512.79
31
0
0
LINE
8
WIN
10
1156224.696
20
-970517.79
30
0
11
1156239.696
21
-970517.79
31
0
0
LINE
8
WIN
10
1156279.696
20
-970533.79
30
0
11
1156279.696
21
-970492.79
31
0
0
LINE
8
WIN
10
1156279.696
20
-970447.79
30
0
11
1156224.696
21
-970447.79
31
0
0
LINE
8
WIN
10
1156279.696
20
-970462.79
30
0
11
1156279.696
21
-970447.79
31
0
0
LINE
8
WIN
10
1156279.696
20
-970483.79
30
0
11
1156279.696
21
-970467.79
31
0
0
LINE
8
WIN
10
1156224.696
20
-970488.79
30
0
11
1156279.696
21
-970483.79
31
0
0
LINE
8
WIN
10
1156264.696
20
-970462.79
30
0
11
1156279.696
21
-970462.79
31
0
0
LINE
8
WIN
10
1156264.696
20
-970467.79
30
0
11
1156264.696
21
-970462.79
31
0
0
LINE
8
WIN
10
1156279.696
20
-970467.79
30
0
11
1156264.696
21
-970467.79
31
0
0
LINE
8
WIN
10
1156224.696
20
-970488.79
30
0
11
1156224.696
21
-970447.79
31
0
0
LINE
8
WIN
10
1156601.196
20
-970447.79
30
0
11
1156656.196
21
-970447.79
31
0
0
LINE
8
WIN
10
1156601.196
20
-970462.79
30
0
11
1156601.196
21
-970447.79
31
0
0
LINE
8
WIN
10
1156601.196
20
-970483.79
30
0
11
1156601.196
21
-970467.79
31
0
0
LINE
8
WIN
10
1156656.196
20
-970483.79
30
0
11
1156601.196
21
-970483.79
31
0
0
LINE
8
WIN
10
1156656.196
20
-970472.79
30
0
11
1156656.196
21
-970483.79
31
0
0
LINE
8
WIN
10
1156656.196
20
-970447.79
30
0
11
1156656.196
21
-970458.79
31
0
0
LINE
8
WIN
10
1156616.196
20
-970462.79
30
0
11
1156601.196
21
-970462.79
31
0
0
LINE
8
WIN
10
1156616.196
20
-970467.79
30
0
11
1156616.196
21
-970462.79
31
0
0
LINE
8
WIN
10
1156601.196
20
-970467.79
30
0
11
1156616.196
21
-970467.79
31
0
0
LINE
8
WIN
10
1156647.196
20
-970458.79
30
0
11
1156656.196
21
-970458.79
31
0
0
LINE
8
WIN
10
1156647.196
20
-970472.79
30
0
11
1156647.196
21
-970458.79
31
0
0
LINE
8
WIN
10
1156656.196
20
-970472.79
30
0
11
1156647.196
21
-970472.79
31
0
0
LINE
8
WIN
10
1156616.196
20
-970467.79
30
0
11
1156279.696
21
-970467.79
31
0
0
LINE
8
WIN
10
1156616.196
20
-970462.79
30
0
11
1156616.196
21
-970467.79
31
0
0
LINE
8
WIN
10
1156279.696
20
-970462.79
30
0
11
1156616.196
21
-970462.79
31
0
0
LINE
8
WIN
10
1156279.696
20
-970483.79
30
0
11
1156601.196
21
-970483.79
31
0
0
LINE
8
WIN
10
1156601.196
20
-970447.79
30
0
11
1156279.696
21
-970447.79
31
0
0
LINE
8
WIN
10
1156279.196
20
-970338.29
30
0
11
1156224.196
21
-970338.29
31
0
0
LINE
8
WIN
10
1156279.196
20
-970353.29
30
0
11
1156279.196
21
-970338.29
31
0
0
LINE
8
WIN
10
1156279.196
20
-970374.29
30
0
11
1156279.196
21
-970358.29
31
0
0
LINE
8
WIN
10
1156224.196
20
-970379.29
30
0
11
1156279.196
21
-970374.29
31
0
0
LINE
8
WIN
10
1156264.196
20
-970353.29
30
0
11
1156279.196
21
-970353.29
31
0
0
LINE
8
WIN
10
1156264.196
20
-970358.29
30
0
11
1156264.196
21
-970353.29
31
0
0
LINE
8
WIN
10
1156279.196
20
-970358.29
30
0
11
1156264.196
21
-970358.29
31
0
0
LINE
8
WIN
10
1156224.196
20
-970379.29
30
0
11
1156224.196
21
-970338.29
31
0
0
LINE
8
WIN
10
1156601.196
20
-970338.29
30
0
11
1156656.196
21
-970338.29
31
0
0
LINE
8
WIN
10
1156601.196
20
-970353.29
30
0
11
1156601.196
21
-970338.29
31
0
0
LINE
8
WIN
10
1156601.196
20
-970374.29
30
0
11
1156601.196
21
-970358.29
31
0
0
LINE
8
WIN
10
1156656.196
20
-970374.29
30
0
11
1156601.196
21
-970374.29
31
0
0
LINE
8
WIN
10
1156656.196
20
-970363.29
30
0
11
1156656.196
21
-970374.29
31
0
0
LINE
8
WIN
10
1156656.196
20
-970338.29
30
0
11
1156656.196
21
-970349.29
31
0
0
LINE
8
WIN
10
1156616.196
20
-970353.29
30
0
11
1156601.196
21
-970353.29
31
0
0
LINE
8
WIN
10
1156616.196
20
-970358.29
30
0
11
1156616.196
21
-970353.29
31
0
0
LINE
8
WIN
10
1156601.196
20
-970358.29
30
0
11
1156616.196
21
-970358.29
31
0
0
LINE
8
WIN
10
1156647.196
20
-970349.29
30
0
11
1156656.196
21
-970349.29
31
0
0
LINE
8
WIN
10
1156647.196
20
-970363.29
30
0
11
1156647.196
21
-970349.29
31
0
0
LINE
8
WIN
10
1156656.196
20
-970363.29
30
0
11
1156647.196
21
-970363.29
31
0
0
LINE
8
WIN
10
1156616.196
20
-970358.29
30
0
11
1156279.196
21
-970358.29
31
0
0
LINE
8
WIN
10
1156616.196
20
-970353.29
30
0
11
1156616.196
21
-970358.29
31
0
0
LINE
8
WIN
10
1156279.196
20
-970353.29
30
0
11
1156616.196
21
-970353.29
31
0
0
LINE
8
WIN
10
1156279.196
20
-970374.29
30
0
11
1156601.196
21
-970374.29
31
0
0
LINE
8
WIN
10
1156601.196
20
-970338.29
30
0
11
1156279.196
21
-970338.29
31
0
0
LINE
8
WIN
10
1155887.196
20
-970517.79
30
0
11
1156224.696
21
-970517.79
31
0
0
LINE
8
WIN
10
1156224.696
20
-970512.79
30
0
11
1155887.196
21
-970512.79
31
0
0
LINE
8
WIN
10
1156224.196
20
-970408.23
30
0
11
1155887.696
21
-970408.23
31
0
0
LINE
8
WIN
10
1155887.696
20
-970403.23
30
0
11
1156224.196
21
-970403.23
31
0
0
LINE
8
WIN
10
1156224.696
20
-970533.79
30
0
11
1155902.196
21
-970533.79
31
0
0
LINE
8
WIN
10
1155902.196
20
-970497.79
30
0
11
1156224.696
21
-970497.79
31
0
0
LINE
8
WIN
10
1156224.196
20
-970424.23
30
0
11
1155902.696
21
-970424.23
31
0
0
LINE
8
WIN
10
1155902.696
20
-970388.23
30
0
11
1156224.196
21
-970388.23
31
0
0
LINE
8
WIN
10
1156224.696
20
-970470.79
30
0
11
1155855.196
21
-970470.79
31
0
0
LINE
8
WIN
10
1156224.696
20
-970460.79
30
0
11
1155855.196
21
-970460.79
31
0
0
LINE
8
WIN
10
1156224.196
20
-970361.29
30
0
11
1155855.196
21
-970361.29
31
0
0
LINE
8
WIN
10
1156224.196
20
-970351.29
30
0
11
1155855.196
21
-970351.29
31
0
0
LINE
8
WIN
10
1156279.696
20
-970520.79
30
0
11
1156648.196
21
-970520.79
31
0
0
LINE
8
WIN
10
1156279.696
20
-970510.79
30
0
11
1156648.196
21
-970510.79
31
0
0
LINE
8
WIN
10
1156279.196
20
-970411.23
30
0
11
1156648.196
21
-970411.23
31
0
0
LINE
8
WIN
10
1156279.196
20
-970401.29
30
0
11
1156648.196
21
-970401.29
31
0
0
LINE
8
WIN
10
1156649.196
20
-970544.29
30
0
11
1156649.196
21
-970538.79
31
0
0
LINE
8
WIN
10
1156650.196
20
-970324.79
30
0
11
1156650.196
21
-970319.29
31
0
0
LINE
8
WIN
10
1156702.196
20
-970375.79
30
0
11
1156698.196
21
-970375.79
31
0
0
LINE
8
WIN
10
1156252.696
20
-970234.252
30
0
11
1156252.696
21
-970615.013
31
0
0
LINE
8
WIN
10
1154452.196
20
-970519.29
30
0
11
1154452.196
21
-970319.29
31
0
0
LINE
8
WIN
10
1152952.196
20
-970519.29
30
0
11
1152952.196
21
-970319.29
31
0
0
LINE
8
WIN
10
1152977.196
20
-970544.29
30
0
11
1154427.196
21
-970544.29
31
0
0
LINE
8
WIN
10
1152952.196
20
-970485.79
30
0
11
1152952.196
21
-970385.79
31
0
0
LINE
8
WIN
10
1153005.196
20
-970544.29
30
0
11
1152952.196
21
-970544.29
31
0
0
LINE
8
WIN
10
1152952.196
20
-970544.29
30
0
11
1152952.196
21
-970495.79
31
0
0
LINE
8
WIN
10
1152952.196
20
-970375.79
30
0
11
1152952.196
21
-970319.29
31
0
0
LINE
8
WIN
10
1153005.196
20
-970319.29
30
0
11
1152952.196
21
-970319.29
31
0
0
LINE
8
WIN
10
1152986.196
20
-970470.79
30
0
11
1153005.196
21
-970470.79
31
0
0
LINE
8
WIN
10
1152986.196
20
-970460.79
30
0
11
1153005.196
21
-970460.79
31
0
0
LINE
8
WIN
10
1152984.976
20
-970411.19
30
0
11
1152986.196
21
-970460.79
31
0
0
LINE
8
WIN
10
1152983.436
20
-970361.29
30
0
11
1152984.616
21
-970401.25
31
0
0
LINE
8
WIN
10
1152982.316
20
-970325.29
30
0
11
1152983.076
21
-970351.29
31
0
0
LINE
8
WIN
10
1152986.196
20
-970470.79
30
0
11
1152986.196
21
-970510.79
31
0
0
LINE
8
WIN
10
1152982.316
20
-970325.29
30
0
11
1153005.196
21
-970325.29
31
0
0
LINE
8
WIN
10
1152983.096
20
-970351.29
30
0
11
1153005.196
21
-970351.29
31
0
0
LINE
8
WIN
10
1152983.436
20
-970361.29
30
0
11
1153005.196
21
-970361.29
31
0
0
LINE
8
WIN
10
1152984.636
20
-970401.29
30
0
11
1153005.196
21
-970401.29
31
0
0
LINE
8
WIN
10
1152984.976
20
-970411.23
30
0
11
1153005.196
21
-970411.23
31
0
0
LINE
8
WIN
10
1152952.196
20
-970485.79
30
0
11
1152956.196
21
-970485.79
31
0
0
LINE
8
WIN
10
1152952.196
20
-970495.79
30
0
11
1152956.196
21
-970495.79
31
0
0
LINE
8
WIN
10
1152956.196
20
-970495.79
30
0
11
1152956.196
21
-970485.79
31
0
0
LINE
8
WIN
10
1152956.196
20
-970385.79
30
0
11
1152956.196
21
-970375.79
31
0
0
LINE
8
WIN
10
1152952.196
20
-970375.79
30
0
11
1152956.196
21
-970375.79
31
0
0
LINE
8
WIN
10
1152952.196
20
-970385.79
30
0
11
1152956.196
21
-970385.79
31
0
0
LINE
8
WIN
10
1153005.196
20
-970470.79
30
0
11
1153005.196
21
-970460.79
31
0
0
LINE
8
WIN
10
1153005.196
20
-970361.29
30
0
11
1153005.196
21
-970351.29
31
0
0
LINE
8
WIN
10
1153005.196
20
-970411.29
30
0
11
1153005.196
21
-970401.29
31
0
0
LINE
8
WIN
10
1152997.196
20
-970497.79
30
0
11
1152997.196
21
-970508.79
31
0
0
LINE
8
WIN
10
1153052.696
20
-970388.23
30
0
11
1152997.696
21
-970388.23
31
0
0
LINE
8
WIN
10
1153052.696
20
-970403.23
30
0
11
1153052.696
21
-970388.23
31
0
0
LINE
8
WIN
10
1153052.696
20
-970424.23
30
0
11
1153052.696
21
-970408.23
31
0
0
LINE
8
WIN
10
1152997.696
20
-970424.23
30
0
11
1153052.696
21
-970424.23
31
0
0
LINE
8
WIN
10
1153037.696
20
-970403.23
30
0
11
1153052.696
21
-970403.23
31
0
0
LINE
8
WIN
10
1153037.696
20
-970408.23
30
0
11
1153037.696
21
-970403.23
31
0
0
LINE
8
WIN
10
1153052.696
20
-970408.23
30
0
11
1153037.696
21
-970408.23
31
0
0
LINE
8
WIN
10
1153006.696
20
-970399.23
30
0
11
1152997.696
21
-970399.23
31
0
0
LINE
8
WIN
10
1153006.696
20
-970413.23
30
0
11
1153006.696
21
-970399.23
31
0
0
LINE
8
WIN
10
1152997.696
20
-970413.23
30
0
11
1153006.696
21
-970413.23
31
0
0
LINE
8
WIN
10
1153037.696
20
-970408.23
30
0
11
1153037.696
21
-970403.23
31
0
0
LINE
8
WIN
10
1152997.696
20
-970413.23
30
0
11
1152997.696
21
-970424.23
31
0
0
LINE
8
WIN
10
1152997.696
20
-970388.23
30
0
11
1152997.696
21
-970399.23
31
0
0
LINE
8
WIN
10
1153005.196
20
-970319.29
30
0
11
1153005.196
21
-970325.29
31
0
0
LINE
8
WIN
10
1153005.196
20
-970520.79
30
0
11
1153005.196
21
-970510.79
31
0
0
LINE
8
WIN
10
1153005.196
20
-970544.29
30
0
11
1153005.196
21
-970538.29
31
0
0
LINE
8
WIN
10
1152986.196
20
-970538.29
30
0
11
1153005.196
21
-970538.29
31
0
0
LINE
8
WIN
10
1152986.196
20
-970520.79
30
0
11
1153005.196
21
-970520.79
31
0
0
LINE
8
WIN
10
1152986.196
20
-970510.79
30
0
11
1153005.196
21
-970510.79
31
0
0
LINE
8
WIN
10
1152986.196
20
-970520.79
30
0
11
1152986.196
21
-970538.29
31
0
0
LINE
8
WIN
10
1153005.196
20
-970520.79
30
0
11
1153005.196
21
-970510.79
31
0
0
LINE
8
WIN
10
1153052.196
20
-970497.79
30
0
11
1152997.196
21
-970497.79
31
0
0
LINE
8
WIN
10
1153052.196
20
-970512.79
30
0
11
1153052.196
21
-970497.79
31
0
0
LINE
8
WIN
10
1153052.196
20
-970533.79
30
0
11
1153052.196
21
-970517.79
31
0
0
LINE
8
WIN
10
1152997.196
20
-970533.79
30
0
11
1153052.196
21
-970533.79
31
0
0
LINE
8
WIN
10
1152997.196
20
-970522.79
30
0
11
1152997.196
21
-970533.79
31
0
0
LINE
8
WIN
10
1153037.196
20
-970512.79
30
0
11
1153052.196
21
-970512.79
31
0
0
LINE
8
WIN
10
1153037.196
20
-970517.79
30
0
11
1153037.196
21
-970512.79
31
0
0
LINE
8
WIN
10
1153052.196
20
-970517.79
30
0
11
1153037.196
21
-970517.79
31
0
0
LINE
8
WIN
10
1153006.196
20
-970508.79
30
0
11
1152997.196
21
-970508.79
31
0
0
LINE
8
WIN
10
1153006.196
20
-970522.79
30
0
11
1153006.196
21
-970508.79
31
0
0
LINE
8
WIN
10
1152997.196
20
-970522.79
30
0
11
1153006.196
21
-970522.79
31
0
0
LINE
8
WIN
10
1153037.196
20
-970512.79
30
0
11
1153037.196
21
-970517.79
31
0
0
LINE
8
WIN
10
1154452.196
20
-970544.29
30
0
11
1154452.196
21
-970495.79
31
0
0
LINE
8
WIN
10
1154452.196
20
-970485.79
30
0
11
1154452.196
21
-970385.79
31
0
0
LINE
8
WIN
10
1154452.196
20
-970375.79
30
0
11
1154452.196
21
-970319.29
31
0
0
LINE
8
WIN
10
1154399.196
20
-970544.29
30
0
11
1154452.196
21
-970544.29
31
0
0
LINE
8
WIN
10
1154399.196
20
-970319.29
30
0
11
1154452.196
21
-970319.29
31
0
0
LINE
8
WIN
10
1154452.196
20
-970485.79
30
0
11
1154448.196
21
-970485.79
31
0
0
LINE
8
WIN
10
1154452.196
20
-970495.79
30
0
11
1154448.196
21
-970495.79
31
0
0
LINE
8
WIN
10
1154448.196
20
-970495.79
30
0
11
1154448.196
21
-970485.79
31
0
0
LINE
8
WIN
10
1154448.196
20
-970385.79
30
0
11
1154448.196
21
-970375.79
31
0
0
LINE
8
WIN
10
1154452.196
20
-970385.79
30
0
11
1154448.196
21
-970385.79
31
0
0
LINE
8
WIN
10
1154421.776
20
-970324.79
30
0
11
1154400.196
21
-970324.79
31
0
0
LINE
8
WIN
10
1154420.816
20
-970361.29
30
0
11
1154398.196
21
-970361.29
31
0
0
LINE
8
WIN
10
1154419.776
20
-970401.29
30
0
11
1154398.196
21
-970401.29
31
0
0
LINE
8
WIN
10
1154418.196
20
-970470.79
30
0
11
1154398.196
21
-970470.79
31
0
0
LINE
8
WIN
10
1154418.196
20
-970510.79
30
0
11
1154398.196
21
-970510.79
31
0
0
LINE
8
WIN
10
1154418.196
20
-970538.79
30
0
11
1154399.196
21
-970538.79
31
0
0
LINE
8
WIN
10
1154418.196
20
-970510.79
30
0
11
1154418.196
21
-970470.79
31
0
0
LINE
8
WIN
10
1154418.196
20
-970538.79
30
0
11
1154418.196
21
-970520.79
31
0
0
LINE
8
WIN
10
1154418.196
20
-970520.79
30
0
11
1154398.196
21
-970520.79
31
0
0
LINE
8
WIN
10
1154421.096
20
-970351.29
30
0
11
1154398.196
21
-970351.29
31
0
0
LINE
8
WIN
10
1154419.496
20
-970411.29
30
0
11
1154398.196
21
-970411.29
31
0
0
LINE
8
WIN
10
1154418.216
20
-970460.79
30
0
11
1154398.196
21
-970460.79
31
0
0
LINE
8
WIN
10
1154418.216
20
-970460.79
30
0
11
1154419.496
21
-970411.29
31
0
0
LINE
8
WIN
10
1154419.776
20
-970401.29
30
0
11
1154420.816
21
-970361.29
31
0
0
LINE
8
WIN
10
1154421.096
20
-970351.29
30
0
11
1154421.776
21
-970324.79
31
0
0
LINE
8
WIN
10
1154400.196
20
-970319.29
30
0
11
1153005.196
21
-970319.29
31
0
0
LINE
8
WIN
10
1154398.196
20
-970411.23
30
0
11
1154398.196
21
-970401.29
31
0
0
LINE
8
WIN
10
1154398.196
20
-970520.79
30
0
11
1154398.196
21
-970510.79
31
0
0
LINE
8
WIN
10
1154398.196
20
-970470.73
30
0
11
1154398.196
21
-970460.79
31
0
0
LINE
8
WIN
10
1154398.196
20
-970361.23
30
0
11
1154398.196
21
-970351.29
31
0
0
LINE
8
WIN
10
1153674.196
20
-970388.23
30
0
11
1153729.196
21
-970383.23
31
0
0
LINE
8
WIN
10
1153674.196
20
-970403.23
30
0
11
1153674.196
21
-970388.23
31
0
0
LINE
8
WIN
10
1153674.196
20
-970424.23
30
0
11
1153674.196
21
-970408.23
31
0
0
LINE
8
WIN
10
1153729.196
20
-970424.23
30
0
11
1153674.196
21
-970424.23
31
0
0
LINE
8
WIN
10
1153689.196
20
-970403.23
30
0
11
1153674.196
21
-970403.23
31
0
0
LINE
8
WIN
10
1153689.196
20
-970408.23
30
0
11
1153689.196
21
-970403.23
31
0
0
LINE
8
WIN
10
1153674.196
20
-970408.23
30
0
11
1153689.196
21
-970408.23
31
0
0
LINE
8
WIN
10
1153729.196
20
-970424.23
30
0
11
1153729.196
21
-970383.23
31
0
0
LINE
8
WIN
10
1153674.696
20
-970497.79
30
0
11
1153729.696
21
-970492.79
31
0
0
LINE
8
WIN
10
1153674.696
20
-970512.79
30
0
11
1153674.696
21
-970497.79
31
0
0
LINE
8
WIN
10
1153674.696
20
-970533.79
30
0
11
1153674.696
21
-970517.79
31
0
0
LINE
8
WIN
10
1153729.696
20
-970533.79
30
0
11
1153674.696
21
-970533.79
31
0
0
LINE
8
WIN
10
1153689.696
20
-970512.79
30
0
11
1153674.696
21
-970512.79
31
0
0
LINE
8
WIN
10
1153689.696
20
-970517.79
30
0
11
1153689.696
21
-970512.79
31
0
0
LINE
8
WIN
10
1153674.696
20
-970517.79
30
0
11
1153689.696
21
-970517.79
31
0
0
LINE
8
WIN
10
1153729.696
20
-970533.79
30
0
11
1153729.696
21
-970492.79
31
0
0
LINE
8
WIN
10
1153729.696
20
-970447.79
30
0
11
1153674.696
21
-970447.79
31
0
0
LINE
8
WIN
10
1153729.696
20
-970462.79
30
0
11
1153729.696
21
-970447.79
31
0
0
LINE
8
WIN
10
1153729.696
20
-970483.79
30
0
11
1153729.696
21
-970467.79
31
0
0
LINE
8
WIN
10
1153674.696
20
-970488.79
30
0
11
1153729.696
21
-970483.79
31
0
0
LINE
8
WIN
10
1153714.696
20
-970462.79
30
0
11
1153729.696
21
-970462.79
31
0
0
LINE
8
WIN
10
1153714.696
20
-970467.79
30
0
11
1153714.696
21
-970462.79
31
0
0
LINE
8
WIN
10
1153729.696
20
-970467.79
30
0
11
1153714.696
21
-970467.79
31
0
0
LINE
8
WIN
10
1153674.696
20
-970488.79
30
0
11
1153674.696
21
-970447.79
31
0
0
LINE
8
WIN
10
1154351.196
20
-970447.79
30
0
11
1154406.196
21
-970447.79
31
0
0
LINE
8
WIN
10
1154351.196
20
-970462.79
30
0
11
1154351.196
21
-970447.79
31
0
0
LINE
8
WIN
10
1154351.196
20
-970483.79
30
0
11
1154351.196
21
-970467.79
31
0
0
LINE
8
WIN
10
1154406.196
20
-970483.79
30
0
11
1154351.196
21
-970483.79
31
0
0
LINE
8
WIN
10
1154406.196
20
-970472.79
30
0
11
1154406.196
21
-970483.79
31
0
0
LINE
8
WIN
10
1154406.196
20
-970447.79
30
0
11
1154406.196
21
-970458.79
31
0
0
LINE
8
WIN
10
1154366.196
20
-970462.79
30
0
11
1154351.196
21
-970462.79
31
0
0
LINE
8
WIN
10
1154366.196
20
-970467.79
30
0
11
1154366.196
21
-970462.79
31
0
0
INSERT
2
FIXTURE-OPENING
8
0
10
1151977.196
20
-970508.899
30
0
41
1
42
1
43
1
50
0
0
TEXT
8
TEXT2
10
1151549.904
20
-972818.666
30
0
40
300
1
영양상담/
0
TEXT
8
TEXT2
10
1151549.87
20
-973418.666
30
0
40
300
1
영양관리실
0
TEXT
8
TEXT2
10
1158512.78
20
-972023.406
30
0
40
300
1
청소용수전
0
ENDBLK
0
BLOCK
2
UNUSED-EQUIP
8
0
70
0
10
0
20
0
30
0
0
LINE
8
급식기구
10
1148123.062
20
-974769.522
30
0
11
1148123.062
21
-974269.522
31
0
0
LINE
8
급식기구
10
1148124.062
20
-974769.522
30
0
11
1148124.062
21
-974269.522
31
0
0
LINE
8
급식기구
10
1148125.062
20
-974769.522
30
0
11
1148125.062
21
-974269.522
31
0
0
LINE
8
급식기구
10
1148126.062
20
-974769.522
30
0
11
1148126.062
21
-974269.522
31
0
0
LINE
8
급식기구
10
1148127.062
20
-974769.522
30
0
11
1148127.062
21
-974269.522
31
0
0
LINE
8
급식기구
10
1148128.062
20
-974769.522
30
0
11
1148128.062
21
-974269.522
31
0
0
LINE
8
급식기구
10
1148129.062
20
-974769.522
30
0
11
1148129.062
21
-974269.522
31
0
0
LINE
8
급식기구
10
1148130.062
20
-974769.522
30
0
11
1148130.062
21
-974269.522
31
0
0
LINE
8
급식기구
10
1148131.062
20
-974769.522
30
0
11
1148131.062
21
-974269.522
31
0
0
LINE
8
급식기구
10
1148132.062
20
-974769.522
30
0
11
1148132.062
21
-974269.522
31
0
0
LINE
8
급식기구
10
1148133.062
20
-974769.522
30
0
11
1148133.062
21
-974269.522
31
0
0
LINE
8
급식기구
10
1148134.062
20
-974769.522
30
0
11
1148134.062
21
-974269.522
31
0
0
LINE
8
급식기구
10
1148135.062
20
-974769.522
30
0
11
1148135.062
21
-974269.522
31
0
0
LINE
8
급식기구
10
1148136.062
20
-974769.522
30
0
11
1148136.062
21
-974269.522
31
0
0
LINE
8
급식기구
10
1148137.062
20
-974769.522
30
0
11
1148137.062
21
-974269.522
31
0
0
LINE
8
급식기구
10
1148138.062
20
-974769.522
30
0
11
1148138.062
21
-974269.522
31
0
0
LINE
8
급식기구
10
1148139.062
20
-974769.522
30
0
11
1148139.062
21
-974269.522
31
0
0
LINE
8
급식기구
10
1148140.062
20
-974769.522
30
0
11
1148140.062
21
-974269.522
31
0
0
LINE
8
급식기구
10
1148141.062
20
-974769.522
30
0
11
1148141.062
21
-974269.522
31
0
0
LINE
8
급식기구
10
1148142.062
20
-974769.522
30
0
11
1148142.062
21
-974269.522
31
0
0
LINE
8
급식기구
10
1148143.062
20
-974769.522
30
0
11
1148143.062
21
-974269.522
31
0
0
LINE
8
급식기구
10
1148144.062
20
-974769.522
30
0
11
1148144.062
21
-974269.522
31
0
0
LINE
8
급식기구
10
1148145.062
20
-974769.522
30
0
11
1148145.062
21
-974269.522
31
0
0
LINE
8
급식기구
10
1148146.062
20
-974769.522
30
0
11
1148146.062
21
-974269.522
31
0
0
LINE
8
급식기구
10
1148147.062
20
-974769.522
30
0
11
1148147.062
21
-974269.522
31
0
0
LINE
8
급식기구
10
1148148.062
20
-974769.522
30
0
11
1148148.062
21
-974269.522
31
0
0
LINE
8
급식기구
10
1148149.062
20
-974769.522
30
0
11
1148149.062
21
-974269.522
31
0
0
LINE
8
급식기구
10
1148150.062
20
-974769.522
30
0
11
1148150.062
21
-974269.522
31
0
0
LINE
8
급식기구
10
1148151.062
20
-974769.522
30
0
11
1148151.062
21
-974269.522
31
0
0
LINE
8
급식기구
10
1148152.062
20
-974769.522
30
0
11
1148152.062
21
-974269.522
31
0
0
LINE
8
급식기구
10
1148153.062
20
-974769.522
30
0
11
1148153.062
21
-974269.522
31
0
0
LINE
8
급식기구
10
1148154.062
20
-974769.522
30
0
11
1148154.062
21
-974269.522
31
0
0
LINE
8
급식기구
10
1148155.062
20
-974769.522
30
0
11
1148155.062
21
-974269.522
31
0
0
LINE
8
급식기구
10
1148156.062
20
-974769.522
30
0
11
1148156.062
21
-974269.522
31
0
0
LINE
8
급식기구
10
1148157.062
20
-974769.522
30
0
11
1148157.062
21
-974269.522
31
0
0
LINE
8
급식기구
10
1148158.062
20
-974769.522
30
0
11
1148158.062
21
-974269.522
31
0
0
LINE
8
급식기구
10
1148159.062
20
-974769.522
30
0
11
1148159.062
21
-974269.522
31
0
0
LINE
8
급식기구
10
1148160.062
20
-974769.522
30
0
11
1148160.062
21
-974269.522
31
0
0
LINE
8
급식기구
10
1148161.062
20
-974769.522
30
0
11
1148161.062
21
-974269.522
31
0
0
LINE
8
급식기구
10
1148162.062
20
-974769.522
30
0
11
1148162.062
21
-974269.522
31
0
0
LINE
8
급식기구
10
1148163.062
20
-974769.522
30
0
11
1148163.062
21
-974269.522
31
0
0
LINE
8
급식기구
10
1148164.062
20
-974769.522
30
0
11
1148164.062
21
-974269.522
31
0
0
LINE
8
급식기구
10
1148165.062
20
-974769.522
30
0
11
1148165.062
21
-974269.522
31
0
0
LINE
8
급식기구
10
1148166.062
20
-974769.522
30
0
11
1148166.062
21
-974269.522
31
0
0
LINE
8
급식기구
10
1148167.062
20
-974769.522
30
0
11
1148167.062
21
-974269.522
31
0
0
LINE
8
급식기구
10
1148168.062
20
-974769.522
30
0
11
1148168.062
21
-974269.522
31
0
0
LINE
8
급식기구
10
1148169.062
20
-974769.522
30
0
11
1148169.062
21
-974269.522
31
0
0
LINE
8
급식기구
10
1148170.062
20
-974769.522
30
0
11
1148170.062
21
-974269.522
31
0
0
LINE
8
급식기구
10
1148171.062
20
-974769.522
30
0
11
1148171.062
21
-974269.522
31
0
0
LINE
8
급식기구
10
1148172.062
20
-974769.522
30
0
11
1148172.062
21
-974269.522
31
0
0
LINE
8
급식기구
10
1148173.062
20
-974769.522
30
0
11
1148173.062
21
-974269.522
31
0
0
LINE
8
급식기구
10
1148174.062
20
-974769.522
30
0
11
1148174.062
21
-974269.522
31
0
0
LINE
8
급식기구
10
1148175.062
20
-974769.522
30
0
11
1148175.062
21
-974269.522
31
0
0
LINE
8
급식기구
10
1148176.062
20
-974769.522
30
0
11
1148176.062
21
-974269.522
31
0
0
LINE
8
급식기구
10
1148177.062
20
-974769.522
30
0
11
1148177.062
21
-974269.522
31
0
0
LINE
8
급식기구
10
1148178.062
20
-974769.522
30
0
11
1148178.062
21
-974269.522
31
0
0
LINE
8
급식기구
10
1148179.062
20
-974769.522
30
0
11
1148179.062
21
-974269.522
31
0
0
LINE
8
급식기구
10
1148180.062
20
-974769.522
30
0
11
1148180.062
21
-974269.522
31
0
0
LINE
8
급식기구
10
1148181.062
20
-974769.522
30
0
11
1148181.062
21
-974269.522
31
0
0
LINE
8
급식기구
10
1148182.062
20
-974769.522
30
0
11
1148182.062
21
-974269.522
31
0
0
LINE
8
급식기구
10
1148183.062
20
-974769.522
30
0
11
1148183.062
21
-974269.522
31
0
0
LINE
8
급식기구
10
1148184.062
20
-974769.522
30
0
11
1148184.062
21
-974269.522
31
0
0
LINE
8
급식기구
10
1148185.062
20
-974769.522
30
0
11
1148185.062
21
-974269.522
31
0
0
LINE
8
급식기구
10
1148186.062
20
-974769.522
30
0
11
1148186.062
21
-974269.522
31
0
0
LINE
8
급식기구
10
1148187.062
20
-974769.522
30
0
11
1148187.062
21
-974269.522
31
0
0
LINE
8
급식기구
10
1148188.062
20
-974769.522
30
0
11
1148188.062
21
-974269.522
31
0
0
LINE
8
급식기구
10
1148189.062
20
-974769.522
30
0
11
1148189.062
21
-974269.522
31
0
0
LINE
8
급식기구
10
1148190.062
20
-974769.522
30
0
11
1148190.062
21
-974269.522
31
0
0
LINE
8
급식기구
10
1148191.062
20
-974769.522
30
0
11
1148191.062
21
-974269.522
31
0
0
LINE
8
급식기구
10
1148192.062
20
-974769.522
30
0
11
1148192.062
21
-974269.522
31
0
0
LINE
8
급식기구
10
1148193.062
20
-974769.522
30
0
11
1148193.062
21
-974269.522
31
0
0
LINE
8
급식기구
10
1148194.062
20
-974769.522
30
0
11
1148194.062
21
-974269.522
31
0
0
LINE
8
급식기구
10
1148195.062
20
-974769.522
30
0
11
1148195.062
21
-974269.522
31
0
0
LINE
8
급식기구
10
1148196.062
20
-974769.522
30
0
11
1148196.062
21
-974269.522
31
0
0
LINE
8
급식기구
10
1148197.062
20
-974769.522
30
0
11
1148197.062
21
-974269.522
31
0
0
LINE
8
급식기구
10
1148198.062
20
-974769.522
30
0
11
1148198.062
21
-974269.522
31
0
0
LINE
8
급식기구
10
1148199.062
20
-974769.522
30
0
11
1148199.062
21
-974269.522
31
0
0
LINE
8
급식기구
10
1148200.062
20
-974769.522
30
0
11
1148200.062
21
-974269.522
31
0
0
LINE
8
급식기구
10
1148201.062
20
-974769.522
30
0
11
1148201.062
21
-974269.522
31
0
0
LINE
8
급식기구
10
1148202.062
20
-974769.522
30
0
11
1148202.062
21
-974269.522
31
0
0
LINE
8
급식기구
10
1148203.062
20
-974769.522
30
0
11
1148203.062
21
-974269.522
31
0
0
LINE
8
급식기구
10
1148204.062
20
-974769.522
30
0
11
1148204.062
21
-974269.522
31
0
0
LINE
8
급식기구
10
1148205.062
20
-974769.522
30
0
11
1148205.062
21
-974269.522
31
0
0
LINE
8
급식기구
10
1148206.062
20
-974769.522
30
0
11
1148206.062
21
-974269.522
31
0
0
LINE
8
급식기구
10
1148207.062
20
-974769.522
30
0
11
1148207.062
21
-974269.522
31
0
0
LINE
8
급식기구
10
1148208.062
20
-974769.522
30
0
11
1148208.062
21
-974269.522
31
0
0
LINE
8
급식기구
10
1148209.062
20
-974769.522
30
0
11
1148209.062
21
-974269.522
31
0
0
LINE
8
급식기구
10
1148210.062
20
-974769.522
30
0
11
1148210.062
21
-974269.522
31
0
0
LINE
8
급식기구
10
1148211.062
20
-974769.522
30
0
11
1148211.062
21
-974269.522
31
0
0
LINE
8
급식기구
10
1148212.062
20
-974769.522
30
0
11
1148212.062
21
-974269.522
31
0
0
LINE
8
급식기구
10
1148213.062
20
-974769.522
30
0
11
1148213.062
21
-974269.522
31
0
0
LINE
8
급식기구
10
1148214.062
20
-974769.522
30
0
11
1148214.062
21
-974269.522
31
0
0
LINE
8
급식기구
10
1148215.062
20
-974769.522
30
0
11
1148215.062
21
-974269.522
31
0
0
LINE
8
급식기구
10
1148216.062
20
-974769.522
30
0
11
1148216.062
21
-974269.522
31
0
0
LINE
8
급식기구
10
1148217.062
20
-974769.522
30
0
11
1148217.062
21
-974269.522
31
0
0
LINE
8
급식기구
10
1148218.062
20
-974769.522
30
0
11
1148218.062
21
-974269.522
31
0
0
LINE
8
급식기구
10
1148219.062
20
-974769.522
30
0
11
1148219.062
21
-974269.522
31
0
0
LINE
8
급식기구
10
1148220.062
20
-974769.522
30
0
11
1148220.062
21
-974269.522
31
0
0
LINE
8
급식기구
10
1148221.062
20
-974769.522
30
0
11
1148221.062
21
-974269.522
31
0
0
LINE
8
급식기구
10
1148222.062
20
-974769.522
30
0
11
1148222.062
21
-974269.522
31
0
0
LINE
8
급식기구
10
1148223.062
20
-974769.522
30
0
11
1148223.062
21
-974269.522
31
0
0
LINE
8
급식기구
10
1148224.062
20
-974769.522
30
0
11
1148224.062
21
-974269.522
31
0
0
LINE
8
급식기구
10
1148225.062
20
-974769.522
30
0
11
1148225.062
21
-974269.522
31
0
0
LINE
8
급식기구
10
1148226.062
20
-974769.522
30
0
11
1148226.062
21
-974269.522
31
0
0
LINE
8
급식기구
10
1148227.062
20
-974769.522
30
0
11
1148227.062
21
-974269.522
31
0
0
LINE
8
급식기구
10
1148228.062
20
-974769.522
30
0
11
1148228.062
21
-974269.522
31
0
0
LINE
8
급식기구
10
1148229.062
20
-974769.522
30
0
11
1148229.062
21
-974269.522
31
0
0
LINE
8
급식기구
10
1148230.062
20
-974769.522
30
0
11
1148230.062
21
-974269.522
31
0
0
LINE
8
급식기구
10
1148231.062
20
-974769.522
30
0
11
1148231.062
21
-974269.522
31
0
0
LINE
8
급식기구
10
1148232.062
20
-974769.522
30
0
11
1148232.062
21
-974269.522
31
0
0
LINE
8
급식기구
10
1148233.062
20
-974769.522
30
0
11
1148233.062
21
-974269.522
31
0
0
LINE
8
급식기구
10
1148234.062
20
-974769.522
30
0
11
1148234.062
21
-974269.522
31
0
0
LINE
8
급식기구
10
1148235.062
20
-974769.522
30
0
11
1148235.062
21
-974269.522
31
0
0
LINE
8
급식기구
10
1148236.062
20
-974769.522
30
0
11
1148236.062
21
-974269.522
31
0
0
LINE
8
급식기구
10
1148237.062
20
-974769.522
30
0
11
1148237.062
21
-974269.522
31
0
0
LINE
8
급식기구
10
1148238.062
20
-974769.522
30
0
11
1148238.062
21
-974269.522
31
0
0
LINE
8
급식기구
10
1148239.062
20
-974769.522
30
0
11
1148239.062
21
-974269.522
31
0
0
LINE
8
급식기구
10
1148240.062
20
-974769.522
30
0
11
1148240.062
21
-974269.522
31
0
0
LINE
8
급식기구
10
1148241.062
20
-974769.522
30
0
11
1148241.062
21
-974269.522
31
0
0
LINE
8
급식기구
10
1148242.062
20
-974769.522
30
0
11
1148242.062
21
-974269.522
31
0
0
LINE
8
급식기구
10
1148243.062
20
-974769.522
30
0
11
1148243.062
21
-974269.522
31
0
0
LINE
8
급식기구
10
1148244.062
20
-974769.522
30
0
11
1148244.062
21
-974269.522
31
0
0
LINE
8
급식기구
10
1148245.062
20
-974769.522
30
0
11
1148245.062
21
-974269.522
31
0
0
LINE
8
급식기구
10
1148246.062
20
-974769.522
30
0
11
1148246.062
21
-974269.522
31
0
0
LINE
8
급식기구
10
1148247.062
20
-974769.522
30
0
11
1148247.062
21
-974269.522
31
0
0
LINE
8
급식기구
10
1148248.062
20
-974769.522
30
0
11
1148248.062
21
-974269.522
31
0
0
LINE
8
급식기구
10
1148249.062
20
-974769.522
30
0
11
1148249.062
21
-974269.522
31
0
0
LINE
8
급식기구
10
1148250.062
20
-974769.522
30
0
11
1148250.062
21
-974269.522
31
0
0
LINE
8
급식기구
10
1148251.062
20
-974769.522
30
0
11
1148251.062
21
-974269.522
31
0
0
LINE
8
급식기구
10
1148252.062
20
-974769.522
30
0
11
1148252.062
21
-974269.522
31
0
0
LINE
8
급식기구
10
1148253.062
20
-974769.522
30
0
11
1148253.062
21
-974269.522
31
0
0
LINE
8
급식기구
10
1148254.062
20
-974769.522
30
0
11
1148254.062
21
-974269.522
31
0
0
LINE
8
급식기구
10
1148255.062
20
-974769.522
30
0
11
1148255.062
21
-974269.522
31
0
0
LINE
8
급식기구
10
1148256.062
20
-974769.522
30
0
11
1148256.062
21
-974269.522
31
0
0
LINE
8
급식기구
10
1148257.062
20
-974769.522
30
0
11
1148257.062
21
-974269.522
31
0
0
LINE
8
급식기구
10
1148258.062
20
-974769.522
30
0
11
1148258.062
21
-974269.522
31
0
0
LINE
8
급식기구
10
1148259.062
20
-974769.522
30
0
11
1148259.062
21
-974269.522
31
0
0
LINE
8
급식기구
10
1148260.062
20
-974769.522
30
0
11
1148260.062
21
-974269.522
31
0
0
LINE
8
급식기구
10
1148261.062
20
-974769.522
30
0
11
1148261.062
21
-974269.522
31
0
0
LINE
8
급식기구
10
1148262.062
20
-974769.522
30
0
11
1148262.062
21
-974269.522
31
0
0
LINE
8
급식기구
10
1148263.062
20
-974769.522
30
0
11
1148263.062
21
-974269.522
31
0
0
LINE
8
급식기구
10
1148264.062
20
-974769.522
30
0
11
1148264.062
21
-974269.522
31
0
0
LINE
8
급식기구
10
1148265.062
20
-974769.522
30
0
11
1148265.062
21
-974269.522
31
0
0
LINE
8
급식기구
10
1148266.062
20
-974769.522
30
0
11
1148266.062
21
-974269.522
31
0
0
LINE
8
급식기구
10
1148267.062
20
-974769.522
30
0
11
1148267.062
21
-974269.522
31
0
0
LINE
8
급식기구
10
1148268.062
20
-974769.522
30
0
11
1148268.062
21
-974269.522
31
0
0
LINE
8
급식기구
10
1148269.062
20
-974769.522
30
0
11
1148269.062
21
-974269.522
31
0
0
LINE
8
급식기구
10
1148270.062
20
-974769.522
30
0
11
1148270.062
21
-974269.522
31
0
0
LINE
8
급식기구
10
1148271.062
20
-974769.522
30
0
11
1148271.062
21
-974269.522
31
0
0
LINE
8
급식기구
10
1148272.062
20
-974769.522
30
0
11
1148272.062
21
-974269.522
31
0
0
LINE
8
급식기구
10
1148273.062
20
-974769.522
30
0
11
1148273.062
21
-974269.522
31
0
0
LINE
8
급식기구
10
1148274.062
20
-974769.522
30
0
11
1148274.062
21
-974269.522
31
0
0
LINE
8
급식기구
10
1148275.062
20
-974769.522
30
0
11
1148275.062
21
-974269.522
31
0
0
LINE
8
급식기구
10
1148276.062
20
-974769.522
30
0
11
1148276.062
21
-974269.522
31
0
0
LINE
8
급식기구
10
1148277.062
20
-974769.522
30
0
11
1148277.062
21
-974269.522
31
0
0
LINE
8
급식기구
10
1148278.062
20
-974769.522
30
0
11
1148278.062
21
-974269.522
31
0
0
LINE
8
급식기구
10
1148279.062
20
-974769.522
30
0
11
1148279.062
21
-974269.522
31
0
0
LINE
8
급식기구
10
1148280.062
20
-974769.522
30
0
11
1148280.062
21
-974269.522
31
0
0
LINE
8
급식기구
10
1148281.062
20
-974769.522
30
0
11
1148281.062
21
-974269.522
31
0
0
LINE
8
급식기구
10
1148282.062
20
-974769.522
30
0
11
1148282.062
21
-974269.522
31
0
0
LINE
8
급식기구
10
1148283.062
20
-974769.522
30
0
11
1148283.062
21
-974269.522
31
0
0
LINE
8
급식기구
10
1148284.062
20
-974769.522
30
0
11
1148284.062
21
-974269.522
31
0
0
LINE
8
급식기구
10
1148285.062
20
-974769.522
30
0
11
1148285.062
21
-974269.522
31
0
0
LINE
8
급식기구
10
1148286.062
20
-974769.522
30
0
11
1148286.062
21
-974269.522
31
0
0
LINE
8
급식기구
10
1148287.062
20
-974769.522
30
0
11
1148287.062
21
-974269.522
31
0
0
LINE
8
급식기구
10
1148288.062
20
-974769.522
30
0
11
1148288.062
21
-974269.522
31
0
0
LINE
8
급식기구
10
1148289.062
20
-974769.522
30
0
11
1148289.062
21
-974269.522
31
0
0
LINE
8
급식기구
10
1148290.062
20
-974769.522
30
0
11
1148290.062
21
-974269.522
31
0
0
LINE
8
급식기구
10
1148291.062
20
-974769.522
30
0
11
1148291.062
21
-974269.522
31
0
0
LINE
8
급식기구
10
1148292.062
20
-974769.522
30
0
11
1148292.062
21
-974269.522
31
0
0
LINE
8
급식기구
10
1148293.062
20
-974769.522
30
0
11
1148293.062
21
-974269.522
31
0
0
LINE
8
급식기구
10
1148294.062
20
-974769.522
30
0
11
1148294.062
21
-974269.522
31
0
0
LINE
8
급식기구
10
1148295.062
20
-974769.522
30
0
11
1148295.062
21
-974269.522
31
0
0
LINE
8
급식기구
10
1148296.062
20
-974769.522
30
0
11
1148296.062
21
-974269.522
31
0
0
LINE
8
급식기구
10
1148297.062
20
-974769.522
30
0
11
1148297.062
21
-974269.522
31
0
0
LINE
8
급식기구
10
1148298.062
20
-974769.522
30
0
11
1148298.062
21
-974269.522
31
0
0
LINE
8
급식기구
10
1148299.062
20
-974769.522
30
0
11
1148299.062
21
-974269.522
31
0
0
LINE
8
급식기구
10
1148300.062
20
-974769.522
30
0
11
1148300.062
21
-974269.522
31
0
0
LINE
8
급식기구
10
1148301.062
20
-974769.522
30
0
11
1148301.062
21
-974269.522
31
0
0
LINE
8
급식기구
10
1148302.062
20
-974769.522
30
0
11
1148302.062
21
-974269.522
31
0
0
LINE
8
급식기구
10
1148303.062
20
-974769.522
30
0
11
1148303.062
21
-974269.522
31
0
0
LINE
8
급식기구
10
1148304.062
20
-974769.522
30
0
11
1148304.062
21
-974269.522
31
0
0
LINE
8
급식기구
10
1148305.062
20
-974769.522
30
0
11
1148305.062
21
-974269.522
31
0
0
LINE
8
급식기구
10
1148306.062
20
-974769.522
30
0
11
1148306.062
21
-974269.522
31
0
0
LINE
8
급식기구
10
1148307.062
20
-974769.522
30
0
11
1148307.062
21
-974269.522
31
0
0
LINE
8
급식기구
10
1148308.062
20
-974769.522
30
0
11
1148308.062
21
-974269.522
31
0
0
LINE
8
급식기구
10
1148309.062
20
-974769.522
30
0
11
1148309.062
21
-974269.522
31
0
0
LINE
8
급식기구
10
1148310.062
20
-974769.522
30
0
11
1148310.062
21
-974269.522
31
0
0
LINE
8
급식기구
10
1148311.062
20
-974769.522
30
0
11
1148311.062
21
-974269.522
31
0
0
LINE
8
급식기구
10
1148312.062
20
-974769.522
30
0
11
1148312.062
21
-974269.522
31
0
0
LINE
8
급식기구
10
1148313.062
20
-974769.522
30
0
11
1148313.062
21
-974269.522
31
0
0
LINE
8
급식기구
10
1148314.062
20
-974769.522
30
0
11
1148314.062
21
-974269.522
31
0
0
LINE
8
급식기구
10
1148315.062
20
-974769.522
30
0
11
1148315.062
21
-974269.522
31
0
0
LINE
8
급식기구
10
1148316.062
20
-974769.522
30
0
11
1148316.062
21
-974269.522
31
0
0
LINE
8
급식기구
10
1148317.062
20
-974769.522
30
0
11
1148317.062
21
-974269.522
31
0
0
LINE
8
급식기구
10
1148318.062
20
-974769.522
30
0
11
1148318.062
21
-974269.522
31
0
0
LINE
8
급식기구
10
1148319.062
20
-974769.522
30
0
11
1148319.062
21
-974269.522
31
0
0
LINE
8
급식기구
10
1148320.062
20
-974769.522
30
0
11
1148320.062
21
-974269.522
31
0
0
LINE
8
급식기구
10
1148321.062
20
-974769.522
30
0
11
1148321.062
21
-974269.522
31
0
0
LINE
8
급식기구
10
1148322.062
20
-974769.522
30
0
11
1148322.062
21
-974269.522
31
0
0
ENDBLK
0
ENDSEC
0
SECTION
2
ENTITIES
0
INSERT
2
1f plan-1
8
0
10
0
20
0
30
0
41
1
42
1
43
1
50
0
0
TEXT
8
TEXT2
10
1148623.062
20
-966269.522
30
0
40
980
1
경산 사동중
0
LINE
8
CEN
10
1148123.062
20
-974769.522
30
0
11
1160123.062
21
-965769.522
31
0
0
LINE
8
CEN
10
1098123.062
20
-974769.522
30
0
11
1210123.062
21
-965769.522
31
0
0
LINE
8
CEN
10
1048123.062
20
-974769.522
30
0
11
1260123.062
21
-965769.522
31
0
0
LINE
8
CEN
10
998123.062
20
-974769.522
30
0
11
1310123.062
21
-965769.522
31
0
0
LINE
8
CEN
10
948123.062
20
-974769.522
30
0
11
1360123.062
21
-965769.522
31
0
0
LINE
8
CEN
10
898123.062
20
-974769.522
30
0
11
1410123.062
21
-965769.522
31
0
0
LINE
8
CEN
10
848123.062
20
-974769.522
30
0
11
1460123.062
21
-965769.522
31
0
0
LINE
8
CEN
10
798123.062
20
-974769.522
30
0
11
1510123.062
21
-965769.522
31
0
0
ENDSEC
0
EOF
